<?xml version="1.0" encoding="UTF-8"?>
<svg width="210px" height="210px" viewBox="0 0 210 210" version="1.1" xmlns="http://www.w3.org/2000/svg" xmlns:xlink="http://www.w3.org/1999/xlink">
    <!-- Generator: Sketch 52.6 (67491) - http://www.bohemiancoding.com/sketch -->
    <title>Big_Lock</title>
    <desc>Created with Sketch.</desc>
    <g id="Page-1" stroke="none" stroke-width="1" fill="none" fill-rule="evenodd">
        <g id="4B.-Login---Bloqueio-genérico" transform="translate(-536.000000, -101.000000)">
            <g id="Big_Lock" transform="translate(536.000000, 101.000000)">
                <circle id="Oval-7" fill="#9DA7A9" opacity="0.3" cx="105" cy="105" r="105"></circle>
                <path d="M154,95.2732558 C154,103.544683 147.377193,110.25 139.207547,110.25 L135.893169,110.25 C138.847614,107.511778 140.700375,103.574995 140.700375,99.2000851 L140.700375,73.8644574 C140.700375,73.1582774 140.67586,72.4523155 140.626874,71.7478792 C139.472305,55.1444679 125.242241,42.6323679 108.843137,43.8013217 C104.76254,43.8013217 102.038148,43.8013217 100.669962,43.8013217 C100.105054,43.7728174 99.5924391,43.7593438 99.0797377,43.7593438 C82.7162269,43.7593438 69.4509804,57.189855 69.4509804,73.7572302 C69.4509804,77.2837228 69.4509804,79.9285923 69.4509804,81.6918386 C69.4509804,85.5825601 69.4509804,91.4186422 69.4509804,99.2000851 C69.4509804,103.574995 71.3037414,107.511778 74.2581858,110.25 L70.7924528,110.25 C62.6228067,110.25 56,103.544683 56,95.2732558 L56,70 C56,47.7705388 73.7987931,29.75 95.754717,29.75 L113.971353,29.75 C136.078564,29.75 154,47.8947094 154,70.2773428 L154,82.8692765 M154,95.2732558 C154,103.544683 147.377193,110.25 139.207547,110.25 L135.893169,110.25 C138.847614,107.511778 140.700375,103.574995 140.700375,99.2000851 L140.700375,73.8644574 C140.700375,73.1582774 140.67586,72.4523155 140.626874,71.7478792 C139.472305,55.1444679 125.242241,42.6323679 108.843137,43.8013217 C104.76254,43.8013217 102.038148,43.8013217 100.669962,43.8013217 C100.105054,43.7728174 99.5924391,43.7593438 99.0797377,43.7593438 C82.7162269,43.7593438 69.4509804,57.189855 69.4509804,73.7572302 C69.4509804,77.2837228 69.4509804,79.9285923 69.4509804,81.6918386 C69.4509804,85.5825601 69.4509804,91.4186422 69.4509804,99.2000851 C69.4509804,103.574995 71.3037414,107.511778 74.2581858,110.25 L70.7924528,110.25 C62.6228067,110.25 56,103.544683 56,95.2732558 L56,70 C56,47.7705388 73.7987931,29.75 95.754717,29.75 L113.971353,29.75 C136.078564,29.75 154,47.8947094 154,70.2773428 L154,82.8692765 M154,95.2732558 C154,103.544683 147.377193,110.25 139.207547,110.25 L135.893169,110.25 C138.847614,107.511778 140.700375,103.574995 140.700375,99.2000851 L140.700375,73.8644574 C140.700375,73.1582774 140.67586,72.4523155 140.626874,71.7478792 C139.472305,55.1444679 125.242241,42.6323679 108.843137,43.8013217 C104.76254,43.8013217 102.038148,43.8013217 100.669962,43.8013217 C100.105054,43.7728174 99.5924391,43.7593438 99.0797377,43.7593438 C82.7162269,43.7593438 69.4509804,57.189855 69.4509804,73.7572302 C69.4509804,77.2837228 69.4509804,79.9285923 69.4509804,81.6918386 C69.4509804,85.5825601 69.4509804,91.4186422 69.4509804,99.2000851 C69.4509804,103.574995 71.3037414,107.511778 74.2581858,110.25 L70.7924528,110.25 C62.6228067,110.25 56,103.544683 56,95.2732558 L56,70 C56,47.7705388 73.7987931,29.75 95.754717,29.75 L113.971353,29.75 C136.078564,29.75 154,47.8947094 154,70.2773428 L154,82.8692765" id="Combined-Shape" fill="#FFFFFF" fill-rule="nonzero"></path>
                <path d="M143.087271,113.75 C143.794425,112.556922 144.200375,111.164283 144.200375,109.676829 L144.200375,76.9685571 C144.200375,76.2629783 144.175267,75.557623 144.1251,74.85383 C142.957168,58.4690683 128.727899,46.1333902 112.343137,47.3013217 C108.26254,47.3013217 105.538148,47.3013217 104.169962,47.3013217 C104.157965,47.3013217 104.145274,47.3010535 104.131887,47.3005172 L104.131886,47.3005438 C103.732025,47.2845237 103.331882,47.2765113 102.931699,47.2765113 C86.3738055,47.2765113 72.9509804,60.6993363 72.9509804,77.2572302 L72.9509804,109.676829 C72.9509804,111.164284 73.3569313,112.556924 74.0640861,113.750003 L67.5,113.75 C63.081722,113.75 59.5,110.168278 59.5,105.75 L59.5,73.5 C59.5,51.2705388 77.5205388,33.25 99.75,33.25 L117.25,33.25 C139.479461,33.25 157.5,51.2705388 157.5,73.5 L157.5,105.75 C157.5,110.168278 153.918278,113.75 149.5,113.75 L143.087271,113.75 Z" id="Combined-Shape" fill-opacity="0.2" fill="#281F57" fill-rule="nonzero"></path>
                <path d="M154,95.2732558 C154,103.544683 147.377193,110.25 139.207547,110.25 L135.893169,110.25 C138.847614,107.511778 140.700375,103.574995 140.700375,99.2000851 L140.700375,73.8644574 C140.700375,73.1582774 140.67586,72.4523155 140.626874,71.7478792 C139.472305,55.1444679 125.242241,42.6323679 108.843137,43.8013217 C104.76254,43.8013217 102.038148,43.8013217 100.669962,43.8013217 C100.105054,43.7728174 99.5924391,43.7593438 99.0797377,43.7593438 C82.7162269,43.7593438 69.4509804,57.189855 69.4509804,73.7572302 C69.4509804,77.2837228 69.4509804,79.9285923 69.4509804,81.6918386 M69.4509804,99.2000851 C69.4509804,103.574995 71.3037414,107.511778 74.2581858,110.25 L70.7924528,110.25 C62.6228067,110.25 56,103.544683 56,95.2732558 L56,70 C56,47.7705388 73.7987931,29.75 95.754717,29.75 L113.971353,29.75 C136.078564,29.75 154,47.8947094 154,70.2773428 L154,82.8692765 M154,95.2732558 C154,103.544683 147.377193,110.25 139.207547,110.25 L135.893169,110.25 C138.847614,107.511778 140.700375,103.574995 140.700375,99.2000851 L140.700375,73.8644574 C140.700375,73.1582774 140.67586,72.4523155 140.626874,71.7478792 C139.472305,55.1444679 125.242241,42.6323679 108.843137,43.8013217 C104.76254,43.8013217 102.038148,43.8013217 100.669962,43.8013217 C100.105054,43.7728174 99.5924391,43.7593438 99.0797377,43.7593438 C82.7162269,43.7593438 69.4509804,57.189855 69.4509804,73.7572302 C69.4509804,77.2837228 69.4509804,79.9285923 69.4509804,81.6918386 M69.4509804,99.2000851 C69.4509804,103.574995 71.3037414,107.511778 74.2581858,110.25 L70.7924528,110.25 C62.6228067,110.25 56,103.544683 56,95.2732558 L56,70 C56,47.7705388 73.7987931,29.75 95.754717,29.75 L113.971353,29.75 C136.078564,29.75 154,47.8947094 154,70.2773428 L154,82.8692765 M154,95.2732558 C154,103.544683 147.377193,110.25 139.207547,110.25 L135.893169,110.25 C138.847614,107.511778 140.700375,103.574995 140.700375,99.2000851 L140.700375,73.8644574 C140.700375,73.1582774 140.67586,72.4523155 140.626874,71.7478792 C139.472305,55.1444679 125.242241,42.6323679 108.843137,43.8013217 C104.76254,43.8013217 102.038148,43.8013217 100.669962,43.8013217 C100.105054,43.7728174 99.5924391,43.7593438 99.0797377,43.7593438 C82.7162269,43.7593438 69.4509804,57.189855 69.4509804,73.7572302 C69.4509804,77.2837228 69.4509804,79.9285923 69.4509804,81.6918386 M69.4509804,99.2000851 C69.4509804,103.574995 71.3037414,107.511778 74.2581858,110.25 L70.7924528,110.25 C62.6228067,110.25 56,103.544683 56,95.2732558 L56,70 C56,47.7705388 73.7987931,29.75 95.754717,29.75 L113.971353,29.75 C136.078564,29.75 154,47.8947094 154,70.2773428 L154,82.8692765" id="Combined-Shape" stroke="#281F57" stroke-linecap="round" stroke-linejoin="round" fill-rule="nonzero"></path>
                <path d="M33.25,190.847223 L33.25,96.7412281 C33.25,92.603937 36.5875137,89.25 40.7045455,89.25 L169.295455,89.25 C173.412486,89.25 176.75,92.603937 176.75,96.7412281 L176.75,188.508772 C176.75,192.646063 173.412486,196 169.295455,196 L44.3194567,196" id="Rectangle" stroke="#FD9800" stroke-width="2" fill="#FFFFFF" fill-rule="nonzero" stroke-linecap="round"></path>
                <path d="M42.5,94.5 L178,94.5 C180.209139,94.5 182,96.290861 182,98.5 L182,197.25 C182,199.459139 180.209139,201.25 178,201.25 L42.5,201.25 C40.290861,201.25 38.5,199.459139 38.5,197.25 L38.5,98.5 C38.5,96.290861 40.290861,94.5 42.5,94.5 Z" id="Rectangle" fill-opacity="0.2" fill="#FD9800" fill-rule="nonzero"></path>
                <path d="M96.95,166.25 L98.6206997,144.786423 C94.0737181,142.271492 91,137.465476 91,131.95 C91,123.831414 97.6597643,117.25 105.875,117.25 C114.090236,117.25 120.75,123.831414 120.75,131.95 C120.75,137.465476 117.676282,142.271492 113.1293,144.786423 L114.8,166.25 L100.779058,166.25" id="Combined-Shape" stroke="#281F57" fill="#FFFFFF" fill-rule="nonzero" stroke-linecap="round" stroke-linejoin="round"></path>
                <path d="M102.120699,146.536423 C97.5737177,144.021491 94.5,139.215475 94.5,133.7 C94.5,125.581414 101.159764,119 109.375,119 C117.590236,119 124.25,125.581414 124.25,133.7 C124.25,139.215475 121.176282,144.021491 116.629301,146.536423 L118.3,168 L100.45,168 L102.120699,146.536426 Z" id="Combined-Shape" fill-opacity="0.2" fill="#281F57" fill-rule="nonzero"></path>
            </g>
        </g>
    </g>
</svg>