<?xml version="1.0" encoding="UTF-8"?>
<svg width="250px" height="234px" viewBox="0 0 250 234" version="1.1" xmlns="http://www.w3.org/2000/svg" xmlns:xlink="http://www.w3.org/1999/xlink">
    <!-- Generator: Sketch 52.6 (67491) - http://www.bohemiancoding.com/sketch -->
    <title>Blocked User</title>
    <desc>Created with Sketch.</desc>
    <g id="Page-1" stroke="none" stroke-width="1" fill="none" fill-rule="evenodd">
        <g id="6.-Login---Bloqueado" transform="translate(-516.000000, -101.000000)">
            <g id="Blocked-User" transform="translate(516.000000, 101.000000)">
                <circle id="BG" fill="#9DA7A9" opacity="0.3" cx="115.5" cy="115.5" r="115.5"></circle>
                <g id="ID" transform="translate(9.000000, 36.000000)" fill-rule="nonzero">
                    <path d="M129.802,29.5961538 L204.510791,29.5961538 C207.959591,29.5961538 210.755396,32.3857643 210.755396,35.8269231 L210.755396,149.538462 C210.755396,152.97962 207.959591,155.769231 204.510791,155.769231 L6.24460432,155.769231 C2.79580458,155.769231 1.10926456e-14,152.97962 0,149.538462 L0,35.8269231 C0,32.3857643 2.79580458,29.5961538 6.24460432,29.5961538 L119.74557,29.5961538" id="Rectangle-3" stroke="#52A4C5" stroke-width="2" fill="#FFFFFF" stroke-linecap="round"></path>
                    <path d="M10.2446043,35.8269231 L213,35.8269231 C215.209139,35.8269231 217,37.6177841 217,39.8269231 L217,158 C217,160.209139 215.209139,162 213,162 L10.2446043,162 C8.03546532,162 6.24460432,160.209139 6.24460432,158 L6.24460432,39.8269231 C6.24460432,37.6177841 8.03546532,35.8269231 10.2446043,35.8269231 Z" id="Rectangle-3" fill-opacity="0.2" fill="#52A4C5"></path>
                    <path d="M94.5467626,0 L116.208633,-1.77635684e-15 C118.417772,-2.18216909e-15 120.208633,1.790861 120.208633,4 L120.208633,31.6999371 L120.208633,47.4038462 C120.208633,49.6129852 118.417772,51.4038462 116.208633,51.4038462 L94.5467626,51.4038462 C92.3376236,51.4038462 90.5467626,49.6129852 90.5467626,47.4038462 L90.5467626,31.4900665 L90.5467626,4 C90.5467626,1.790861 92.3376236,4.05812251e-16 94.5467626,0 Z" id="Rectangle-3-Copy" stroke="#262254" fill="#FFFFFF"></path>
                    <path d="M99.2302158,4.67307692 L120.892086,4.67307692 C123.101225,4.67307692 124.892086,6.46393792 124.892086,8.67307692 L124.892086,36.3730141 L124.892086,52.0769231 C124.892086,54.2860621 123.101225,56.0769231 120.892086,56.0769231 L99.2302158,56.0769231 C97.0210768,56.0769231 95.2302158,54.2860621 95.2302158,52.0769231 L95.2302158,36.1631434 L95.2302158,8.67307692 C95.2302158,6.46393792 97.0210768,4.67307692 99.2302158,4.67307692 Z" id="Rectangle-3-Copy" fill-opacity="0.2" fill="#262254"></path>
                    <g id="Group-2" transform="translate(120.208633, 71.653846)" stroke="#52A4C5" stroke-linecap="round" stroke-width="2">
                        <path d="M0.78057554,1.94711538 L33.5647482,1.94711538" id="Line-3"></path>
                        <path d="M0.78057554,20.5 L64.7877698,20.5" id="Line-3-Copy"></path>
                        <path d="M0.78057554,34.5192308 L64.7877698,34.5192308" id="Line-3-Copy-2"></path>
                        <path d="M0.78057554,48.5384615 L64.7877698,48.5384615" id="Line-3-Copy-3"></path>
                    </g>
                </g>
                <g id="Splash" transform="translate(141.000000, 125.000000)">
                    <circle id="Oval-7" fill="#FFFFFF" cx="52.1642857" cy="52.1642857" r="52.1642857"></circle>
                    <path d="M92.5310843,85.206631 C99.9040778,76.2099076 104.328571,64.7037946 104.328571,52.1642857 C104.328571,23.3547462 80.9738252,0 52.1642857,0 C23.3547462,0 0,23.3547462 0,52.1642857 C0,80.9738252 23.3547462,104.328571 52.1642857,104.328571 C64.793496,104.328571 76.3744727,99.8405501 85.3993195,92.372404" id="Oval-7" stroke="#C64840" stroke-width="2" fill="#FFFFFF" stroke-linecap="round"></path>
                    <path d="M97.2025128,89.8780596 C104.575506,80.8813362 109,69.3752232 109,56.8357143 C109,28.0261748 85.6452538,4.67142857 56.8357143,4.67142857 C28.0261748,4.67142857 4.67142857,28.0261748 4.67142857,56.8357143 C4.67142857,85.6452538 28.0261748,109 56.8357143,109 C69.4649246,109 81.0459013,104.511979 90.0707481,97.0438326" id="Oval-7" fill-opacity="0.3" fill="#C64840"></path>
                </g>
                <g id="Lock" transform="translate(164.000000, 144.000000)" fill-rule="nonzero">
                    <path d="M47.8889823,24.7885835 C47.8889823,27.9178079 45.2971972,30.4545455 42.1000682,30.4545455 L40.8030116,30.4545455 C41.959211,29.4186287 42.684275,27.9292754 42.684275,26.2741711 L41.197662,17.8265649 C41.197662,17.5594047 41.2132509,17.2904278 41.1688981,17.0258266 C40.4097576,12.4969178 37.0809699,6.9846103 30.6633052,7.4268458 C29.0663943,7.4268458 27.0431147,7.41096484 26.842473,7.41096484 C20.4387372,7.41096484 17.0895973,13.8516941 17.0895973,17.0941432 C17.0895973,18.4282765 17.0895973,19.4288765 17.0895973,20.0959431 C17.0895973,21.5678705 16.3268534,23.6272798 14.8013655,26.2741711 C14.8013655,27.9292754 15.5264294,29.4186287 16.6826288,30.4545455 L15.3263405,30.4545455 C12.1292115,30.4545455 9.53742641,27.9178079 9.53742641,24.7885835 L9.53742641,15.2272727 C9.53742641,6.81748222 16.5028489,2.51619256e-15 25.0951331,0 L32.2240752,0 C40.8755645,-2.51619256e-15 47.8889823,6.86445811 47.8889823,15.3321963 L47.8889823,20.0959431" id="Combined-Shape" fill="#FFFFFF"></path>
                    <path d="M43.6737456,24.4010057 C43.5265049,18.1132694 43.0706643,14.4035436 42.3062239,13.2718284 C40.6876845,10.875663 38.8719699,8.47286337 32.694004,8.47286337 C26.516038,8.47286337 24.4163995,9.94465855 21.5527049,13.2718284 C20.2357667,14.8019067 19.2331108,18.3355188 18.5447372,23.8726647 C18.5156721,24.1064591 18.4969487,24.3414233 18.4886219,24.5768703 C18.3940958,27.2496742 19.6219732,29.6625294 21.5852838,31.1854259 C17.885767,31.5664672 14.3038664,29.3139352 13.1431474,25.628032 C12.8216512,24.6071095 12.7082925,23.5320524 12.8097847,22.4665282 C12.8227425,22.3304888 12.8292215,22.2550828 12.8292215,22.2403101 C12.8292215,16.9282975 12.7488741,13.210713 17.090629,8.1584408 C20.5690386,4.11079809 26.3959311,2.96101025 29.795095,2.96101025 C31.1559424,2.92127496 32.3723482,2.90140731 33.4443123,2.90140731 C39.7257622,2.90140731 45.3996779,7.40213791 48.0249575,10.9942751 C49.7751439,13.3890332 50.6118623,17.1377115 50.5351126,22.2403101 L43.6737456,24.4010057 Z" id="Combined-Shape" fill-opacity="0.2" fill="#281F57"></path>
                    <path d="M41.3007961,28.3044741 L41.3007961,18.719567 C41.3007961,18.4524068 41.2923728,18.1853292 41.2755418,17.9188288 C40.8788375,11.6374704 35.1378568,6.9039261 29.5032086,7.34616161 C28.1011361,7.34616161 28.1804207,7.34616161 28.0042591,7.34616161 C22.3818405,7.34616161 16.8198684,12.4112758 16.8198684,18.6790011 C16.8198684,20.0131344 16.8198684,21.0137343 16.8198684,21.680801" id="Path" stroke="#281F57" stroke-linecap="round" stroke-linejoin="round"></path>
                    <path d="M9.53742641,24.7885835 L9.53742641,16.3152071 C9.53742641,7.90541659 18.5242391,0 27.1165233,0 L30.6183592,0 C39.2698485,0 47.8889823,7.37196719 47.8889823,15.8397054 L47.8889823,18.3644895" id="Path" stroke="#281F57" stroke-linecap="round" stroke-linejoin="round"></path>
                    <ellipse id="Oval" fill="#FFFFFF" transform="translate(3.810118, 60.596520) rotate(22.000000) translate(-3.810118, -60.596520) " cx="3.81011838" cy="60.59652" rx="2.92682927" ry="2.91304348"></ellipse>
                    <path d="M1.46341463,60.9793569 L1.46341463,25.1828814 C1.46341463,23.6091195 2.73096232,22.3333333 4.29456162,22.3333333 L53.1318471,22.3333333 C54.6954464,22.3333333 55.9629941,23.6091195 55.9629941,25.1828814 L55.9629941,60.0898458 C55.9629941,61.6636078 54.6954464,62.9393939 53.1318471,62.9393939 L5.66746158,62.9393939" id="Rectangle" stroke="#262254" fill="#FFFFFF" stroke-linecap="round"></path>
                    <path d="M9.50042052,26.3939394 L56,26.3939394 C58.209139,26.3939394 60,28.1848004 60,30.3939394 L60,63 C60,65.209139 58.209139,67 56,67 L9.50042052,67 C7.29128152,67 5.50042052,65.209139 5.50042052,63 L5.50042052,30.3939394 C5.50042052,28.1848004 7.29128152,26.3939394 9.50042052,26.3939394 Z" id="Rectangle" fill-opacity="0.3" fill="#262254"></path>
                </g>
                <g id="Margo" transform="translate(20.000000, 88.000000)">
                    <ellipse id="Oval-3" fill="#FFFFFF" fill-rule="nonzero" cx="46.779661" cy="47.2786885" rx="45.220339" ry="45.1639344"></ellipse>
                    <path d="M76.3373925,45.1191834 C78.076859,48.7273814 79.074302,52.4420548 79.3297215,56.2632034 C80.0130729,66.4863373 76.3814941,74.862876 72.2272346,75.5850921 C69.4577284,76.0665695 65.2303328,75.7792439 59.545048,74.7231152 L56.9936483,91.2832634 C52.9905004,92.0602138 50.0290558,92.4499438 48.1093142,92.4524535 C46.1895727,92.4549631 43.4348933,92.2927363 39.8452761,91.9657733 L40.3046165,89.0335648 C40.4177786,86.5875738 41.9442455,76.8314098 41.663113,77.0565125 C39.6994143,78.6288447 37.8750782,78.6825836 34.762786,78.0776153 C29.497055,77.0540609 25.8566044,72.2802307 26.2862132,67.0489939 L26.3543689,66.2190797 L25.7115742,66.7554418 C23.3052084,68.7633666 20.1040682,69.6092845 16.9415482,68.9945528 C11.2559207,67.8893788 7.53030557,62.4482622 8.62015387,56.8414788 C8.89666405,55.4189572 9.4617228,54.0958147 10.2764461,52.9322432 L10.496835,52.6174882 L10.155296,52.4328235 C6.17537204,50.280942 3.99700899,45.8156376 4.86283524,41.3613477 C5.89522719,36.0501516 10.9027088,32.4540549 16.3196469,33.084511 L16.9676381,33.1599281 L16.6695221,32.5859001 C15.6070666,30.5401212 15.2543439,28.2078233 15.7012188,25.9088513 C16.7910671,20.3020679 22.2836755,16.6527924 27.9693029,17.7579665 C29.4975187,18.0550215 30.9140472,18.6711537 32.1457654,19.5593174 L32.6398789,19.9156113 L32.6986821,19.3161942 C32.730224,18.9946682 32.7770722,18.6735078 32.8392927,18.3534113 C33.929141,12.7466278 39.4217493,9.09735239 45.1073768,10.2025264 C48.2652772,10.8163601 50.9134215,12.7949469 52.3937482,15.5522083 L52.7115837,16.1442098 L53.0147374,15.5479381 C55.098154,11.4500749 59.7218637,9.18025667 64.3614671,10.0821042 C70.0470946,11.1872782 73.7727097,16.6283948 72.6828614,22.2351782 C72.5414626,22.9626118 72.3245008,23.6648588 72.0362542,24.3343015 L71.7983677,24.8867792 L72.4026439,24.8129252 C73.4970683,24.6791657 74.6131089,24.7174921 75.7197722,24.9326057 C81.4053996,26.0377797 85.1310147,31.4788963 84.0411664,37.0856797 C83.2248751,41.2851344 80.2926694,44.2991447 76.3373925,45.1191834 Z" id="Combined-Shape" fill="#FFFFFF" fill-rule="nonzero"></path>
                    <path d="M77.6433127,40.5854015 C81.5765964,39.2023934 84.2033898,36.1205672 84.2033898,31.8068304 C84.2033898,26.3077836 79.6337969,21.8499254 73.9969183,21.8499254 C72.8997437,21.8499254 71.8264394,22.0187253 70.8057417,22.3461886 L70.242173,22.5269943 L70.3668395,21.96116 C70.5178964,21.2755336 70.5947612,20.572 70.5947612,19.8585444 C70.5947612,14.3594976 66.0251682,9.90163934 60.3882897,9.90163934 C55.7884665,9.90163934 51.7927969,12.8961852 50.5634089,17.1517102 L50.3845231,17.7709229 L49.9709521,17.2698241 C48.0447355,14.9359445 45.1474653,13.5525045 42.016641,13.5525045 C36.3797624,13.5525045 31.8101695,18.0103627 31.8101695,23.5094095 C31.8101695,23.8233553 31.8250526,24.1354825 31.8546262,24.4451435 L31.9097599,25.0224406 L31.3715556,24.7764865 C30.0299286,24.163376 28.5622623,23.8413064 27.0471495,23.8413064 C21.4102709,23.8413064 16.840678,28.2991646 16.840678,33.7982114 C16.840678,36.0530078 17.6107461,38.1924102 19.0056375,39.9306494 L19.397032,40.4183844 L18.7639819,40.4661482 C13.4719442,40.8654334 9.3559322,45.1839138 9.3559322,50.3930531 C9.3559322,54.7617521 12.266183,58.5816302 16.4679226,59.8841933 L16.8284969,59.9959733 L16.6764019,60.3339271 C16.1141444,61.5832589 15.8200308,62.9375329 15.8200308,64.3327202 C15.8200308,69.831767 20.3896238,74.2896252 26.0265023,74.2896252 C29.1619067,74.2896252 32.0629674,72.9021055 33.9889746,70.5624044 L34.5034547,69.9374173 L34.5924564,70.7342698 C35.1534649,75.7571077 38.977606,79.9836066 44.1981884,79.9836066 C47.7826992,79.9836066 48.5573839,79.6076891 50.1442369,77.5924274 C51.6179381,75.7208654 50.999282,70.9289238 50.3654358,67.6721698 C49.8813372,65.1848309 42.6107634,67.9642074 40.9833335,63.4654162 C40.038936,60.8547678 40.7918698,58.7736974 43.7659531,57.470776 C45.9104176,56.5313038 47.6024795,59.8722582 50.0004409,58.3594665 C53.6866127,56.033987 53.3544383,46.1901292 52.627363,42.4543561 C63.2587649,42.4629509 71.0334074,37.510374 71.8084784,35.7783325 C72.4630502,34.3155691 77.4981349,40.6364485 77.6433127,40.5854015 Z" id="Path" fill-opacity="0.3" fill="#C64840" fill-rule="nonzero" transform="translate(46.779661, 44.942623) rotate(11.000000) translate(-46.779661, -44.942623) "></path>
                    <ellipse id="Oval-5" stroke="#281F57" stroke-width="2" transform="translate(39.762712, 65.188525) rotate(11.000000) translate(-39.762712, -65.188525) " cx="39.7627119" cy="65.1885246" rx="1" ry="1"></ellipse>
                    <path d="M54.5762712,51.9508197 C53.6348185,51.7764636 53.1150445,51.2573379 53.0169492,50.3934426" id="Path-10" stroke="#281F57" stroke-linecap="round" stroke-linejoin="round" transform="translate(53.796610, 51.172131) rotate(-285.000000) translate(-53.796610, -51.172131) "></path>
                    <path d="M68.177157,46.8819057 C67.5411934,46.6873786 67.1950435,46.2685531 67.1387072,45.6254294" id="Path-10" stroke="#281F57" stroke-linecap="round" stroke-linejoin="round" transform="translate(67.657932, 46.253668) scale(-1, 1) rotate(-265.000000) translate(-67.657932, -46.253668) "></path>
                    <ellipse id="Oval-4" stroke="#262254" fill-rule="nonzero" transform="translate(64.711864, 69.081967) rotate(-11.000000) translate(-64.711864, -69.081967) " cx="64.7118644" cy="69.0819672" rx="2.33898305" ry="3.1147541"></ellipse>
                    <path d="M67.0508475,56.6229508 L67.0508475,62.382807 C66.1944422,63.0090097 65.1548942,63.0090097 63.9322034,62.382807" id="Path-11" stroke="#281F57" stroke-linecap="round" stroke-linejoin="round" transform="translate(65.491525, 59.737705) rotate(-36.000000) translate(-65.491525, -59.737705) "></path>
                    <ellipse id="Oval-5" fill="#281F57" transform="translate(57.694915, 56.622951) rotate(-22.000000) translate(-57.694915, -56.622951) " cx="57.6949153" cy="56.6229508" rx="1.55932203" ry="1.55737705"></ellipse>
                    <ellipse id="Oval-5" fill="#281F57" transform="translate(68.220339, 53.118852) rotate(-22.000000) translate(-68.220339, -53.118852) " cx="68.220339" cy="53.1188525" rx="1.16949153" ry="1.16803279"></ellipse>
                    <path d="M56.1313023,42.6065574 C56.1313023,42.6065574 56.7253555,55.104406 43.9339776,57.7310253 C43.9339776,51.1360414 33.5447973,49.3207438 31.5220999,56.608853 C29.4994024,63.8969622 37.115501,67.7352368 41.0777775,65.1719095" id="Path-5" stroke="#281F57" stroke-linecap="round" stroke-linejoin="round" transform="translate(43.661017, 54.286885) rotate(-35.000000) translate(-43.661017, -54.286885) "></path>
                    <path d="M41.9061974,68.9896544 L42.3149792,89.235556" id="Path-23" stroke="#262254" stroke-linecap="round" stroke-linejoin="round" fill-rule="nonzero" transform="translate(42.406197, 79.112605) rotate(11.000000) translate(-42.406197, -79.112605) "></path>
                    <path d="M45.220339,42.6156962 C50.9621073,43.6041984 55.9065061,43.2313996 60.0535353,41.4972998 C64.2005646,39.7632 66.7185153,38.0564498 67.6073874,36.3770492 C73.9944897,41.4213538 78.0806357,47.2496425 79.8658252,53.8619151 C82.5436096,63.7803241 80.534821,72.7080449 76.5100387,74.2117074 C73.8268505,75.2141491 69.5319651,75.7394421 63.6253824,75.7875864 L63.6983402,89.3278689" id="Path-25" stroke="#262254" stroke-linecap="round" stroke-linejoin="round" fill-rule="nonzero" transform="translate(63.152542, 62.852459) rotate(11.000000) translate(-63.152542, -62.852459) "></path>
                    <path d="M77.082085,38.0623472 C81.0973121,36.6486055 82.6440678,33.5884559 82.6440678,29.1788583 C82.6440678,23.5576105 77.979275,19.0006887 72.2249615,19.0006887 C71.104929,19.0006887 70.0092642,19.1732398 68.967302,19.50798 L68.3919923,19.6928037 L68.519256,19.1143953 C68.67346,18.4135328 68.751926,17.6943651 68.751926,16.9650548 C68.751926,11.343807 64.0871332,6.78688525 58.3328197,6.78688525 C53.6371669,6.78688525 49.5582542,9.84797655 48.3032539,14.1980688 L48.1206414,14.8310418 L47.6984543,14.3188075 C45.7321081,11.9330639 42.7744782,10.5188808 39.5784284,10.5188808 C33.8241148,10.5188808 29.159322,15.0758025 29.159322,20.6970503 C29.159322,21.0179726 29.1745152,21.3370361 29.2047049,21.6535784 L29.2609872,22.2437044 L28.7115703,21.9922846 C27.3419928,21.3655494 25.8437501,21.0363227 24.2970724,21.0363227 C18.5427589,21.0363227 13.8779661,25.5932444 13.8779661,31.2144922 C13.8779661,33.5193952 14.6640773,35.7063399 16.0880289,37.4832066 L16.4875776,37.9817802 L15.8413389,38.0306054 C10.4390504,38.4387636 6.23728814,42.8532103 6.23728814,48.1781082 C6.23728814,52.6438894 9.20816919,56.5486537 13.497445,57.8801626 L13.8655312,57.9944267 L13.7102676,58.3398906 C13.1362964,59.6169852 12.8360555,61.0013542 12.8360555,62.4275456 C12.8360555,68.0487935 17.5008483,72.6057152 23.2551618,72.6057152 C26.4558871,72.6057152 29.4173866,71.1873618 31.3835189,68.7956673 L31.9087173,68.1567916 L31.9995732,68.9713519 C32.5722695,74.1058084 36.4760801,78.4262295 41.8054247,78.4262295 C45.4646127,78.4262295 46.874725,77.4432929 49.0300605,75.8726851" id="Path" stroke="#262254" stroke-linecap="round" stroke-linejoin="round" fill-rule="nonzero" transform="translate(44.440678, 42.606557) rotate(11.000000) translate(-44.440678, -42.606557) "></path>
                </g>
            </g>
        </g>
    </g>
</svg>