<?xml version="1.0" encoding="UTF-8"?>
<svg width="200px" height="150px" viewBox="0 0 200 150" version="1.1" xmlns="http://www.w3.org/2000/svg" xmlns:xlink="http://www.w3.org/1999/xlink">
    <!-- Generator: Sketch 52.6 (67491) - http://www.bohemiancoding.com/sketch -->
    <title>Email Sent</title>
    <desc>Created with Sketch.</desc>
    <g id="Page-1" stroke="none" stroke-width="1" fill="none" fill-rule="evenodd">
        <g id="12.-Esqueceu-a-senha---Email" transform="translate(-541.000000, -181.000000)">
            <g id="Email-Sent" transform="translate(539.000000, 181.000000)">
                <circle id="BG" fill="#9DA7A9" opacity="0.3" cx="127" cy="75" r="75"></circle>
                <path d="M37.6274551,41.9812464 C31.7632671,41.9812464 27.0094035,46.7417681 27.0094035,52.6141692 C27.0094035,58.4865703 31.7632671,63.247092 37.6274551,63.247092 C34.3947951,65.878659 32.3184293,69.9023397 32.3184293,74.4116609 C32.3184293,82.3394024 38.7361452,88.7661067 46.6527989,88.7661067 C47.7051534,88.7661067 48.7310214,88.6525457 49.7188493,88.4369936 C48.773306,90.4763627 48.2455067,92.7493882 48.2455067,95.1458604 C48.2455067,103.954462 55.3763021,111.095245 64.172584,111.095245 C67.2220789,111.095245 70.071404,110.237015 72.4928392,108.748595 C74.0124457,112.018396 77.3226154,114.285121 81.1614665,114.285121 C86.1200028,114.285121 90.1964782,110.50328 90.671479,105.662821 C91.0288575,105.738805 91.3995257,105.778783 91.7795181,105.778783 C94.7116121,105.778783 97.0885439,103.398522 97.0885439,100.462322 C97.0885439,98.6119531 76.8648037,69.488751 59.6539929,52.9203639 C49.5543585,43.1977162 39.7960815,41.9812464 37.6274551,41.9812464 Z" id="sombra-asa-direita" fill-opacity="0.2" fill="#52A4C5" transform="translate(62.048974, 78.133184) rotate(-13.000000) translate(-62.048974, -78.133184) "></path>
                <g id="Right-wing" transform="translate(100.000000, 7.000000)">
                    <g id="asa-direita-copy-2" transform="translate(48.034070, 49.062506) rotate(16.000000) translate(-48.034070, -49.062506) translate(9.534070, 9.062506)">
                        <path d="M16.423269,8.67437664 C11.1514601,8.67437664 6.87781449,12.9540077 6.87781449,18.2332002 C6.87781449,23.5123926 11.1514601,27.7920237 16.423269,27.7920237 C13.5171606,30.1577594 11.6505418,33.7749825 11.6505418,37.8287884 C11.6505418,44.9556982 17.4199633,50.7332002 24.5369054,50.7332002 C25.4829549,50.7332002 26.4051934,50.6311107 27.2932345,50.4373328 C26.4432065,52.2706924 25.9687236,54.314105 25.9687236,56.4684943 C25.9687236,64.387283 32.3791919,70.8067296 40.2869054,70.8067296 C43.0283514,70.8067296 45.5898479,70.0351955 47.7666786,68.6971305 C49.13278,71.636628 52.1085683,73.6743766 55.5596327,73.6743766 C60.0172756,73.6743766 63.6819602,70.2745635 64.1089782,65.9230695 C64.4302556,65.9913784 64.7634802,66.0273178 65.1050872,66.0273178 C67.7409917,66.0273178 69.8778145,63.8875023 69.8778145,61.2479061 C69.8778145,59.5844549 51.6970031,33.403173 36.2247659,18.5084642 C27.14536,9.76796308 18.3728287,8.67437664 16.423269,8.67437664 Z" id="sombra-asa-direita" fill-opacity="0.2" fill="#52A4C5" transform="translate(38.377814, 41.174377) rotate(-13.000000) translate(-38.377814, -41.174377) "></path>
                        <path d="M19.9393939,7 C15.002303,7 11,10.9504287 11,15.8235294 C11,20.6966301 15.002303,24.6470588 19.9393939,24.6470588 C17.2178003,26.8308148 15.469697,30.16979 15.469697,33.9117647 C15.469697,40.4904507 20.872806,45.8235294 27.5378788,45.8235294 C28.4238616,45.8235294 29.2875453,45.729293 30.1192029,45.5504211 C29.3231449,47.242753 28.8787879,49.12898 28.8787879,51.1176471 C28.8787879,58.4272982 34.8822424,64.3529412 42.2878788,64.3529412 C44.8552647,64.3529412 47.2541266,63.6407558 49.2927458,62.4056189 C50.5721105,65.1190013 53.3589599,67 56.5909091,67 C60.7655271,67 64.1975333,63.8617109 64.597439,59.8449473 C64.8983179,59.9080017 65.2103854,59.9411765 65.530303,59.9411765 C67.9988485,59.9411765 70,57.9659621 70,55.5294118 C70,53.9939184 52.9735258,29.8265812 38.4836529,16.0776193 C29.9807172,8.00946441 21.7651721,7 19.9393939,7 Z" id="asa-esquerda" stroke="#52A4C5" stroke-width="2" fill="#FFFFFF" transform="translate(40.500000, 37.000000) rotate(-14.000000) translate(-40.500000, -37.000000) "></path>
                    </g>
                    <path d="M68.9419425,65.500748 C68.1425348,65.2893632 67.4904713,64.8051525 67.0597212,64.1755997 C65.8036763,65.4489628 63.9134966,66.033383 62.0602703,65.5433406 C60.8827032,65.2319604 59.9120126,64.5375225 59.2471886,63.6306331 C57.6632378,64.3311119 55.838356,64.5188639 54.0363197,64.0423575 C50.154892,63.0160045 47.743062,59.2685075 48.3163457,55.4118102 C47.5027677,55.386148 46.6796542,55.2686613 45.8599547,55.0519108 C40.0670823,53.5201209 36.6383556,47.6108196 38.2016792,41.8531169 C38.2016792,41.8531169 37.3741392,51.8015209 47.9402454,54.1659007 C48.7385071,54.3445279 49.5291797,54.490376 50.315644,54.5173523 C49.7734093,58.2027841 52.1161781,61.7927772 55.8710375,62.7856622 C57.6143118,63.2466304 59.3776204,63.0726102 60.9064706,62.4076799 C61.5518689,63.2766972 62.4922559,63.9435208 63.6314242,64.2447473 C65.4242192,64.7188101 67.2494205,64.1657557 68.4595587,62.9521414 C68.877852,63.5553115 69.5096137,64.0201932 70.2829537,64.2246849 C71.1321963,64.4492473 71.9926769,64.3176223 72.7000207,63.9228689 C71.9733754,65.2088526 70.4390246,65.8966164 68.9419425,65.500748 Z" id="sombra" fill-opacity="0.2" fill="#52A4C5" transform="translate(55.261875, 53.784480) rotate(18.000000) translate(-55.261875, -53.784480) "></path>
                    <path d="M71.1038824,63.9314907 C70.5288203,63.6680636 70.1018138,63.2188511 69.8615139,62.6893442 C68.7413739,63.4821309 67.2353839,63.6741736 65.9022466,63.063484 C65.0551516,62.6754428 64.4159321,62.0265521 64.0363131,61.2579859 C62.745879,61.5773082 61.342704,61.4797553 60.0463907,60.8859342 C57.254246,59.6068958 55.9387953,56.4748493 56.8919358,53.6511359 C56.2811196,53.5254445 55.6754914,53.3294906 55.0858321,53.0593768 C50.9186701,51.1504642 49.1270696,46.2606126 51.0841803,42.1375876 C51.0841803,42.1375876 49.1172589,49.5065695 56.7760486,52.6655231 C57.3546646,52.9041798 57.9319728,53.1172072 58.52214,53.2403403 C57.6155473,55.9393915 58.9001027,58.944026 61.6011993,60.1813567 C62.8552415,60.755814 64.2100742,60.8556349 65.4541097,60.5558245 C65.824171,61.2933855 66.4442356,61.9175581 67.2637079,62.2929457 C68.5533734,62.8837215 70.0060711,62.7067552 71.0834896,61.9528717 C71.3179434,62.4609203 71.7322289,62.8929499 72.288539,63.1477869 C72.8994504,63.427636 73.5668987,63.4412447 74.1542213,63.2370583 C73.4320929,64.1085682 72.1808237,64.4248209 71.1038824,63.9314907 Z" id="sombra" fill-opacity="0.2" fill="#52A4C5" transform="translate(62.222858, 53.151153) rotate(18.000000) translate(-62.222858, -53.151153) "></path>
                </g>
                <g id="Email" transform="translate(96.000000, 69.000000)">
                    <polyline id="Rectangle-4" stroke="#281F57" stroke-width="2" fill="#FFFFFF" stroke-linecap="round" stroke-linejoin="round" points="0 70 0 0 92 6 96 64 3.55943355 70"></polyline>
                    <path d="M7.83682831,3.18243093 L91.813307,8.7170797 C93.8116541,8.84878502 95.4046138,10.4380435 95.5409672,12.4360788 L99.0173619,63.3769136 C99.167772,65.5809263 97.5029982,67.4895631 95.2989855,67.6399732 C95.2922533,67.6404326 95.2855199,67.640875 95.2787854,67.6413004 L7.82591206,73.1649114 C5.62116639,73.3041653 3.72097926,71.6297534 3.58172532,69.4250077 C3.57642342,69.3410651 3.57377049,69.2569761 3.57377049,69.1728662 L3.57377049,7.17377163 C3.57377049,4.96463263 5.36463149,3.17377163 7.57377049,3.17377163 C7.66152768,3.17377163 7.7492611,3.17665963 7.83682831,3.18243093 Z" id="Rectangle-4" fill-opacity="0.2" fill="#281F57"></path>
                    <path d="M42.5,34.5 L8.5,65.5" id="Line" stroke="#281F57" stroke-linecap="round" stroke-linejoin="round" fill-rule="nonzero"></path>
                    <path d="M66.1430701,34.4906129 L92.5,60.5" id="Line-2" stroke="#281F57" stroke-linecap="round" stroke-linejoin="round" fill-rule="nonzero"></path>
                    <path d="M55.4556212,43.9666369 C54.9222338,44.5333445 53.8563236,44.3499156 51.7262309,43.1900149 C47.4625872,40.8683305 8.38570701,16.609935 4.90480087,11.5663642 C2.58419678,8.20398363 1.61592982,5.01519557 2,2 C2.74697931,4.66666667 4.56928876,7.26474281 7.46692834,9.79422842 C9.92075026,11.9362848 33.5813648,26.9035052 55.9898745,40.2334707 C55.9898745,40.2884044 55.9898745,40.3428727 55.9898604,40.3968697 C56.0775039,40.2368966 56.1213256,40.1248852 56.1213256,40.0608353 C71.6923576,28.14279 84.8911549,16.4946463 86.7049276,14.8989301 C88.7119021,13.1332394 89.8086246,11.0692764 89.9950951,8.707041 C90.0664582,10.3129916 89.8249104,11.8987751 89.2704518,13.4643916 C88.4387638,15.8128163 85.3376485,19.7532786 80.9919151,23.1414361 C76.6461818,26.5295936 58.0193999,42.276784 56.1213256,43.5715261 C55.8835821,43.7336992 55.6616806,43.8654028 55.4556212,43.9666369 Z" id="Combined-Shape" fill-opacity="0.4" fill="#281F57"></path>
                    <path d="M2,2 C2.74697931,4.66666667 4.56928876,7.26474281 7.46692834,9.79422842 C10.3645679,12.323714 26.4035514,22.4049976 55.5838787,40.038079" id="Rectangle-4-Copy" stroke="#281F57" stroke-linecap="round" stroke-linejoin="round"></path>
                    <path d="M56,9 C56.4739727,11.1759304 57.6302631,13.2958926 59.468871,15.3598868 C61.307479,17.423881 71.484522,25.6499451 90,40.038079" id="Rectangle-4-Copy" stroke="#281F57" stroke-linecap="round" stroke-linejoin="round" transform="translate(73.000000, 24.519040) scale(-1, 1) translate(-73.000000, -24.519040) "></path>
                </g>
                <g id="Left-wing" transform="translate(0.000000, 33.000000)">
                    <g id="Group" transform="translate(14.000000, 29.500000) rotate(6.000000) translate(-14.000000, -29.500000) translate(2.000000, 17.000000)" fill="#5F7E84" fill-opacity="0.2" fill-rule="nonzero">
                        <path d="M8.65902562,17.0831305 C5.33230895,11.759271 5.49214366,5.24485678 8.5218529,0.21100886 C7.38584872,4.97111377 8.24329725,10.5286243 11.3056154,15.4293577 C14.3679335,20.3300911 18.9871102,23.537013 23.7634556,24.6026719 C17.9109259,25.1190628 11.9857423,22.4069901 8.65902562,17.0831305 Z" id="Path"></path>
                        <path d="M2.06824791,18.9370195 C-0.127513757,15.4230663 -0.0220166664,11.123301 1.97770861,7.80076665 C1.22790192,10.94262 1.79385111,14.6107919 3.81509951,17.8454655 C5.83634791,21.0801391 8.88518315,23.1968316 12.0377559,23.9002076 C8.17485993,24.2410456 4.26400958,22.4509727 2.06824791,18.9370195 Z" id="Path"></path>
                    </g>
                    <g id="asa-direita-copy-3" transform="translate(23.000000, 0.000000)" fill="#FFFFFF" stroke="#52A4C5" stroke-width="2">
                        <path d="M17.8004071,6.97706961 C12.3085485,6.97706961 7.85651748,11.3713973 7.85651748,16.7920753 C7.85651748,22.2127532 12.3085485,26.6070809 17.8004071,26.6070809 C14.7729953,29.0362197 12.8284623,32.7503866 12.8284623,36.9128369 C12.8284623,44.2307521 18.8387041,50.1630945 26.2527132,50.1630945 C27.2382515,50.1630945 28.1989851,50.058269 29.1240937,49.8592978 C28.2385849,51.7417924 27.7442966,53.8399697 27.7442966,56.0520979 C27.7442966,64.1831148 34.4223431,70.7746064 42.660131,70.7746064 C45.5160072,70.7746064 48.1844227,69.9823947 50.452116,68.6084688 C51.8752396,71.6267466 54.9752397,73.7191081 58.5703543,73.7191081 C63.2140629,73.7191081 67.0317144,70.2281779 67.4765564,65.7600614 C67.8112443,65.830201 68.158378,65.8671036 68.5142439,65.8671036 C71.2601732,65.8671036 73.4861887,63.6699397 73.4861887,60.9596008 C73.4861887,59.2515681 54.5464954,32.3686123 38.4284345,17.0747166 C28.9700468,8.09996482 19.8313429,6.97706961 17.8004071,6.97706961 Z" id="asa-esquerda" transform="translate(40.671353, 40.348089) rotate(-14.000000) translate(-40.671353, -40.348089) "></path>
                    </g>
                    <path d="M89.9118268,61.601193 C88.9378954,61.3503876 88.1434757,60.7758773 87.6186859,60.0289204 C86.0884258,61.5397505 83.7855892,62.2331582 81.5277733,61.6517286 C80.0931241,61.2822798 78.9105159,60.4583375 78.1005501,59.382324 C76.1707969,60.2134338 73.9475137,60.4361993 71.7520634,59.8708301 C67.0232568,58.6530745 64.0848849,54.2067142 64.7833259,49.6307889 C63.7921306,49.6003411 62.789318,49.4609444 61.7906646,49.2037726 C54.7331138,47.3863222 50.5558401,40.3750067 52.4604628,33.5435613 C52.4604628,33.5435613 51.4522573,45.3472238 64.3251168,48.1525322 C65.297652,48.3644712 66.2609414,48.5375182 67.2191035,48.5695253 C66.5584902,52.9422461 69.4127236,57.20173 73.9873301,58.3797761 C76.1111896,58.9267094 78.2594573,58.7202366 80.1220803,57.9313047 C80.9083796,58.9623834 82.0540685,59.7535616 83.4419357,60.1109632 C85.6261271,60.6734331 87.8497996,60.0172406 89.3241308,58.5773018 C89.8337443,59.2929559 90.6034298,59.8445325 91.5456026,60.0871595 C92.5802487,60.3536001 93.6285862,60.1974286 94.4903547,59.7290583 C93.6050709,61.2548627 91.7357463,62.0708862 89.9118268,61.601193 Z" id="sombra" fill-opacity="0.2" fill="#52A4C5"></path>
                    <path d="M92.4893727,58.1099875 C91.7816825,57.7928323 91.2561943,57.2519992 90.9604733,56.6144948 C89.5819924,57.5689771 87.7286718,57.8001884 86.0880695,57.0649436 C85.0456067,56.5977582 84.2589623,55.8165209 83.7917907,54.8911991 C82.2037402,55.2756499 80.4769472,55.1582003 78.8816617,54.4432645 C75.445557,52.9033555 73.8267203,49.132502 74.9996863,45.7328687 C74.2479958,45.5815414 73.5026899,45.3456212 72.7770359,45.0204154 C67.64879,42.7221642 65.4439878,36.8349866 67.8524724,31.8710363 C67.8524724,31.8710363 65.4319145,40.7429834 74.8570716,44.546232 C75.5691355,44.8335647 76.2795898,45.0900408 77.0058688,45.2382879 C75.8901862,48.4878331 77.4710022,52.1052879 80.79506,53.5949824 C82.3383253,54.2866051 84.0056267,54.4067853 85.5365776,54.0458261 C85.9919871,54.9338188 86.7550589,55.6852966 87.7635283,56.1372476 C89.3506328,56.8485171 91.1383702,56.635457 92.4642766,55.7278127 C92.7528032,56.339482 93.2626364,56.8596277 93.9472498,57.1664409 C94.6990573,57.5033675 95.520441,57.5197518 96.2432195,57.2739198 C95.3545446,58.3231815 93.8146919,58.7039365 92.4893727,58.1099875 Z" id="sombra" fill-opacity="0.2" fill="#52A4C5"></path>
                </g>
            </g>
        </g>
    </g>
</svg>