<?xml version="1.0" encoding="UTF-8"?>
<svg width="268px" height="234px" viewBox="0 0 268 234" version="1.1" xmlns="http://www.w3.org/2000/svg" xmlns:xlink="http://www.w3.org/1999/xlink">
    <!-- Generator: Sketch 52.6 (67491) - http://www.bohemiancoding.com/sketch -->
    <title>Expired</title>
    <desc>Created with Sketch.</desc>
    <g id="Page-1" stroke="none" stroke-width="1" fill="none" fill-rule="evenodd">
        <g id="4.-Login---Senha-expirada" transform="translate(-508.000000, -101.000000)">
            <g id="Expired" transform="translate(502.000000, 101.000000)">
                <ellipse id="BG" fill="#9DA7A9" opacity="0.3" cx="140.447964" cy="117" rx="116.859729" ry="117"></ellipse>
                <path d="M81.7674756,140.254386 C86.0949474,141.229122 88.7920114,145.446737 87.7915365,149.674695 C86.7910617,153.902652 82.4719075,156.539909 78.1444356,155.565173 C80.0816366,157.997152 80.9283784,161.239214 80.1601301,164.485794 C78.809489,170.193536 72.9786309,173.753833 67.1365439,172.43794 C66.3599599,172.263019 65.6222688,172.01074 64.9300256,171.691354 C65.2803432,173.316807 65.2825792,175.041049 64.8742947,176.766439 C63.3735824,183.108374 56.8948511,187.06426 50.4036434,185.602156 C48.1532716,185.095274 46.1968305,184.003764 44.6635152,182.529659 C42.9850505,184.631233 40.1561344,185.712998 37.3232579,185.07491 C33.6641108,184.250711 31.3001881,180.850311 31.7743258,177.286368 C31.4976532,177.281671 31.217308,177.248842 30.936893,177.185681 C28.773157,176.698313 27.4246251,174.589505 27.9248625,172.475526 C28.2401079,171.143315 48.1258871,153.537018 63.6493272,144.469016 C72.75878,139.147739 80.1671398,139.893921 81.7674756,140.254386 Z" id="sombra-asa-direita-copy-2" fill-opacity="0.2" fill="#52A4C5" transform="translate(57.910315, 162.952992) scale(-1, 1) translate(-57.910315, -162.952992) "></path>
                <path d="M244.946845,140.254386 C249.274317,141.229122 251.971381,145.446737 250.970906,149.674695 C249.970431,153.902652 245.651277,156.539909 241.323805,155.565173 C243.261006,157.997152 244.107748,161.239214 243.339499,164.485794 C241.988858,170.193536 236.158,173.753833 230.315913,172.43794 C229.539329,172.263019 228.801638,172.01074 228.109395,171.691354 C228.459712,173.316807 228.461948,175.041049 228.053664,176.766439 C226.552952,183.108374 220.07422,187.06426 213.583013,185.602156 C211.332641,185.095274 209.3762,184.003764 207.842884,182.529659 C206.16442,184.631233 203.335504,185.712998 200.502627,185.07491 C196.84348,184.250711 194.479557,180.850311 194.953695,177.286368 C194.677022,177.281671 194.396677,177.248842 194.116262,177.185681 C191.952526,176.698313 190.603994,174.589505 191.104232,172.475526 C191.419477,171.143315 211.305256,153.537018 226.828696,144.469016 C235.938149,139.147739 243.346509,139.893921 244.946845,140.254386 Z" id="sombra-asa-direita-copy" fill-opacity="0.2" fill="#52A4C5"></path>
                <g id="Lock" transform="translate(79.859729, 80.635135)" fill-rule="nonzero">
                    <path d="M102.647059,55.3378378 C102.647059,62.3234936 96.9908553,67.9864865 90.0135747,67.9864865 L87.1829326,67.9864865 C89.7061738,65.6739142 91.2885231,62.3490935 91.2885231,58.6542518 L91.2885231,37.2569809 C91.2885231,36.6605747 91.2675858,36.0643528 91.2257501,35.4694192 C90.2396906,21.4469645 78.0865144,10.8798376 64.0808713,11.8670807 C60.5958397,11.8670807 58.2690747,11.8670807 57.1005763,11.8670807 C56.6181173,11.8430073 56.1803189,11.8316281 55.7424466,11.8316281 C41.7672014,11.8316281 30.4380268,23.1744016 30.4380268,37.1664219 C30.4380268,40.1447305 30.4380268,42.378462 30.4380268,43.8676163 C30.4380268,47.1535353 30.4380268,52.0824138 30.4380268,58.6542518 C30.4380268,62.3490935 32.0203761,65.6739142 34.5436173,67.9864865 L31.5837104,67.9864865 C24.6064298,67.9864865 18.9502262,62.3234936 18.9502262,55.3378378 L18.9502262,33.9932432 C18.9502262,15.2192934 34.1512732,5.61712838e-15 52.9027149,0 L68.4606204,0 C87.341269,-5.61712838e-15 102.647059,15.324162 102.647059,34.2274738 L102.647059,44.8620245 M102.647059,55.3378378 C102.647059,62.3234936 96.9908553,67.9864865 90.0135747,67.9864865 L87.1829326,67.9864865 C89.7061738,65.6739142 91.2885231,62.3490935 91.2885231,58.6542518 L91.2885231,37.2569809 C91.2885231,36.6605747 91.2675858,36.0643528 91.2257501,35.4694192 C90.2396906,21.4469645 78.0865144,10.8798376 64.0808713,11.8670807 C60.5958397,11.8670807 58.2690747,11.8670807 57.1005763,11.8670807 C56.6181173,11.8430073 56.1803189,11.8316281 55.7424466,11.8316281 C41.7672014,11.8316281 30.4380268,23.1744016 30.4380268,37.1664219 C30.4380268,40.1447305 30.4380268,42.378462 30.4380268,43.8676163 C30.4380268,47.1535353 30.4380268,52.0824138 30.4380268,58.6542518 C30.4380268,62.3490935 32.0203761,65.6739142 34.5436173,67.9864865 L31.5837104,67.9864865 C24.6064298,67.9864865 18.9502262,62.3234936 18.9502262,55.3378378 L18.9502262,33.9932432 C18.9502262,15.2192934 34.1512732,5.61712838e-15 52.9027149,0 L68.4606204,0 C87.341269,-5.61712838e-15 102.647059,15.324162 102.647059,34.2274738 L102.647059,44.8620245 M102.647059,55.3378378 C102.647059,62.3234936 96.9908553,67.9864865 90.0135747,67.9864865 L87.1829326,67.9864865 C89.7061738,65.6739142 91.2885231,62.3490935 91.2885231,58.6542518 L91.2885231,37.2569809 C91.2885231,36.6605747 91.2675858,36.0643528 91.2257501,35.4694192 C90.2396906,21.4469645 78.0865144,10.8798376 64.0808713,11.8670807 C60.5958397,11.8670807 58.2690747,11.8670807 57.1005763,11.8670807 C56.6181173,11.8430073 56.1803189,11.8316281 55.7424466,11.8316281 C41.7672014,11.8316281 30.4380268,23.1744016 30.4380268,37.1664219 C30.4380268,40.1447305 30.4380268,42.378462 30.4380268,43.8676163 C30.4380268,47.1535353 30.4380268,52.0824138 30.4380268,58.6542518 C30.4380268,62.3490935 32.0203761,65.6739142 34.5436173,67.9864865 L31.5837104,67.9864865 C24.6064298,67.9864865 18.9502262,62.3234936 18.9502262,55.3378378 L18.9502262,33.9932432 C18.9502262,15.2192934 34.1512732,5.61712838e-15 52.9027149,0 L68.4606204,0 C87.341269,-5.61712838e-15 102.647059,15.324162 102.647059,34.2274738 L102.647059,44.8620245" id="Combined-Shape-Copy" fill="#FFFFFF"></path>
                    <path d="M92.9332929,71.1486486 C93.8855923,69.8320885 94.4468941,68.2141251 94.4468941,66.4650626 L94.4468941,40.3865653 C94.4468941,39.7902081 94.4259083,39.1940356 94.3839758,38.5991544 C93.396816,24.5946918 81.2437048,14.042083 67.2392423,15.0292428 C63.7542107,15.0292428 61.4274457,15.0292428 60.2589473,15.0292428 C60.2453636,15.0292428 60.2307369,15.0288447 60.2150669,15.0280486 L60.2150686,15.0280154 C59.7869247,15.0062624 59.3582975,14.9953806 58.9296013,14.9953806 C44.9384594,14.9953806 33.5963978,26.3374421 33.5963978,40.328584 L33.5963978,66.4650626 C33.5963978,68.2141251 34.1576997,69.8320885 35.109999,71.1486486 L30.1085973,71.1486486 C25.6903193,71.1486486 22.1085973,67.5669266 22.1085973,63.1486486 L22.1085973,37.1554054 C22.1085973,18.3814556 37.3278907,3.16216216 56.1018405,3.16216216 L71.8121866,3.16216216 C90.5861365,3.16216216 105.80543,18.3814556 105.80543,37.1554054 L105.80543,63.1486486 C105.80543,67.5669266 102.223708,71.1486486 97.8054299,71.1486486 L92.9332929,71.1486486 Z" id="Combined-Shape-Copy-2" fill-opacity="0.2" fill="#281F57"></path>
                    <path d="M102.647059,55.3378378 C102.647059,62.3234936 96.9908553,67.9864865 90.0135747,67.9864865 L87.1829326,67.9864865 C89.7061738,65.6739142 91.2885231,62.3490935 91.2885231,58.6542518 L91.2885231,37.2569809 C91.2885231,36.6605747 91.2675858,36.0643528 91.2257501,35.4694192 C90.2396906,21.4469645 78.0865144,10.8798376 64.0808713,11.8670807 C60.5958397,11.8670807 58.2690747,11.8670807 57.1005763,11.8670807 C56.6181173,11.8430073 56.1803189,11.8316281 55.7424466,11.8316281 C41.7672014,11.8316281 30.4380268,23.1744016 30.4380268,37.1664219 C30.4380268,40.1447305 30.4380268,42.378462 30.4380268,43.8676163 M30.4380268,58.6542518 C30.4380268,62.3490935 32.0203761,65.6739142 34.5436173,67.9864865 L31.5837104,67.9864865 C24.6064298,67.9864865 18.9502262,62.3234936 18.9502262,55.3378378 L18.9502262,33.9932432 C18.9502262,15.2192934 34.1512732,0 52.9027149,0 L68.4606204,0 C87.341269,0 102.647059,15.324162 102.647059,34.2274738 L102.647059,44.8620245 M102.647059,55.3378378 C102.647059,62.3234936 96.9908553,67.9864865 90.0135747,67.9864865 L87.1829326,67.9864865 C89.7061738,65.6739142 91.2885231,62.3490935 91.2885231,58.6542518 L91.2885231,37.2569809 C91.2885231,36.6605747 91.2675858,36.0643528 91.2257501,35.4694192 C90.2396906,21.4469645 78.0865144,10.8798376 64.0808713,11.8670807 C60.5958397,11.8670807 58.2690747,11.8670807 57.1005763,11.8670807 C56.6181173,11.8430073 56.1803189,11.8316281 55.7424466,11.8316281 C41.7672014,11.8316281 30.4380268,23.1744016 30.4380268,37.1664219 C30.4380268,40.1447305 30.4380268,42.378462 30.4380268,43.8676163 M30.4380268,58.6542518 C30.4380268,62.3490935 32.0203761,65.6739142 34.5436173,67.9864865 L31.5837104,67.9864865 C24.6064298,67.9864865 18.9502262,62.3234936 18.9502262,55.3378378 L18.9502262,33.9932432 C18.9502262,15.2192934 34.1512732,0 52.9027149,0 L68.4606204,0 C87.341269,0 102.647059,15.324162 102.647059,34.2274738 L102.647059,44.8620245 M102.647059,55.3378378 C102.647059,62.3234936 96.9908553,67.9864865 90.0135747,67.9864865 L87.1829326,67.9864865 C89.7061738,65.6739142 91.2885231,62.3490935 91.2885231,58.6542518 L91.2885231,37.2569809 C91.2885231,36.6605747 91.2675858,36.0643528 91.2257501,35.4694192 C90.2396906,21.4469645 78.0865144,10.8798376 64.0808713,11.8670807 C60.5958397,11.8670807 58.2690747,11.8670807 57.1005763,11.8670807 C56.6181173,11.8430073 56.1803189,11.8316281 55.7424466,11.8316281 C41.7672014,11.8316281 30.4380268,23.1744016 30.4380268,37.1664219 C30.4380268,40.1447305 30.4380268,42.378462 30.4380268,43.8676163 M30.4380268,58.6542518 C30.4380268,62.3490935 32.0203761,65.6739142 34.5436173,67.9864865 L31.5837104,67.9864865 C24.6064298,67.9864865 18.9502262,62.3234936 18.9502262,55.3378378 L18.9502262,33.9932432 C18.9502262,15.2192934 34.1512732,0 52.9027149,0 L68.4606204,0 C87.341269,0 102.647059,15.324162 102.647059,34.2274738 L102.647059,44.8620245" id="Combined-Shape-Copy-3" stroke="#281F57" stroke-linecap="round" stroke-linejoin="round"></path>
                    <path d="M-2.27373675e-13,136.366084 L1.31691541e-13,56.9189189 C1.31691541e-13,53.426091 2.82810176,50.5945946 6.31674208,50.5945946 L115.280543,50.5945946 C118.769183,50.5945946 121.597285,53.426091 121.597285,56.9189189 L121.597285,134.391892 C121.597285,137.88472 118.769183,140.716216 115.280543,140.716216 L9.37990165,140.716216" id="Rectangle-Copy" stroke="#FD9800" stroke-width="2" fill="#FFFFFF" stroke-linecap="round"></path>
                    <path d="M8.73755656,55.3378378 L122.334842,55.3378378 C124.543981,55.3378378 126.334842,57.1286988 126.334842,59.3378378 L126.334842,141.459459 C126.334842,143.668598 124.543981,145.459459 122.334842,145.459459 L8.73755656,145.459459 C6.52841756,145.459459 4.73755656,143.668598 4.73755656,141.459459 L4.73755656,59.3378378 C4.73755656,57.1286988 6.52841756,55.3378378 8.73755656,55.3378378 Z" id="Rectangle-Copy-2" fill-opacity="0.2" fill="#FD9800"></path>
                    <path d="M54.0081448,115.418919 L55.4270865,97.4122446 C51.5652902,95.3023658 48.9547511,91.2704018 48.9547511,86.6432432 C48.9547511,79.8322289 54.6109547,74.3108108 61.5882353,74.3108108 C68.5655159,74.3108108 74.2217195,79.8322289 74.2217195,86.6432432 C74.2217195,91.2704018 71.6111804,95.3023658 67.7493841,97.4122446 L69.1683258,115.418919 L57.2602015,115.418919" id="Combined-Shape-Copy-4" stroke="#281F57" fill="#FFFFFF" stroke-linecap="round" stroke-linejoin="round"></path>
                    <path d="M58.5854569,98.9933254 C54.723661,96.8834464 52.1131222,92.8514826 52.1131222,88.2243243 C52.1131222,81.41331 57.7693257,75.8918919 64.7466063,75.8918919 C71.723887,75.8918919 77.3800905,81.41331 77.3800905,88.2243243 C77.3800905,92.8514826 74.7695517,96.8834464 70.9077558,98.9933254 L72.3266968,117 L57.1665158,117 L58.5854573,98.9933282 Z" id="Combined-Shape-Copy-5" fill-opacity="0.2" fill="#281F57"></path>
                </g>
                <g id="Halo" transform="translate(62.488688, 25.297297)" fill-rule="nonzero">
                    <ellipse id="Oval" stroke="#52A4C5" stroke-width="2" fill="#FFFFFF" cx="76.5904977" cy="22.1351351" rx="76.5904977" ry="22.1351351"></ellipse>
                    <path d="M15.7928611,16.6013514 C15.7928611,23.1504036 43.3668533,29.2801462 77.3810964,29.2801462 C111.39534,29.2801462 138.969332,23.1504036 138.969332,16.6013514" id="Path" stroke="#52A4C5" stroke-linecap="round" stroke-linejoin="round"></path>
                    <path d="M134.202293,16.9732262 C125.436733,12.0826891 103.441368,8.0391055 78.1127316,8.0391055 C52.1578246,8.0391055 30.2762736,12.4601561 22.0231698,17.3918919" id="Path" stroke="#52A4C5" stroke-linecap="round" stroke-linejoin="round"></path>
                    <path d="M79.7488688,49.0135135 C37.4491049,49.0135135 3.15837104,38.7493389 3.15837104,26.0878378 C3.15837104,13.4263368 37.4491049,3.16216216 79.7488688,3.16216216 C122.048633,3.16216216 156.339367,13.4263368 156.339367,26.0878378 C156.339367,38.7493389 122.048633,49.0135135 79.7488688,49.0135135 Z M79.6970116,32.6545193 C111.728607,32.6545193 136.300021,25.0695637 137.263721,21.8125369 C138.227421,18.5555101 112.471099,10.9705545 79.6970116,10.9705545 C46.9229239,10.9705545 20.5294118,19.1875413 20.5294118,22.6324106 C20.5294118,26.07728 47.6654161,32.6545193 79.6970116,32.6545193 Z" id="Combined-Shape" fill-opacity="0.2" fill="#52A4C5"></path>
                    <path d="M79.747298,33.2027027 C111.806117,33.2027027 136.398415,25.4599297 137.362933,22.1351351 C138.327452,18.8103406 112.54924,11.0675676 79.747298,11.0675676 C46.9453557,11.0675676 20.5294118,19.4555222 20.5294118,22.9720677 C20.5294118,26.4886132 47.6884789,33.2027027 79.747298,33.2027027 Z" id="Oval-3-Copy" fill-opacity="0.4" fill="#9DA7A9"></path>
                </g>
                <g id="Right-Wing" transform="translate(193.000000, 128.000000)">
                    <g id="Group-Copy" transform="translate(68.892056, 33.797187) scale(-1, 1) rotate(8.000000) translate(-68.892056, -33.797187) translate(56.392056, 20.797187)" fill="#5F7E84" fill-opacity="0.2" fill-rule="nonzero">
                        <path d="M8.9688409,17.3190915 C5.52309609,11.9216961 5.6886496,5.31730144 8.82676021,0.213923423 C7.65011041,5.03977735 8.53823799,10.674051 11.7101242,15.6424759 C14.8820104,20.6109008 19.6664587,23.8621184 24.6136992,24.9424966 C18.5517692,25.4660202 12.4145857,22.716487 8.9688409,17.3190915 Z" id="Path"></path>
                        <path d="M2.14224871,19.1985874 C-0.132076131,15.6360976 -0.0228044109,11.2769417 2.04846996,7.90851486 C1.27183558,11.0937651 1.85803413,14.8126036 3.95160172,18.0919562 C6.0451693,21.3713088 9.20309022,23.5172381 12.4684603,24.2303296 C8.46735202,24.5758754 4.41657354,22.7610771 2.14224871,19.1985874 Z" id="Path"></path>
                    </g>
                    <g id="asa-direita-copy-4" transform="translate(30.495274, 30.500000) scale(-1, 1) translate(-30.495274, -30.500000) translate(0.495274, 0.000000)" fill="#FFFFFF" stroke="#52A4C5" stroke-linecap="round" stroke-width="2">
                        <path d="M53.511688,41.8930262 C52.378098,38.1864509 48.8189195,23.1138237 32.941519,12.0641342 C24.9519898,6.50391562 14.9782547,5.2761918 13.4454097,5.2761918 C9.30043979,5.2761918 5.94027778,8.54489918 5.94027778,12.5770541 C5.94027778,16.609209 9.30043979,19.8779163 13.4454097,19.8779163 C11.1604764,21.6848239 9.69284373,24.4475957 9.69284373,27.5438217 C9.69284373,32.9872308 14.2290624,37.3999858 19.8247718,37.3999858 C20.568605,37.3999858 21.2937168,37.3220117 21.9919409,37.1740075 C21.3236047,38.5742954 20.9505416,40.1350183 20.9505416,41.7805032 C20.9505416,47.8287355 25.9907846,52.7317966 32.2082395,52.7317966 C34.3637066,52.7317966 36.3776882,52.1425123 38.0892255,51.1205217 C39.1633253,53.3656585 41.5030446,54.9220553 44.2164505,54.9220553 C47.7212808,54.9220553 50.6026461,52.3253374 50.9383898,49.0017424 C51.1909948,49.0539156 51.4529933,49.0813654 51.7215824,49.0813654 C52.6468811,49.0813654 53.4939604,48.7555834 54.1482219,48.2154986" id="asa-esquerda" transform="translate(30.044250, 30.099124) rotate(-14.000000) translate(-30.044250, -30.099124) "></path>
                    </g>
                    <path d="M24.2095014,43.4271316 C23.671682,43.1912166 23.2723297,42.7889195 23.0475923,42.3147139 C21.9999959,43.0247026 20.5915383,43.1966885 19.3447389,42.6497788 C18.5525042,42.3022644 17.9546825,41.7211433 17.5996487,41.0328456 C16.3927869,41.3188181 15.0804857,41.2314536 13.8681255,40.6996507 C11.2568083,39.5541941 10.02655,36.7492561 10.9179624,34.2204492 C10.3467044,34.1078849 9.78029847,33.9323963 9.22882726,33.690493 C5.33154294,31.9809457 3.65597175,27.6017865 5.48633426,23.9093671 C5.48633426,23.9093671 3.64679646,30.5087381 10.8095803,33.3377731 C11.3507235,33.5515046 11.8906435,33.7422836 12.4425897,33.8525567 C11.5947106,36.2697211 12.7960745,38.9605539 15.3222401,40.0686587 C16.4950668,40.5831202 17.7621565,40.6725158 18.9256247,40.4040174 C19.2717197,41.0645481 19.8516271,41.6235326 20.618028,41.959715 C21.8241709,42.4887906 23.1827876,42.3303065 24.1904293,41.6551581 C24.4096992,42.1101464 24.7971544,42.4970552 25.3174361,42.7252773 C25.8887831,42.9758991 26.5130055,42.9880865 27.0622913,42.8052252 C26.3869301,43.5857153 25.2166968,43.8689387 24.2095014,43.4271316 Z" id="sombra-copy-2" fill-opacity="0.2" fill="#52A4C5" transform="translate(15.903639, 33.772684) scale(-1, 1) translate(-15.903639, -33.772684) "></path>
                    <path d="M34.9238494,46.0042053 C34.1578169,45.8067009 33.5329769,45.3542852 33.1202107,44.7660713 C31.9166054,45.9558205 30.1053405,46.5018655 28.3294862,46.0440011 C27.2010823,45.7530673 26.270918,45.1042288 25.6338503,44.2568892 C24.1160293,44.911372 22.3673361,45.0867955 20.6405345,44.6415782 C16.9211559,43.6826194 14.6100195,40.1811973 15.1593688,36.5777453 C14.3797576,36.5537682 13.591009,36.4439961 12.8055317,36.2414783 C7.25451109,34.8102715 3.96893329,29.2889972 5.46698833,23.9093671 C5.46698833,23.9093671 4.67399805,33.2045212 14.7989706,35.4136469 C15.563905,35.5805448 16.3215671,35.7168159 17.0751966,35.7420209 C16.5556001,39.1854533 18.8005586,42.5397139 22.3986531,43.4674023 C24.0691459,43.8981016 25.7588366,43.7355082 27.2238574,43.1142398 C27.8423105,43.9261941 28.7434365,44.5492316 29.8350446,44.8306784 C31.5529906,45.2736124 33.30199,44.7568736 34.4616051,43.6229499 C34.8624347,44.1865135 35.4678204,44.6208693 36.2088736,44.8119334 C37.0226604,45.0217502 37.8472161,44.8987681 38.5250283,44.5299357 C37.8287204,45.7314769 36.3584285,46.3740795 34.9238494,46.0042053 Z" id="sombra-copy-3" fill-opacity="0.2" fill="#52A4C5" transform="translate(21.814923, 35.057272) scale(-1, 1) translate(-21.814923, -35.057272) "></path>
                </g>
                <g id="Left-Wing" transform="translate(44.500000, 158.500000) scale(-1, 1) translate(-44.500000, -158.500000) translate(0.000000, 128.000000)">
                    <g id="Left-Wing-Copy">
                        <g id="Group-Copy" transform="translate(70.838082, 17.648616) scale(-1, 1) rotate(32.000000) translate(-70.838082, -17.648616) translate(58.338082, 4.648616)" fill="#5F7E84" fill-opacity="0.2" fill-rule="nonzero">
                            <path d="M8.9688409,17.3190915 C5.52309609,11.9216961 5.6886496,5.31730144 8.82676021,0.213923423 C7.65011041,5.03977735 8.53823799,10.674051 11.7101242,15.6424759 C14.8820104,20.6109008 19.6664587,23.8621184 24.6136992,24.9424966 C18.5517692,25.4660202 12.4145857,22.716487 8.9688409,17.3190915 Z" id="Path"></path>
                            <path d="M2.14224871,19.1985874 C-0.132076131,15.6360976 -0.0228044109,11.2769417 2.04846996,7.90851486 C1.27183558,11.0937651 1.85803413,14.8126036 3.95160172,18.0919562 C6.0451693,21.3713088 9.20309022,23.5172381 12.4684603,24.2303296 C8.46735202,24.5758754 4.41657354,22.7610771 2.14224871,19.1985874 Z" id="Path"></path>
                        </g>
                        <g id="asa-direita-copy-4" transform="translate(30.495274, 30.500000) scale(-1, 1) translate(-30.495274, -30.500000) translate(0.495274, 0.000000)" fill="#FFFFFF" stroke="#52A4C5" stroke-linecap="round" stroke-width="2">
                            <path d="M53.511688,41.8930262 C52.378098,38.1864509 48.8189195,23.1138237 32.941519,12.0641342 C24.9519898,6.50391562 14.9782547,5.2761918 13.4454097,5.2761918 C9.30043979,5.2761918 5.94027778,8.54489918 5.94027778,12.5770541 C5.94027778,16.609209 9.30043979,19.8779163 13.4454097,19.8779163 C11.1604764,21.6848239 9.69284373,24.4475957 9.69284373,27.5438217 C9.69284373,32.9872308 14.2290624,37.3999858 19.8247718,37.3999858 C20.568605,37.3999858 21.2937168,37.3220117 21.9919409,37.1740075 C21.3236047,38.5742954 20.9505416,40.1350183 20.9505416,41.7805032 C20.9505416,47.8287355 25.9907846,52.7317966 32.2082395,52.7317966 C34.3637066,52.7317966 36.3776882,52.1425123 38.0892255,51.1205217 C39.1633253,53.3656585 41.5030446,54.9220553 44.2164505,54.9220553 C47.7212808,54.9220553 50.6026461,52.3253374 50.9383898,49.0017424 C51.1909948,49.0539156 51.4529933,49.0813654 51.7215824,49.0813654 C52.6468811,49.0813654 53.4939604,48.7555834 54.1482219,48.2154986" id="asa-esquerda" transform="translate(30.044250, 30.099124) rotate(-14.000000) translate(-30.044250, -30.099124) "></path>
                        </g>
                        <path d="M24.2095014,43.4271316 C23.671682,43.1912166 23.2723297,42.7889195 23.0475923,42.3147139 C21.9999959,43.0247026 20.5915383,43.1966885 19.3447389,42.6497788 C18.5525042,42.3022644 17.9546825,41.7211433 17.5996487,41.0328456 C16.3927869,41.3188181 15.0804857,41.2314536 13.8681255,40.6996507 C11.2568083,39.5541941 10.02655,36.7492561 10.9179624,34.2204492 C10.3467044,34.1078849 9.78029847,33.9323963 9.22882726,33.690493 C5.33154294,31.9809457 3.65597175,27.6017865 5.48633426,23.9093671 C5.48633426,23.9093671 3.64679646,30.5087381 10.8095803,33.3377731 C11.3507235,33.5515046 11.8906435,33.7422836 12.4425897,33.8525567 C11.5947106,36.2697211 12.7960745,38.9605539 15.3222401,40.0686587 C16.4950668,40.5831202 17.7621565,40.6725158 18.9256247,40.4040174 C19.2717197,41.0645481 19.8516271,41.6235326 20.618028,41.959715 C21.8241709,42.4887906 23.1827876,42.3303065 24.1904293,41.6551581 C24.4096992,42.1101464 24.7971544,42.4970552 25.3174361,42.7252773 C25.8887831,42.9758991 26.5130055,42.9880865 27.0622913,42.8052252 C26.3869301,43.5857153 25.2166968,43.8689387 24.2095014,43.4271316 Z" id="sombra-copy-2" fill-opacity="0.2" fill="#52A4C5" transform="translate(15.903639, 33.772684) scale(-1, 1) translate(-15.903639, -33.772684) "></path>
                        <path d="M34.9238494,46.0042053 C34.1578169,45.8067009 33.5329769,45.3542852 33.1202107,44.7660713 C31.9166054,45.9558205 30.1053405,46.5018655 28.3294862,46.0440011 C27.2010823,45.7530673 26.270918,45.1042288 25.6338503,44.2568892 C24.1160293,44.911372 22.3673361,45.0867955 20.6405345,44.6415782 C16.9211559,43.6826194 14.6100195,40.1811973 15.1593688,36.5777453 C14.3797576,36.5537682 13.591009,36.4439961 12.8055317,36.2414783 C7.25451109,34.8102715 3.96893329,29.2889972 5.46698833,23.9093671 C5.46698833,23.9093671 4.67399805,33.2045212 14.7989706,35.4136469 C15.563905,35.5805448 16.3215671,35.7168159 17.0751966,35.7420209 C16.5556001,39.1854533 18.8005586,42.5397139 22.3986531,43.4674023 C24.0691459,43.8981016 25.7588366,43.7355082 27.2238574,43.1142398 C27.8423105,43.9261941 28.7434365,44.5492316 29.8350446,44.8306784 C31.5529906,45.2736124 33.30199,44.7568736 34.4616051,43.6229499 C34.8624347,44.1865135 35.4678204,44.6208693 36.2088736,44.8119334 C37.0226604,45.0217502 37.8472161,44.8987681 38.5250283,44.5299357 C37.8287204,45.7314769 36.3584285,46.3740795 34.9238494,46.0042053 Z" id="sombra-copy-3" fill-opacity="0.2" fill="#52A4C5" transform="translate(21.814923, 35.057272) scale(-1, 1) translate(-21.814923, -35.057272) "></path>
                    </g>
                </g>
            </g>
        </g>
    </g>
</svg>