<?xml version="1.0" encoding="UTF-8"?>
<svg width="120px" height="120px" viewBox="0 0 120 120" version="1.1" xmlns="http://www.w3.org/2000/svg" xmlns:xlink="http://www.w3.org/1999/xlink">
    <!-- Generator: Sketch 52.6 (67491) - http://www.bohemiancoding.com/sketch -->
    <title>Lock</title>
    <desc>Created with Sketch.</desc>
    <g id="Page-1" stroke="none" stroke-width="1" fill="none" fill-rule="evenodd">
        <g id="7A.-1ยบ-Acesso---Trocar-a-senha" transform="translate(-273.000000, -439.000000)">
            <g id="Lock" transform="translate(273.000000, 439.000000)">
                <circle id="Oval-7" fill="#9DA7A9" opacity="0.3" cx="60" cy="60" r="60"></circle>
                <path d="M88,54.4418605 C88,59.1683904 84.215539,63 79.5471698,63 L77.6532396,63 C79.3414936,61.4353019 80.4002142,59.1857115 80.4002142,56.6857629 L80.4002142,42.2082614 C80.4002142,41.8047299 80.3862054,41.4013232 80.3582139,40.9987881 C79.6984598,31.5111245 71.5669948,24.3613531 62.1960784,25.0293267 C59.8643084,25.0293267 58.307513,25.0293267 57.5256924,25.0293267 C57.2028881,25.0130385 56.9099652,25.0053393 56.616993,25.0053393 C47.2664154,25.0053393 39.6862745,32.6799172 39.6862745,42.1469887 C39.6862745,44.1621273 39.6862745,45.6734813 39.6862745,46.6810506 C39.6862745,48.90432 39.6862745,52.2392241 39.6862745,56.6857629 C39.6862745,59.1857115 40.7449951,61.4353019 42.433249,63 L40.4528302,63 C35.784461,63 32,59.1683904 32,54.4418605 L32,40 C32,27.2974508 42.1707389,17 54.7169811,17 L65.1264874,17 C77.7591796,17 88,27.3684054 88,40.1584816 L88,47.3538723 M88,54.4418605 C88,59.1683904 84.215539,63 79.5471698,63 L77.6532396,63 C79.3414936,61.4353019 80.4002142,59.1857115 80.4002142,56.6857629 L80.4002142,42.2082614 C80.4002142,41.8047299 80.3862054,41.4013232 80.3582139,40.9987881 C79.6984598,31.5111245 71.5669948,24.3613531 62.1960784,25.0293267 C59.8643084,25.0293267 58.307513,25.0293267 57.5256924,25.0293267 C57.2028881,25.0130385 56.9099652,25.0053393 56.616993,25.0053393 C47.2664154,25.0053393 39.6862745,32.6799172 39.6862745,42.1469887 C39.6862745,44.1621273 39.6862745,45.6734813 39.6862745,46.6810506 C39.6862745,48.90432 39.6862745,52.2392241 39.6862745,56.6857629 C39.6862745,59.1857115 40.7449951,61.4353019 42.433249,63 L40.4528302,63 C35.784461,63 32,59.1683904 32,54.4418605 L32,40 C32,27.2974508 42.1707389,17 54.7169811,17 L65.1264874,17 C77.7591796,17 88,27.3684054 88,40.1584816 L88,47.3538723 M88,54.4418605 C88,59.1683904 84.215539,63 79.5471698,63 L77.6532396,63 C79.3414936,61.4353019 80.4002142,59.1857115 80.4002142,56.6857629 L80.4002142,42.2082614 C80.4002142,41.8047299 80.3862054,41.4013232 80.3582139,40.9987881 C79.6984598,31.5111245 71.5669948,24.3613531 62.1960784,25.0293267 C59.8643084,25.0293267 58.307513,25.0293267 57.5256924,25.0293267 C57.2028881,25.0130385 56.9099652,25.0053393 56.616993,25.0053393 C47.2664154,25.0053393 39.6862745,32.6799172 39.6862745,42.1469887 C39.6862745,44.1621273 39.6862745,45.6734813 39.6862745,46.6810506 C39.6862745,48.90432 39.6862745,52.2392241 39.6862745,56.6857629 C39.6862745,59.1857115 40.7449951,61.4353019 42.433249,63 L40.4528302,63 C35.784461,63 32,59.1683904 32,54.4418605 L32,40 C32,27.2974508 42.1707389,17 54.7169811,17 L65.1264874,17 C77.7591796,17 88,27.3684054 88,40.1584816 L88,47.3538723" id="Combined-Shape" fill="#FFFFFF" fill-rule="nonzero"></path>
                <path d="M79.9560639,65 C81.4630207,63.5451474 82.4002142,61.5039716 82.4002142,59.2439024 L82.4002142,43.9820326 C82.4002142,43.5788448 82.385867,43.1757846 82.3571999,42.7736171 C81.6898104,33.4108962 73.5587994,26.3619372 64.1960784,27.0293267 C61.8643084,27.0293267 60.307513,27.0293267 59.5256924,27.0293267 C59.5188375,27.0293267 59.5115855,27.0291735 59.5039366,27.028867 C59.2754517,27.019704 59.046806,27.0151257 58.8181375,27.0151257 C49.3564708,27.0151257 41.6862745,34.685322 41.6862745,44.1469887 L41.6862745,59.2439024 C41.6862745,61.5039716 42.623468,63.5451474 44.1304248,65 L42,65 C37.581722,65 34,61.418278 34,57 L34,42 C34,29.2974508 44.2974508,19 57,19 L67,19 C79.7025492,19 90,29.2974508 90,42 L90,57 C90,61.418278 86.418278,65 82,65 L79.9560639,65 Z" id="Combined-Shape" fill-opacity="0.2" fill="#281F57" fill-rule="nonzero"></path>
                <path d="M88,54.4418605 C88,59.1683904 84.215539,63 79.5471698,63 L77.6532396,63 C79.3414936,61.4353019 80.4002142,59.1857115 80.4002142,56.6857629 L80.4002142,42.2082614 C80.4002142,41.8047299 80.3862054,41.4013232 80.3582139,40.9987881 C79.6984598,31.5111245 71.5669948,24.3613531 62.1960784,25.0293267 C59.8643084,25.0293267 58.307513,25.0293267 57.5256924,25.0293267 C57.2028881,25.0130385 56.9099652,25.0053393 56.616993,25.0053393 C47.2664154,25.0053393 39.6862745,32.6799172 39.6862745,42.1469887 C39.6862745,44.1621273 39.6862745,45.6734813 39.6862745,46.6810506 M39.6862745,56.6857629 C39.6862745,59.1857115 40.7449951,61.4353019 42.433249,63 L40.4528302,63 C35.784461,63 32,59.1683904 32,54.4418605 L32,40 C32,27.2974508 42.1707389,17 54.7169811,17 L65.1264874,17 C77.7591796,17 88,27.3684054 88,40.1584816 L88,47.3538723 M88,54.4418605 C88,59.1683904 84.215539,63 79.5471698,63 L77.6532396,63 C79.3414936,61.4353019 80.4002142,59.1857115 80.4002142,56.6857629 L80.4002142,42.2082614 C80.4002142,41.8047299 80.3862054,41.4013232 80.3582139,40.9987881 C79.6984598,31.5111245 71.5669948,24.3613531 62.1960784,25.0293267 C59.8643084,25.0293267 58.307513,25.0293267 57.5256924,25.0293267 C57.2028881,25.0130385 56.9099652,25.0053393 56.616993,25.0053393 C47.2664154,25.0053393 39.6862745,32.6799172 39.6862745,42.1469887 C39.6862745,44.1621273 39.6862745,45.6734813 39.6862745,46.6810506 M39.6862745,56.6857629 C39.6862745,59.1857115 40.7449951,61.4353019 42.433249,63 L40.4528302,63 C35.784461,63 32,59.1683904 32,54.4418605 L32,40 C32,27.2974508 42.1707389,17 54.7169811,17 L65.1264874,17 C77.7591796,17 88,27.3684054 88,40.1584816 L88,47.3538723 M88,54.4418605 C88,59.1683904 84.215539,63 79.5471698,63 L77.6532396,63 C79.3414936,61.4353019 80.4002142,59.1857115 80.4002142,56.6857629 L80.4002142,42.2082614 C80.4002142,41.8047299 80.3862054,41.4013232 80.3582139,40.9987881 C79.6984598,31.5111245 71.5669948,24.3613531 62.1960784,25.0293267 C59.8643084,25.0293267 58.307513,25.0293267 57.5256924,25.0293267 C57.2028881,25.0130385 56.9099652,25.0053393 56.616993,25.0053393 C47.2664154,25.0053393 39.6862745,32.6799172 39.6862745,42.1469887 C39.6862745,44.1621273 39.6862745,45.6734813 39.6862745,46.6810506 M39.6862745,56.6857629 C39.6862745,59.1857115 40.7449951,61.4353019 42.433249,63 L40.4528302,63 C35.784461,63 32,59.1683904 32,54.4418605 L32,40 C32,27.2974508 42.1707389,17 54.7169811,17 L65.1264874,17 C77.7591796,17 88,27.3684054 88,40.1584816 L88,47.3538723" id="Combined-Shape" stroke="#281F57" stroke-linecap="round" stroke-linejoin="round" fill-rule="nonzero"></path>
                <path d="M19,109.055556 L19,55.2807018 C19,52.9165355 20.9071507,51 23.2597403,51 L96.7402597,51 C99.0928493,51 101,52.9165355 101,55.2807018 L101,107.719298 C101,110.083465 99.0928493,112 96.7402597,112 L25.3254038,112" id="Rectangle" stroke="#FD9800" stroke-width="2" fill="#FFFFFF" fill-rule="nonzero" stroke-linecap="round"></path>
                <path d="M26,54 L100,54 C102.209139,54 104,55.790861 104,58 L104,111 C104,113.209139 102.209139,115 100,115 L26,115 C23.790861,115 22,113.209139 22,111 L22,58 C22,55.790861 23.790861,54 26,54 Z" id="Rectangle" fill-opacity="0.2" fill="#FD9800" fill-rule="nonzero"></path>
                <path d="M55.4,95 L56.3546855,82.7350989 C53.7564103,81.2979954 52,78.5517004 52,75.4 C52,70.7608081 55.8055796,67 60.5,67 C65.1944204,67 69,70.7608081 69,75.4 C69,78.5517004 67.2435897,81.2979954 64.6453145,82.7350989 L65.6,95 L57.5880331,95" id="Combined-Shape" stroke="#281F57" fill="#FFFFFF" fill-rule="nonzero" stroke-linecap="round" stroke-linejoin="round"></path>
                <path d="M58.3546855,83.7350989 C55.7564103,82.2979954 54,79.5517004 54,76.4 C54,71.7608081 57.8055796,68 62.5,68 C67.1944204,68 71,71.7608081 71,76.4 C71,79.5517004 69.2435897,82.2979954 66.6453145,83.7350989 L67.6,96 L57.4,96 L58.3546855,83.7350989 Z" id="Combined-Shape" fill-opacity="0.2" fill="#281F57" fill-rule="nonzero"></path>
            </g>
        </g>
    </g>
</svg>