<svg class="lds-spinner" width="24px"  height="24px"  xmlns="http://www.w3.org/2000/svg" xmlns:xlink="http://www.w3.org/1999/xlink" viewBox="0 0 100 100" preserveAspectRatio="xMidYMid" style="background: none;"><g transform="rotate(0 50 50)">
  <rect x="45" y="10.5" rx="18" ry="4.2" width="10" height="25" fill="#29b6c5">
    <animate attributeName="opacity" values="1;0" times="0;1" dur="1s" begin="-0.875s" repeatCount="indefinite"></animate>
  </rect>
</g><g transform="rotate(45 50 50)">
  <rect x="45" y="10.5" rx="18" ry="4.2" width="10" height="20" fill="#29b6c5">
    <animate attributeName="opacity" values="1;0" times="0;1" dur="1s" begin="-0.75s" repeatCount="indefinite"></animate>
  </rect>
</g><g transform="rotate(90 50 50)">
  <rect x="45" y="10.5" rx="18" ry="4.2" width="10" height="25" fill="#29b6c5">
    <animate attributeName="opacity" values="1;0" times="0;1" dur="1s" begin="-0.625s" repeatCount="indefinite"></animate>
  </rect>
</g><g transform="rotate(135 50 50)">
  <rect x="45" y="10.5" rx="18" ry="4.2" width="10" height="20" fill="#29b6c5">
    <animate attributeName="opacity" values="1;0" times="0;1" dur="1s" begin="-0.5s" repeatCount="indefinite"></animate>
  </rect>
</g><g transform="rotate(180 50 50)">
  <rect x="45" y="10.5" rx="18" ry="4.2" width="10" height="25" fill="#29b6c5">
    <animate attributeName="opacity" values="1;0" times="0;1" dur="1s" begin="-0.375s" repeatCount="indefinite"></animate>
  </rect>
</g><g transform="rotate(225 50 50)">
  <rect x="45" y="10.5" rx="18" ry="4.2" width="10" height="20" fill="#29b6c5">
    <animate attributeName="opacity" values="1;0" times="0;1" dur="1s" begin="-0.25s" repeatCount="indefinite"></animate>
  </rect>
</g><g transform="rotate(270 50 50)">
  <rect x="45" y="10.5" rx="18" ry="4.2" width="10" height="25" fill="#29b6c5">
    <animate attributeName="opacity" values="1;0" times="0;1" dur="1s" begin="-0.125s" repeatCount="indefinite"></animate>
  </rect>
</g><g transform="rotate(315 50 50)">
  <rect x="45" y="10.5" rx="18" ry="4.2" width="10" height="20" fill="#29b6c5">
    <animate attributeName="opacity" values="1;0" times="0;1" dur="1s" begin="0s" repeatCount="indefinite"></animate>
  </rect>
</g></svg>