<?xml version="1.0" encoding="UTF-8"?>
<svg width="81px" height="24px" viewBox="0 0 81 24" version="1.1" xmlns="http://www.w3.org/2000/svg" xmlns:xlink="http://www.w3.org/1999/xlink">
    <!-- Generator: Sketch 48.2 (47327) - http://www.bohemiancoding.com/sketch -->
    <title>icon/logo/portinari/grey</title>
    <desc>Created with Sketch.</desc>
    <defs></defs>
    <g id="Admin" stroke="none" stroke-width="1" fill="none" fill-rule="evenodd">
        <g id="icon/logo/portinari/grey" fill="#B6BDBF">
            <path d="M37.7285104,7.85652338 L34.8995921,7.85652338 L34.8995921,18.164342 C34.8995921,18.3596821 34.7420647,18.5185626 34.5501968,18.5185626 L32.2623956,18.5185626 C32.0705278,18.5185626 31.9132926,18.3596821 31.9132926,18.164342 L31.9132926,7.85652338 L29.066985,7.85652338 C28.8742404,7.85652338 28.7175897,7.71498336 28.7175897,7.51964331 L28.7175897,5.69533326 C28.7175897,5.50058604 28.8742404,5.35889782 29.066985,5.35889782 L37.7285104,5.35889782 C37.9205243,5.35889782 38.0952951,5.50058604 38.0952951,5.69533326 L38.0952951,7.51964331 C38.0952951,7.71498336 37.9205243,7.85652338 37.7285104,7.85652338 Z M43.9618919,18.6784213 C41.0806594,18.6784213 38.7928581,17.1022139 38.7928581,12.9929588 L38.7928581,10.8849759 C38.7928581,6.77527619 41.0806594,5.19951338 43.9618919,5.19951338 C46.8438551,5.19951338 49.1309257,6.77527619 49.1309257,10.8849759 L49.1309257,12.9929588 C49.1309257,17.1022139 46.8438551,18.6784213 43.9618919,18.6784213 Z M46.1272367,10.8849759 C46.1272367,8.75965245 45.429469,7.85646409 43.9618919,7.85646409 C42.4959222,7.85646409 41.8143749,8.75965245 41.8143749,10.8849759 L41.8143749,12.9929588 C41.8143749,15.1179858 42.4959222,16.021026 43.9618919,16.021026 C45.429469,16.021026 46.1272367,15.1179858 46.1272367,12.9929588 L46.1272367,10.8849759 Z M58.8053905,7.85652338 L55.9764723,7.85652338 L55.9764723,18.164342 C55.9764723,18.3596821 55.8196755,18.5185626 55.627077,18.5185626 L53.3392758,18.5185626 C53.1474079,18.5185626 52.9907573,18.3596821 52.9907573,18.164342 L52.9907573,7.85652338 L50.1438651,7.85652338 C49.9519973,7.85652338 49.7935931,7.71498336 49.7935931,7.51964331 L49.7935931,5.69533326 C49.7935931,5.50058604 49.9519973,5.35889782 50.1438651,5.35889782 L58.8053905,5.35889782 C58.9971122,5.35889782 59.1718829,5.50058604 59.1718829,5.69533326 L59.1718829,7.51964331 C59.1718829,7.71498336 58.9971122,7.85652338 58.8053905,7.85652338 Z M71.0828284,5.73093316 L68.4807029,16.7114745 C68.0791395,18.4126225 66.8043069,18.678362 65.5987397,18.678362 C64.3940493,18.678362 63.1019736,18.4126225 62.6995333,16.7114745 L60.0974078,5.73093316 C60.0974078,5.6953629 60.0803107,5.67772597 60.0803107,5.6420075 C60.0803107,5.48283055 60.2198642,5.35892746 60.3944888,5.35892746 L62.8228665,5.35892746 C62.9966143,5.35892746 63.1361678,5.50046748 63.1712389,5.67772597 L65.3538269,15.8978046 C65.3897748,16.0922554 65.4412123,16.1626549 65.5987397,16.1626549 C65.7562672,16.1626549 65.8084354,16.0922554 65.8435064,15.8978046 L68.0269713,5.67772597 C68.0611655,5.50046748 68.1836219,5.35892746 68.3582465,5.35892746 L70.8028445,5.35892746 C70.9774691,5.35892746 71.0999255,5.46489721 71.0999255,5.6420075 C71.0999255,5.66023726 71.0828284,5.6953629 71.0828284,5.73093316 Z M76.0069786,18.6784213 C74.6276636,18.6784213 73.5967209,18.5186515 72.7062086,18.2884823 C72.5315841,18.2355715 72.3569595,18.1287125 72.3569595,17.9342617 L72.3569595,16.1982845 C72.3569595,15.9507747 72.496513,15.8621455 72.6711376,15.8621455 L72.7241826,15.8621455 C73.4391935,15.9331378 75.3605023,16.0743814 76.0411728,16.0743814 C77.24674,16.0743814 77.5952585,15.6847387 77.5952585,14.8347576 C77.5952585,14.3207672 77.3503457,14.0376872 76.4436131,13.4887194 L74.0333555,12.0365633 C72.4091277,11.0620862 71.9733699,9.94651368 71.9733699,8.65338628 C71.9733699,6.70502492 73.0547272,5.19951338 76.4436131,5.19951338 C77.7177149,5.19951338 79.4814963,5.41219393 80.1450697,5.58915601 C80.2838926,5.62442986 80.4070796,5.7130591 80.4070796,5.90810273 L80.4070796,7.69699073 C80.4070796,7.85646409 80.3369375,7.99800411 80.1099987,7.99800411 L80.0758044,7.99800411 C79.5868556,7.96273026 77.5601875,7.80296048 76.373471,7.80296048 C75.3775994,7.80296048 75.0112531,8.10427028 75.0112531,8.74142269 C75.0112531,9.23762791 75.2380459,9.46794538 76.1807264,9.98149111 L78.4154826,11.2036262 C80.2324551,12.1957402 80.7735721,13.3645199 80.7735721,14.7991873 C80.7735721,16.6767046 79.5517845,18.6784213 76.0069786,18.6784213 Z M11.8313634,-8.8817842e-16 C18.3667066,-8.8817842e-16 23.6633113,5.37318521 23.6633113,12.0003705 C23.6633113,18.6274076 18.3667066,24 11.8313634,24 C5.2971892,24 -3.55271368e-15,18.6274076 -3.55271368e-15,12.0003705 C-3.55271368e-15,5.37318521 5.2971892,-8.8817842e-16 11.8313634,-8.8817842e-16 Z M19.807396,16.4439861 C20.3913289,15.8985753 20.3930824,7.60151421 19.807396,6.75420081 C19.0533685,6.10119 9.18905237,3.57140299 8.43663231,3.83743894 C8.16643912,4.08998783 8.02177106,6.00011116 8.00116682,8.0643723 C5.92510704,7.56787066 4.13531468,7.21943026 3.83136561,7.32614106 C3.2474327,7.87303391 3.2474327,16.1712807 3.83019658,17.0153335 C4.58305503,17.6687889 14.4491247,20.1999098 15.2019832,19.933281 C15.4717379,19.6805839 15.6172828,17.7706088 15.637887,15.7066441 C17.7133623,16.2028493 19.5031547,16.5517344 19.807396,16.4439861 Z M15.2020416,10.243807 C15.5170965,10.6985136 15.6617646,13.3072962 15.6377993,15.7066589 C12.5728822,14.972874 8.88399272,13.9159924 8.43522946,13.5260534 C8.12222038,13.0719396 7.97769845,10.4643427 8.00122527,8.06438712 C11.0655579,8.79757925 14.7525477,9.85416438 15.2020416,10.243807 Z" id="Logo-PORTINARI"></path>
        </g>
    </g>
</svg>