<svg width="25px" height="25px" viewBox="0 0 25 25" version="1.1" xmlns="http://www.w3.org/2000/svg" xmlns:xlink="http://www.w3.org/1999/xlink">
    <!-- Generator: Sketch 49.3 (51167) - http://www.bohemiancoding.com/sketch -->
    <title>Logo PORTINARI</title>
    <desc>Created with Sketch.</desc>
    <defs></defs>
    <g id="Page-1" stroke="none" stroke-width="1" fill="none" fill-rule="evenodd">
        <path d="M12.2218538,0.61328125 C18.7571971,0.61328125 24.0538018,5.98646646 24.0538018,12.6136518 C24.0538018,19.2406889 18.7571971,24.6132812 12.2218538,24.6132812 C5.68767963,24.6132812 0.390490436,19.2406889 0.390490436,12.6136518 C0.390490436,5.98646646 5.68767963,0.61328125 12.2218538,0.61328125 Z M20.1978864,17.0572673 C20.7818193,16.5118566 20.7835729,8.21479546 20.1978864,7.36748206 C19.4438589,6.71447125 9.5795428,4.18468424 8.82712274,4.45072019 C8.55692956,4.70326908 8.4122615,6.61339241 8.39165726,8.67765355 C6.31559748,8.18115191 4.52580511,7.83271151 4.22185605,7.93942231 C3.63792314,8.48631516 3.63792314,16.784562 4.22068702,17.6286148 C4.97354546,18.2820702 14.8396151,20.8131911 15.5924736,20.5465623 C15.8622284,20.2938652 16.0077732,18.3838901 16.0283775,16.3199254 C18.1038527,16.8161306 19.8936451,17.1650156 20.1978864,17.0572673 Z M15.592532,10.8570883 C15.9075869,11.3117948 16.052255,13.9205775 16.0282898,16.3199402 C12.9633726,15.5861552 9.27448315,14.5292737 8.8257199,14.1393346 C8.51271082,13.6852209 8.36818888,11.0776239 8.39171571,8.67766837 C11.4560483,9.4108605 15.1430381,10.4674456 15.592532,10.8570883 Z" id="Logo-PORTINARI" fill="#485A5E"></path>
    </g>
</svg>
