<svg xmlns="http://www.w3.org/2000/svg" width="81" height="24" viewBox="0 0 81 24">
    <path fill="#485a5e" fill-rule="evenodd" d="M37.729 7.857h-2.83v10.307a.353.353 0 0 1-.349.355h-2.288a.352.352 0 0 1-.349-.355V7.857h-2.846a.338.338 0 0 1-.35-.337V5.695c0-.194.157-.336.35-.336h8.662c.192 0 .366.142.366.336V7.52c0 .195-.174.337-.366.337zm6.233 10.821c-2.881 0-5.17-1.576-5.17-5.685v-2.108c0-4.11 2.289-5.685 5.17-5.685 2.882 0 5.169 1.575 5.169 5.685v2.108c0 4.11-2.287 5.685-5.17 5.685zm2.165-7.793c0-2.125-.698-3.029-2.165-3.029-1.466 0-2.148.904-2.148 3.029v2.108c0 2.125.682 3.028 2.148 3.028 1.467 0 2.165-.903 2.165-3.028v-2.108zm12.678-3.028h-2.829v10.307a.352.352 0 0 1-.349.355H53.34a.352.352 0 0 1-.348-.355V7.857h-2.847a.339.339 0 0 1-.35-.337V5.695c0-.194.158-.336.35-.336h8.661c.192 0 .367.142.367.336V7.52c0 .195-.175.337-.367.337zM71.083 5.73L68.48 16.71c-.402 1.702-1.677 1.967-2.882 1.967s-2.497-.265-2.9-1.967l-2.602-10.98c0-.036-.017-.053-.017-.089 0-.16.14-.283.314-.283h2.429c.174 0 .313.141.348.319l2.183 10.22c.036.194.087.265.245.265.157 0 .21-.07.245-.265l2.183-10.22c.034-.178.157-.32.331-.32h2.445c.174 0 .297.107.297.284 0 .018-.017.053-.017.089zm4.924 12.947c-1.38 0-2.41-.16-3.3-.39-.175-.052-.35-.16-.35-.354v-1.736c0-.247.14-.336.314-.336h.053c.715.071 2.637.212 3.317.212 1.206 0 1.554-.39 1.554-1.24 0-.513-.245-.796-1.151-1.345l-2.41-1.452c-1.625-.975-2.06-2.09-2.06-3.384 0-1.948 1.08-3.453 4.47-3.453 1.274 0 3.037.212 3.701.39.139.034.262.123.262.318v1.789c0 .16-.07.301-.297.301h-.034c-.49-.035-2.516-.195-3.703-.195-.995 0-1.362.301-1.362.938 0 .497.227.727 1.17 1.24l2.234 1.223c1.817.992 2.359 2.16 2.359 3.595 0 1.878-1.222 3.88-4.767 3.88zM11.831 0c6.536 0 11.832 5.373 11.832 12s-5.296 12-11.832 12C5.297 24 0 18.627 0 12S5.297 0 11.831 0zm7.976 16.444c.584-.545.586-8.842 0-9.69-.754-.653-10.618-3.183-11.37-2.917C8.167 4.09 8.022 6 8 8.064c-2.076-.496-3.866-.845-4.17-.738-.584.547-.584 8.845 0 9.69.752.653 10.618 3.184 11.371 2.917.27-.252.415-2.162.436-4.226 2.075.496 3.865.845 4.17.737zm-4.605-6.2c.315.455.46 3.063.436 5.463-3.065-.734-6.754-1.791-7.203-2.18-.313-.455-.457-3.063-.434-5.463 3.065.734 6.752 1.79 7.201 2.18z"/>
</svg>
