<?xml version="1.0" standalone="no"?>
<!DOCTYPE svg PUBLIC "-//W3C//DTD SVG 1.1//EN" "http://www.w3.org/Graphics/SVG/1.1/DTD/svg11.dtd" >
<svg xmlns="http://www.w3.org/2000/svg">
<metadata>Generated by IcoMoon</metadata>
<defs>
<font id="PortinariIcon" horiz-adv-x="1024">
<font-face units-per-em="1024" ascent="960" descent="-64" />
<missing-glyph horiz-adv-x="1024" />
<glyph unicode="&#x20;" horiz-adv-x="512" d="" />
<glyph unicode="&#xe900;" glyph-name="bar-code" d="M533.333 768c35.346 0 64-28.654 64-64v-554.667c0-35.346-28.654-64-64-64s-64 28.654-64 64v554.667c0 35.346 28.654 64 64 64zM661.333 768c11.782 0 21.333-9.551 21.333-21.333v-640c0-11.782-9.551-21.333-21.333-21.333s-21.333 9.551-21.333 21.333v640c0 11.782 9.551 21.333 21.333 21.333zM405.333 768c11.782 0 21.333-9.551 21.333-21.333v-640c0-11.782-9.551-21.333-21.333-21.333s-21.333 9.551-21.333 21.333v640c0 11.782 9.551 21.333 21.333 21.333zM938.667 768c23.564 0 42.667-19.103 42.667-42.667v-597.333c0-23.564-19.103-42.667-42.667-42.667s-42.667 19.103-42.667 42.667v597.333c0 23.564 19.103 42.667 42.667 42.667zM768 768c23.564 0 42.667-19.103 42.667-42.667v-597.333c0-23.564-19.103-42.667-42.667-42.667s-42.667 19.103-42.667 42.667v597.333c0 23.564 19.103 42.667 42.667 42.667zM234.667 768c35.346 0 64-28.654 64-64v-554.667c0-35.346-28.654-64-64-64s-64 28.654-64 64v554.667c0 35.346 28.654 64 64 64zM85.333 768c23.564 0 42.667-19.103 42.667-42.667v-597.333c0-23.564-19.103-42.667-42.667-42.667s-42.667 19.103-42.667 42.667v597.333c0 23.564 19.103 42.667 42.667 42.667z" />
<glyph unicode="&#xe901;" glyph-name="mail" d="M891.546 659.001c-6.989 14.028-21.475 23.666-38.213 23.666h-682.667c-16.74 0-31.229-9.641-38.216-23.673l379.431-267.374 379.665 267.381zM896 557.766l-354.644-249.76c-17.686-12.455-41.291-12.452-58.973 0.008l-354.383 249.724v-344.405c0-23.564 19.103-42.667 42.667-42.667h682.667c23.564 0 42.667 19.103 42.667 42.667v344.433zM170.667 768h682.667c70.692 0 128-57.308 128-128v-426.667c0-70.692-57.308-128-128-128h-682.667c-70.692 0-128 57.308-128 128v426.667c0 70.692 57.308 128 128 128z" />
<glyph unicode="&#xe902;" glyph-name="pin" d="M541.421-30.919c-16.477-15.663-42.365-15.663-58.842 0-235.486 223.851-354.579 402.728-354.579 543.532 0 211.739 171.923 383.387 384 383.387s384-171.648 384-383.387c0-140.804-119.093-319.681-354.579-543.532zM810.667 512.613c0 164.686-133.718 298.19-298.667 298.19s-298.667-133.504-298.667-298.19c0-105.111 98.773-258.273 298.667-453.488 199.893 195.216 298.667 348.377 298.667 453.488zM512 341.334c-94.257 0-170.667 76.41-170.667 170.667s76.41 170.667 170.667 170.667c94.257 0 170.667-76.41 170.667-170.667s-76.41-170.667-170.667-170.667zM512 426.667c47.128 0 85.333 38.205 85.333 85.333s-38.205 85.333-85.333 85.333c-47.128 0-85.333-38.205-85.333-85.333s38.205-85.333 85.333-85.333z" />
<glyph unicode="&#xe903;" glyph-name="telephone" d="M981.306 86.166c0.147-36.146-14.979-70.673-41.653-95.096-26.655-24.405-62.371-36.46-99.147-33.136-138.65 15.036-271.836 62.321-388.524 137.845-108.955 69.098-201.333 161.292-270.37 269.724-76.165 117.338-123.565 250.936-138.424 390.635-3.25 35.89 8.763 71.487 33.096 98.090 24.315 26.584 58.693 41.739 94.779 41.773l128.297-0.002c50.235 0.493 81.377-59.281 114.33-162.814 30.666-96.35 41.963-164.911 12.766-194.377l-30.832-30.771c50.511-79.104 117.777-146.22 197.058-196.616l31.095 31.033c29.363 28.979 98.297 17.482 194.775-13.434 103.653-33.215 163.473-64.548 162.754-114.951v-127.901zM878.088 213.582c-21.355 11.219-51.94 23.394-85.576 34.173-32.589 10.443-65.541 18.763-91.067 23.020-10.543 1.758-19.356 2.739-25.741 2.941l-46.306-46.214c-13.574-13.547-34.519-16.373-51.198-6.908-114.093 64.747-208.565 159.031-273.446 272.908-9.523 16.714-6.684 37.733 6.932 51.321l46.311 46.219c-0.191 6.34-1.147 15.082-2.87 25.542-4.185 25.397-12.406 58.212-22.752 90.719-10.666 33.512-22.735 64.042-33.869 85.411-3.95 7.583-7.616 13.673-10.685 17.952h-116.719c-12.129-0.011-23.689-5.107-31.852-14.032-8.146-8.907-12.163-20.808-11.142-32.135 13.373-125.683 56.223-246.456 125.283-352.851 62.509-98.177 145.914-181.416 244.624-244.018 105.83-68.495 226.287-111.261 350.923-124.783 12.119-1.093 24.134 2.962 33.089 11.161 8.936 8.181 13.995 19.73 13.946 31.986v116.847c-4.245 3.078-10.313 6.765-17.885 10.743z" />
<glyph unicode="&#xe904;" glyph-name="user-add" d="M256 469.334v85.333c0 23.552-19.115 42.667-42.667 42.667s-42.667-19.115-42.667-42.667v-85.333h-85.333c-23.552 0-42.667-19.115-42.667-42.667s19.115-42.667 42.667-42.667h85.333v-85.333c0-23.595 19.115-42.667 42.667-42.667s42.667 19.072 42.667 42.667v85.333h85.333c23.595 0 42.667 19.115 42.667 42.667s-19.072 42.667-42.667 42.667h-85.333zM555.409 398.277c-26.996 30.188-43.409 70.039-43.409 113.724 0 94.257 76.41 170.667 170.667 170.667s170.667-76.41 170.667-170.667c0-43.685-16.413-83.536-43.409-113.724 101.304-47.782 171.409-150.842 171.409-270.276 0-23.564-19.103-42.667-42.667-42.667s-42.667 19.103-42.667 42.667c0 117.821-95.513 213.333-213.333 213.333s-213.333-95.513-213.333-213.333c0-23.564-19.103-42.667-42.667-42.667s-42.667 19.103-42.667 42.667c0 119.434 70.104 222.494 171.409 270.276zM682.667 426.667c47.128 0 85.333 38.205 85.333 85.333s-38.205 85.333-85.333 85.333c-47.128 0-85.333-38.205-85.333-85.333s38.205-85.333 85.333-85.333z" />
<glyph unicode="&#xe905;" glyph-name="world" d="M761.165 341.334c4.053 27.904 6.827 56.277 6.827 85.333s-2.773 57.387-6.827 85.333h125.013c6.229-27.477 9.813-55.979 9.813-85.333s-3.584-57.813-9.813-85.333h-125.013zM645.623 67.030c42.581 56.277 76.16 119.723 96.896 188.971h113.109c-43.264-86.869-118.272-154.837-210.005-188.971zM370.935 256h282.155c-29.013-81.707-77.781-154.027-141.099-210.731-63.275 56.704-112.085 129.024-141.056 210.731zM168.397 256h113.024c20.779-69.248 54.357-132.693 96.939-188.971-91.733 34.133-166.741 102.101-209.963 188.971zM127.991 426.667c0 29.355 3.627 57.856 9.856 85.333h124.971c-4.011-27.947-6.827-56.277-6.827-85.333s2.816-57.429 6.827-85.333h-124.971c-6.229 27.52-9.856 55.979-9.856 85.333zM378.359 786.304c-42.581-56.277-76.16-119.723-96.939-188.971h-113.024c43.221 86.869 118.229 154.837 209.963 188.971zM653.090 597.334h-282.155c28.971 81.707 77.781 154.027 141.056 210.731 63.317-56.704 112.085-129.024 141.099-210.731zM682.658 426.667c0-29.184-3.157-57.515-7.808-85.333h-325.675c-4.693 27.819-7.851 56.149-7.851 85.333s3.157 57.515 7.851 85.333h325.675c4.651-27.819 7.808-56.149 7.808-85.333zM855.629 597.334h-113.109c-20.736 69.248-54.315 132.693-96.896 188.971 91.733-34.133 166.741-102.101 210.005-188.971zM511.991 896c-259.2 0-469.333-210.133-469.333-469.333s210.133-469.333 469.333-469.333c259.2 0 469.333 210.133 469.333 469.333s-210.133 469.333-469.333 469.333z" />
<glyph unicode="&#xe906;" glyph-name="exit" d="M750.327 469.334l-55.163 55.163c-16.662 16.662-16.662 43.677 0 60.34s43.677 16.662 60.34 0l128-128c16.662-16.662 16.662-43.677 0-60.34l-128-128c-16.662-16.662-43.677-16.662-60.34 0s-16.662 43.677 0 60.34l55.163 55.163h-238.327c-23.564 0-42.667 19.103-42.667 42.667s19.103 42.667 42.667 42.667h238.327zM554.667 213.334c0 23.564 19.103 42.667 42.667 42.667s42.667-19.103 42.667-42.667c0-70.692-57.308-128-128-128h-256c-70.692 0-128 57.308-128 128v426.667c0 70.692 57.308 128 128 128h256c70.692 0 128-57.308 128-128 0-23.564-19.103-42.667-42.667-42.667s-42.667 19.103-42.667 42.667c0 23.564-19.103 42.667-42.667 42.667h-256c-23.564 0-42.667-19.103-42.667-42.667v-426.667c0-23.564 19.103-42.667 42.667-42.667h256c23.564 0 42.667 19.103 42.667 42.667z" />
<glyph unicode="&#xe907;" glyph-name="no-signal" d="M670.293 328.96c-7.712 7.668-18.343 12.407-30.080 12.407s-22.368-4.74-30.082-12.409l-98.131-98.131-97.707 98.133c-7.412 6.377-17.129 10.259-27.753 10.259-23.564 0-42.667-19.103-42.667-42.667 0-10.624 3.883-20.341 10.307-27.809l-0.047 0.056 97.707-98.133-98.133-97.707c-9.153-7.872-14.914-19.467-14.914-32.407 0-23.564 19.103-42.667 42.667-42.667 12.94 0 24.535 5.761 32.36 14.858l0.047 0.056 98.133 97.707 97.707-97.707c7.412-6.377 17.129-10.259 27.753-10.259 23.564 0 42.667 19.103 42.667 42.667 0 10.624-3.883 20.341-10.307 27.809l0.047-0.056-97.707 97.707 97.707 97.707c7.923 7.753 12.836 18.555 12.836 30.505 0 11.738-4.74 22.37-12.411 30.084l0.002-0.002zM848.64 573.44c-17.563 87.926-94.128 153.257-185.952 153.257-7.996 0-15.876-0.495-23.612-1.457l0.924 0.094c-49.186 81.501-137.265 135.16-237.876 135.16-152.931 0-276.907-123.975-276.907-276.907 0-13.815 1.012-27.393 2.965-40.665l-0.182 1.506c-52.265-42.969-85.34-107.63-85.34-180.016 0-0.613 0.002-1.226 0.007-1.838l-0.001 0.094c0.242-129.505 105.161-234.424 234.643-234.667h0.023c23.564 0 42.667 19.103 42.667 42.667s-19.103 42.667-42.667 42.667v0c-0.091 0-0.199 0-0.307 0-82.239 0-148.907 66.668-148.907 148.907 0 53.292 27.995 100.045 70.082 126.356l0.626 0.365 25.6 15.787-6.4 29.44c-2.67 12.004-4.199 25.79-4.199 39.934 0 106.039 85.961 192 192 192 75.882 0 141.483-44.021 172.658-107.918l0.501-1.136 15.787-33.707 35.413 10.667c9.214 3.375 19.859 5.527 30.944 5.967l0.203 0.006c0.073 0 0.16 0 0.247 0 56.358 0 102.508-43.708 106.401-99.076l0.019-0.338v-28.587l26.453-9.387c58.321-21.064 99.255-75.944 99.255-140.385 0-81.583-65.609-147.843-146.943-148.894l-0.099-0.001c-23.564 0-42.667-19.103-42.667-42.667s19.103-42.667 42.667-42.667v0c0.199-0.001 0.434-0.001 0.669-0.001 129.367 0 234.24 104.873 234.24 234.24 0 92.533-53.655 172.535-131.551 210.59l-1.385 0.611z" />
<glyph unicode="&#xe908;" glyph-name="arrow-down" d="M798.165 584.832c-16.683 16.683-43.648 16.683-60.331 0l-225.835-225.835-225.835 225.835c-16.683 16.683-43.648 16.683-60.331 0s-16.683-43.648 0-60.331l256-256c8.32-8.32 19.243-12.501 30.165-12.501s21.845 4.181 30.165 12.501l256 256c16.683 16.683 16.683 43.648 0 60.331z" />
<glyph unicode="&#xe909;" glyph-name="arrow-left" d="M444.335 426.667l225.835 225.835c16.683 16.683 16.683 43.648 0 60.331s-43.648 16.683-60.331 0l-256-256c-16.683-16.683-16.683-43.648 0-60.331l256-256c8.32-8.32 19.243-12.501 30.165-12.501s21.845 4.181 30.165 12.501c16.683 16.683 16.683 43.648 0 60.331l-225.835 225.835z" />
<glyph unicode="&#xe90a;" glyph-name="help" d="M512 896c258.773 0 469.333-210.56 469.333-469.333s-210.56-469.333-469.333-469.333c-258.773 0-469.333 210.56-469.333 469.333s210.56 469.333 469.333 469.333zM512 42.667c211.755 0 384 172.245 384 384 0 211.712-172.245 384-384 384s-384-172.288-384-384c0-211.755 172.245-384 384-384zM512 682.667c94.123 0 170.667-76.544 170.667-170.667 0-79.275-54.571-145.536-128-164.608v-48.725c0-23.595-19.072-42.667-42.667-42.667s-42.667 19.072-42.667 42.667v85.333c0 23.552 19.072 42.667 42.667 42.667 47.061 0 85.333 38.272 85.333 85.333s-38.272 85.333-85.333 85.333c-47.061 0-85.333-38.272-85.333-85.333 0-23.552-19.072-42.667-42.667-42.667s-42.667 19.115-42.667 42.667c0 94.123 76.544 170.667 170.667 170.667zM512 213.334c23.595 0 42.667-19.072 42.667-42.667s-19.072-42.667-42.667-42.667c-23.595 0-42.667 19.072-42.667 42.667s19.072 42.667 42.667 42.667z" />
<glyph unicode="&#xe90b;" glyph-name="info" d="M42.667 426.667c0 258.773 210.56 469.333 469.333 469.333s469.333-210.56 469.333-469.333c0-258.773-210.56-469.333-469.333-469.333s-469.333 210.56-469.333 469.333zM128 426.667c0-211.755 172.245-384 384-384s384 172.245 384 384c0 211.712-172.245 384-384 384s-384-172.288-384-384zM512 554.667c23.564 0 42.667-19.103 42.667-42.667v-298.667c0-23.564-19.103-42.667-42.667-42.667s-42.667 19.103-42.667 42.667v298.667c0 23.564 19.103 42.667 42.667 42.667zM469.333 640c0 23.595 19.072 42.667 42.667 42.667s42.667-19.072 42.667-42.667c0-23.595-19.072-42.667-42.667-42.667s-42.667 19.072-42.667 42.667z" />
<glyph unicode="&#xe90c;" glyph-name="sort-asc" d="M512 213.334l128 170.667h-256l128-170.667z" />
<glyph unicode="&#xe90d;" glyph-name="sort-desc" d="M512 640l-128-170.667h256l-128 170.667z" />
<glyph unicode="&#xe90e;" glyph-name="sort" d="M512 213.334l128 170.667h-256l128-170.667zM512 640l-128-170.667h256l-128 170.667z" />
<glyph unicode="&#xe90f;" glyph-name="warning" d="M554.667 213.334c0-23.564-19.103-42.667-42.667-42.667s-42.667 19.103-42.667 42.667c0 23.564 19.103 42.667 42.667 42.667s42.667-19.103 42.667-42.667zM512 682.667c23.564 0 42.667-19.103 42.667-42.667v-256c0-23.564-19.103-42.667-42.667-42.667s-42.667 19.103-42.667 42.667v256c0 23.564 19.103 42.667 42.667 42.667z" />
<glyph unicode="&#xe910;" glyph-name="arrow-right" d="M670.165 456.832l-256 256c-16.683 16.683-43.648 16.683-60.331 0s-16.683-43.648 0-60.331l225.835-225.835-225.835-225.835c-16.683-16.683-16.683-43.648 0-60.331 8.32-8.32 19.243-12.501 30.165-12.501s21.845 4.181 30.165 12.501l256 256c16.683 16.683 16.683 43.648 0 60.331z" />
<glyph unicode="&#xe911;" glyph-name="arrow-up" d="M798.165 328.832l-256 256c-16.683 16.683-43.648 16.683-60.331 0l-256-256c-16.683-16.683-16.683-43.648 0-60.331s43.648-16.683 60.331 0l225.835 225.835 225.835-225.835c8.32-8.32 19.243-12.501 30.165-12.501s21.845 4.181 30.165 12.501c16.683 16.683 16.683 43.648 0 60.331z" />
<glyph unicode="&#xe912;" glyph-name="calendar" d="M768 768c70.571 0 128-57.429 128-128v-512c0-70.571-57.429-128-128-128h-512c-70.571 0-128 57.429-128 128v512c0 70.571 57.429 128 128 128v42.667c0 23.467 19.2 42.667 42.667 42.667s42.667-19.2 42.667-42.667v-42.667h341.333v42.667c0 23.467 19.2 42.667 42.667 42.667s42.667-19.2 42.667-42.667v-42.667zM810.667 128v384h-597.333v-384c0-23.552 19.115-42.667 42.667-42.667h512c23.552 0 42.667 19.115 42.667 42.667zM810.667 597.334v42.667c0 23.509-19.115 42.667-42.667 42.667h-512c-23.552 0-42.667-19.157-42.667-42.667v-42.667h597.333zM341.333 341.334c-23.595 0-42.667 19.072-42.667 42.667 0 23.552 19.072 42.667 42.667 42.667s42.667-19.115 42.667-42.667c0-23.595-19.072-42.667-42.667-42.667zM512 341.334c-23.595 0-42.667 19.072-42.667 42.667 0 23.552 19.072 42.667 42.667 42.667s42.667-19.115 42.667-42.667c0-23.595-19.072-42.667-42.667-42.667zM682.667 341.334c-23.595 0-42.667 19.072-42.667 42.667 0 23.552 19.072 42.667 42.667 42.667s42.667-19.115 42.667-42.667c0-23.595-19.072-42.667-42.667-42.667zM341.333 170.667c-23.595 0-42.667 19.072-42.667 42.667s19.072 42.667 42.667 42.667c23.595 0 42.667-19.072 42.667-42.667s-19.072-42.667-42.667-42.667zM512 170.667c-23.595 0-42.667 19.072-42.667 42.667s19.072 42.667 42.667 42.667c23.595 0 42.667-19.072 42.667-42.667s-19.072-42.667-42.667-42.667zM682.667 170.667c-23.595 0-42.667 19.072-42.667 42.667s19.072 42.667 42.667 42.667c23.595 0 42.667-19.072 42.667-42.667s-19.072-42.667-42.667-42.667z" />
<glyph unicode="&#xe913;" glyph-name="clock" d="M512 810.667c-212.077 0-384-171.923-384-384s171.923-384 384-384c212.077 0 384 171.923 384 384s-171.923 384-384 384zM512 128c-164.949 0-298.667 133.718-298.667 298.667s133.718 298.667 298.667 298.667c164.949 0 298.667-133.718 298.667-298.667s-133.718-298.667-298.667-298.667zM555.695 443.076v154.021c0 23.695-19.333 42.903-43.181 42.903s-43.181-19.208-43.181-42.903v-171.611c-0.066-11.404 4.44-22.364 12.522-30.461l129.542-128.708c17.132-14.577 42.671-13.597 58.621 2.25s16.936 41.221 2.264 58.243l-116.588 116.267z" />
<glyph unicode="&#xe914;" glyph-name="close" d="M572.335 426.667l183.168 183.168c16.683 16.683 16.683 43.648 0 60.331s-43.648 16.683-60.331 0l-183.168-183.168-183.168 183.168c-16.683 16.683-43.648 16.683-60.331 0s-16.683-43.648 0-60.331l183.168-183.168-183.168-183.168c-16.683-16.683-16.683-43.648 0-60.331 8.32-8.32 19.243-12.501 30.165-12.501s21.845 4.181 30.165 12.501l183.168 183.168 183.168-183.168c8.32-8.32 19.243-12.501 30.165-12.501s21.845 4.181 30.165 12.501c16.683 16.683 16.683 43.648 0 60.331l-183.168 183.168z" />
<glyph unicode="&#xe915;" glyph-name="copy" d="M725.333 853.334h-298.667c-70.692 0-128-57.308-128-128v-42.667h-42.667c-70.692 0-128-57.308-128-128v-426.667c0-70.692 57.308-128 128-128h298.667c70.692 0 128 57.308 128 128v42.667h42.667c70.692 0 128 57.308 128 128v426.667c0 70.692-57.308 128-128 128zM597.333 128c0-23.564-19.103-42.667-42.667-42.667h-298.667c-23.564 0-42.667 19.103-42.667 42.667v426.667c0 23.564 19.103 42.667 42.667 42.667h298.667c23.564 0 42.667-19.103 42.667-42.667v-426.667zM768 298.667c0-23.564-19.103-42.667-42.667-42.667h-42.667v298.667c0 70.692-57.308 128-128 128h-170.667v42.667c0 23.564 19.103 42.667 42.667 42.667h298.667c23.564 0 42.667-19.103 42.667-42.667v-426.667z" />
<glyph unicode="&#xe916;" glyph-name="delete" d="M853.333 725.334c23.564 0 42.667-19.103 42.667-42.667s-19.103-42.667-42.667-42.667h-42.667v-469.333c0-70.692-57.308-128-128-128h-341.333c-70.692 0-128 57.308-128 128v469.333h-42.667c-23.564 0-42.667 19.103-42.667 42.667s19.103 42.667 42.667 42.667h178.347c18.037 51.018 66.208 85.181 120.32 85.333h85.333c54.112-0.152 102.283-34.316 120.32-85.333h178.347zM725.333 170.667v469.333h-426.667v-469.333c0-23.564 19.103-42.667 42.667-42.667h341.333c23.564 0 42.667 19.103 42.667 42.667zM597.333 554.667c23.564 0 42.667-19.103 42.667-42.667v-256c0-23.564-19.103-42.667-42.667-42.667s-42.667 19.103-42.667 42.667v256c0 23.564 19.103 42.667 42.667 42.667zM426.667 554.667c23.564 0 42.667-19.103 42.667-42.667v-256c0-23.564-19.103-42.667-42.667-42.667s-42.667 19.103-42.667 42.667v256c0 23.564 19.103 42.667 42.667 42.667z" />
<glyph unicode="&#xe917;" glyph-name="document" d="M853.333 599.894c-0.216 3.776-0.934 7.506-2.133 11.093v3.84c-2.090 4.597-4.979 8.786-8.533 12.373l-213.333 213.333c-3.587 3.554-7.776 6.443-12.373 8.533h-4.267c-4.013 2.092-8.334 3.532-12.8 4.267h-301.227c-70.692 0-128-57.308-128-128v-597.333c0-70.692 57.308-128 128-128h426.667c70.692 0 128 57.308 128 128v469.333c0 0 0 0 0 2.56zM707.84 640h-67.84v67.84l67.84-67.84zM725.333 85.334h-426.667c-23.564 0-42.667 19.103-42.667 42.667v597.333c0 23.564 19.103 42.667 42.667 42.667h256v-170.667c0-23.564 19.103-42.667 42.667-42.667h170.667v-426.667c0-23.564-19.103-42.667-42.667-42.667z" />
<glyph unicode="&#xe918;" glyph-name="edit" d="M883.383 648.96l-149.285 149.333c-16.636 16.543-43.504 16.543-60.141 0l-533.588-533.333c-7.984-8.052-12.435-18.952-12.369-30.293v-149.333c0-23.564 19.096-42.667 42.653-42.667h149.285c11.337-0.066 22.234 4.387 30.284 12.373l533.161 533.333c8.075 8.011 12.617 18.917 12.617 30.293s-4.542 22.282-12.617 30.293zM302.45 128h-89.145v89.173l373.213 373.333 89.145-89.173-373.213-373.333zM735.804 561.494l-89.145 89.173 57.155 57.173 89.145-89.173-57.155-57.173z" />
<glyph unicode="&#xe919;" glyph-name="filter" d="M810.667 640c23.564 0 42.667-19.103 42.667-42.667s-19.103-42.667-42.667-42.667h-597.333c-23.564 0-42.667 19.103-42.667 42.667s19.103 42.667 42.667 42.667h597.333zM682.667 469.334c23.564 0 42.667-19.103 42.667-42.667s-19.103-42.667-42.667-42.667h-341.333c-23.564 0-42.667 19.103-42.667 42.667s19.103 42.667 42.667 42.667h341.333zM554.667 298.667c23.564 0 42.667-19.103 42.667-42.667s-19.103-42.667-42.667-42.667h-85.333c-23.564 0-42.667 19.103-42.667 42.667s19.103 42.667 42.667 42.667h85.333z" />
<glyph unicode="&#xe91a;" glyph-name="agro-business" d="M814.080 343.894c-11.264 2.813-24.791 5.075-38.61 6.322l-1.070 0.078c48.907 49.962 79.087 118.426 79.087 193.938 0 23.858-3.013 47.013-8.678 69.104l0.418-1.922c-3.903 15.373-15.773 27.243-30.851 31.083l-0.295 0.064c-20.146 5.252-43.273 8.267-67.104 8.267-45.059 0-87.6-10.779-125.186-29.899l1.571 0.725c10.335 27.797 16.315 59.911 16.315 93.421 0 86.025-39.409 162.845-101.159 213.391l-0.489 0.388c-7.307 6.041-16.772 9.706-27.093 9.706s-19.786-3.665-27.165-9.764l0.072 0.058c-62.048-51.166-101.301-128.050-101.301-214.102 0-33.224 5.851-65.081 16.579-94.597l-0.612 1.926c-35.831 18.173-78.124 28.819-122.903 28.819-23.935 0-47.16-3.041-69.309-8.759l1.919 0.42c-15.373-3.903-27.243-15.773-31.083-30.851l-0.064-0.295c-5.247-20.169-8.26-43.324-8.26-67.182 0-75.512 30.179-143.976 79.134-193.987l-0.048 0.049c-14.89-1.325-28.416-3.587-41.575-6.79l1.895 0.39c-15.373-3.903-27.243-15.773-31.083-30.851l-0.064-0.295c-5.359-20.36-8.436-43.735-8.436-67.828 0-152.931 123.975-276.907 276.907-276.907 23.598 0 46.507 2.952 68.377 8.507l-1.915-0.412c19.275-4.783 41.404-7.527 64.173-7.527 153.167 0 277.333 124.166 277.333 277.333 0 23.887-3.020 47.068-8.699 69.183l0.419-1.923c-4.039 15.197-15.872 26.888-30.852 30.657l-0.294 0.063zM768 564.48c0.171-3.059 0.268-6.638 0.268-10.24s-0.097-7.181-0.29-10.735l0.021 0.495c0-106.039-85.961-192-192-192v0h-20.48c-0.171 3.059-0.268 6.638-0.268 10.24s0.097 7.181 0.29 10.735l-0.021-0.495c0 106.039 85.961 192 192 192v0zM512 835.84c26.606-32.685 42.721-74.834 42.721-120.747s-16.115-88.061-42.998-121.098l0.277 0.352c-26.606 32.685-42.721 74.834-42.721 120.747s16.115 88.061 42.998 121.098l-0.277-0.352zM256 564.48h20.48c106.039 0 192-85.961 192-192v0c0.171-3.059 0.268-6.638 0.268-10.24s-0.097-7.181-0.29-10.735l0.021 0.495h-20.48c0 0 0 0 0 0-106.039 0-192 85.961-192 192 0 0.15 0 0.3 0.001 0.45v-0.024c-0.164 2.995-0.257 6.5-0.257 10.027s0.093 7.032 0.278 10.513l-0.021-0.486zM469.333 52.48h-20.48c-0.255-0.001-0.556-0.002-0.858-0.002-106.039 0-192 85.961-192 192 0 0.451 0.002 0.901 0.005 1.351v-0.069c-0.171 3.059-0.268 6.638-0.268 10.24s0.097 7.181 0.29 10.735l-0.021-0.495h20.48c106.039 0 192-85.961 192-192v0c0.546-5.483 0.858-11.85 0.858-18.291 0-0.47-0.002-0.939-0.005-1.408v0.072zM576.853 52.48h-20.48c-0.171 3.059-0.268 6.638-0.268 10.24s0.097 7.181 0.29 10.735l-0.021-0.495c0 106.039 85.961 192 192 192v0h20.48c0.171-3.059 0.268-6.638 0.268-10.24s-0.097-7.181-0.29-10.735l0.021 0.495c-0.725-105.488-86.406-190.722-191.996-190.722-0.302 0-0.603 0.001-0.904 0.002h0.046z" />
<glyph unicode="&#xe91b;" glyph-name="camera" d="M348.617 682.667c17.572 49.715 64.985 85.333 120.717 85.333h85.333c55.732 0 103.145-35.618 120.717-85.333h135.283c70.692 0 128-57.308 128-128v-341.333c0-70.692-57.308-128-128-128h-597.333c-70.692 0-128 57.308-128 128v341.333c0 55.95 35.898 103.516 85.918 120.922-0.384 2.302-0.584 4.667-0.584 7.078 0 23.564 19.103 42.667 42.667 42.667s42.667-19.103 42.667-42.667h92.617zM341.333 597.334h-128c-23.564 0-42.667-19.103-42.667-42.667v-341.333c0-23.564 19.103-42.667 42.667-42.667h597.333c23.564 0 42.667 19.103 42.667 42.667v341.333c0 23.564-19.103 42.667-42.667 42.667h-469.333zM512 213.334c-94.257 0-170.667 76.41-170.667 170.667s76.41 170.667 170.667 170.667c94.257 0 170.667-76.41 170.667-170.667s-76.41-170.667-170.667-170.667zM512 298.667c47.128 0 85.333 38.205 85.333 85.333s-38.205 85.333-85.333 85.333c-47.128 0-85.333-38.205-85.333-85.333s38.205-85.333 85.333-85.333zM768 298.667c23.564 0 42.667-19.103 42.667-42.667s-19.103-42.667-42.667-42.667c-23.564 0-42.667 19.103-42.667 42.667s19.103 42.667 42.667 42.667z" />
<glyph unicode="&#xe91c;" glyph-name="chat" d="M213.333 640v85.333c0 70.692 57.308 128 128 128h554.667c70.692 0 128-57.308 128-128v-341.333c0-70.692-57.308-128-128-128h-42.667v-85.333c0-16.161-9.131-30.935-23.586-38.162s-31.752-5.668-44.681 4.029l-102.4 76.8c0-70.692-57.308-128-128-128h-156.587l-159.147-119.467c-12.929-9.697-30.226-11.256-44.681-4.029s-23.586 22.001-23.586 38.162v85.333h-42.667c-70.692 0-128 57.308-128 128v298.667c0 70.692 57.308 128 128 128h85.333zM597.333 256h-256c-70.692 0-128 57.308-128 128v170.667h-85.333c-23.564 0-42.667-19.103-42.667-42.667v-298.667c0-23.564 19.103-42.667 42.667-42.667h85.333c23.564 0 42.667-19.103 42.667-42.667v-42.667l102.4 76.8c7.385 5.539 16.368 8.533 25.6 8.533h170.667c23.564 0 42.667 19.103 42.667 42.667v42.667zM298.667 384c0-23.564 19.103-42.667 42.667-42.667h298.667c9.232 0 18.215-2.994 25.6-8.533l102.4-76.8v42.667c0 23.564 19.103 42.667 42.667 42.667h85.333c23.564 0 42.667 19.103 42.667 42.667v341.333c0 23.564-19.103 42.667-42.667 42.667h-554.667c-23.564 0-42.667-19.103-42.667-42.667v-341.333z" />
<glyph unicode="&#xe91d;" glyph-name="export" d="M707.66 682.667h-67.66c-23.564 0-42.667 19.103-42.667 42.667s19.103 42.667 42.667 42.667h170.667c23.564 0 42.667-19.103 42.667-42.667v-170.667c0-23.564-19.103-42.667-42.667-42.667s-42.667 19.103-42.667 42.667v67.66l-183.163-183.163c-16.662-16.662-43.677-16.662-60.34 0s-16.662 43.677 0 60.34l183.163 183.163zM768 384c0 23.564 19.103 42.667 42.667 42.667s42.667-19.103 42.667-42.667v-170.667c0-70.692-57.308-128-128-128h-426.667c-70.692 0-128 57.308-128 128v426.667c0 70.692 57.308 128 128 128h170.667c23.564 0 42.667-19.103 42.667-42.667s-19.103-42.667-42.667-42.667h-170.667c-23.564 0-42.667-19.103-42.667-42.667v-426.667c0-23.564 19.103-42.667 42.667-42.667h426.667c23.564 0 42.667 19.103 42.667 42.667v170.667z" />
<glyph unicode="&#xe91e;" glyph-name="finance" d="M512 384h-21.333c-82.475 0-149.333 66.859-149.333 149.333 0 75.231 55.631 137.469 128 147.821v44.179c0 23.564 19.103 42.667 42.667 42.667s42.667-19.103 42.667-42.667v-42.667h85.333c23.564 0 42.667-19.103 42.667-42.667s-19.103-42.667-42.667-42.667h-149.333c-35.346 0-64-28.654-64-64s28.654-64 64-64h85.333c82.475 0 149.333-66.859 149.333-149.333s-66.859-149.333-149.333-149.333h-21.333v-42.667c0-23.564-19.103-42.667-42.667-42.667s-42.667 19.103-42.667 42.667v42.667h-85.333c-23.564 0-42.667 19.103-42.667 42.667s19.103 42.667 42.667 42.667h192c35.346 0 64 28.654 64 64s-28.654 64-64 64h-64zM512 896c258.773 0 469.333-210.56 469.333-469.333s-210.56-469.333-469.333-469.333c-258.773 0-469.333 210.56-469.333 469.333s210.56 469.333 469.333 469.333zM512 42.667c211.755 0 384 172.245 384 384 0 211.712-172.245 384-384 384s-384-172.288-384-384c0-211.755 172.245-384 384-384z" />
<glyph unicode="&#xe91f;" glyph-name="news" d="M170.667-0c-94.257 0-170.667 76.41-170.667 170.667v213.333h256v426.667c0 23.564 19.103 42.667 42.667 42.667h682.667c23.564 0 42.667-19.103 42.667-42.667v-640c0-94.257-76.41-170.667-170.667-170.667h-682.667zM318.501 85.334h534.832c47.128 0 85.333 38.205 85.333 85.333v597.333h-597.333v-597.333c0-31.086-8.311-60.231-22.832-85.333zM85.333 298.667v-128c0-47.128 38.205-85.333 85.333-85.333s85.333 38.205 85.333 85.333v128h-170.667zM853.333 512v-213.333h-213.333v213.333h213.333zM768 426.667h-42.667v-42.667h42.667v42.667zM426.667 682.667h426.667v-85.333h-426.667v85.333zM426.667 512h170.667v-85.333h-170.667v85.333zM426.667 384h170.667v-85.333h-170.667v85.333zM426.667 256h170.667v-85.333h-170.667v85.333zM640 256h213.333v-85.333h-213.333v85.333z" />
<glyph unicode="&#xe920;" glyph-name="first-page" d="M572.921 426.882l227.376-227.909c14.604-17.061 13.622-42.494-2.254-58.378s-41.298-16.866-58.351-2.255l-257.894 258.010c-16.665 16.772-16.665 43.86 0 60.632l257.894 258.010c17.054 14.611 42.475 13.629 58.351-2.255s16.858-41.316 2.254-58.378l-227.376-227.479zM316.921 426.882l227.376-227.909c14.604-17.061 13.622-42.494-2.254-58.378s-41.298-16.866-58.351-2.255l-257.894 258.010c-16.665 16.772-16.665 43.86 0 60.632l257.894 258.010c17.054 14.611 42.475 13.629 58.351-2.255s16.858-41.316 2.254-58.378l-227.376-227.479z" />
<glyph unicode="&#xe921;" glyph-name="home" d="M927.676 412.587l-383.897 426.667c-8.092 9.039-19.648 14.205-31.778 14.205s-23.687-5.166-31.778-14.205l-383.897-426.667c-11.334-12.56-14.177-30.633-7.247-46.068s22.323-25.315 39.238-25.186h85.311v-298.667c0-23.564 19.097-42.667 42.655-42.667h170.621c23.558 0 42.655 19.103 42.655 42.667v170.667h85.311v-170.667c0-23.564 19.097-42.667 42.655-42.667h170.621c23.558 0 42.655 19.103 42.655 42.667v298.667h85.311c16.838 0.040 32.076 9.983 38.898 25.381s3.949 33.369-7.333 45.872zM768.145 426.667c-23.558 0-42.655-19.103-42.655-42.667v-298.667h-85.311v170.667c0 23.564-19.097 42.667-42.655 42.667h-170.621c-23.558 0-42.655-19.103-42.655-42.667v-170.667h-85.311v298.667c0 23.564-19.097 42.667-42.655 42.667h-31.991l287.923 320.427 287.923-320.427h-31.991z" />
<glyph unicode="&#xe922;" glyph-name="last-page" d="M707.011 426.452l-227.376 227.909c-14.604 17.061-13.622 42.494 2.254 58.378s41.298 16.866 58.351 2.255l257.894-258.010c16.665-16.772 16.665-43.86 0-60.632l-257.894-258.010c-17.054-14.611-42.475-13.629-58.351 2.255s-16.858 41.316-2.254 58.378l227.376 227.479zM451.011 426.452l-227.376 227.909c-14.604 17.061-13.622 42.494 2.254 58.378s41.298 16.866 58.351 2.255l257.894-258.010c16.665-16.772 16.665-43.86 0-60.632l-257.894-258.010c-17.054-14.611-42.475-13.629-58.351 2.255s-16.858 41.316-2.254 58.378l227.376 227.479z" />
<glyph unicode="&#xe923;" glyph-name="list" d="M341.333 597.334c-23.564 0-42.667 19.103-42.667 42.667s19.103 42.667 42.667 42.667h512c23.564 0 42.667-19.103 42.667-42.667s-19.103-42.667-42.667-42.667h-512zM853.333 469.334c23.564 0 42.667-19.103 42.667-42.667s-19.103-42.667-42.667-42.667h-512c-23.564 0-42.667 19.103-42.667 42.667s19.103 42.667 42.667 42.667h512zM853.333 256c23.564 0 42.667-19.103 42.667-42.667s-19.103-42.667-42.667-42.667h-512c-23.564 0-42.667 19.103-42.667 42.667s19.103 42.667 42.667 42.667h512zM140.373 670.046c8.011 8.077 18.917 12.621 30.293 12.621s22.282-4.543 30.293-12.621c7.797-8.176 12.216-18.997 12.373-30.293 0.066-11.341-4.387-22.241-12.373-30.293-8.011-8.077-18.917-12.621-30.293-12.621s-22.282 4.543-30.293 12.621c-7.987 8.052-12.439 18.952-12.373 30.293-0.066 11.341 4.387 22.241 12.373 30.293zM200.96 456.713c3.884-4.058 6.929-8.843 8.96-14.080 2.186-5.129 3.346-10.638 3.413-16.213 0-23.564-19.103-42.667-42.667-42.667s-42.667 19.103-42.667 42.667c-0.16 5.598 1.009 11.155 3.413 16.213 2.031 5.237 5.076 10.022 8.96 14.080 8.011 8.077 18.917 12.621 30.293 12.621s22.282-4.543 30.293-12.621zM140.373 243.38c8.011 8.077 18.917 12.621 30.293 12.621s22.282-4.543 30.293-12.621c7.797-8.176 12.216-18.997 12.373-30.293-0.067-5.576-1.227-11.084-3.413-16.213-2.168-5.167-5.198-9.928-8.96-14.080-8.011-8.077-18.917-12.621-30.293-12.621s-22.282 4.543-30.293 12.621c-3.876 4.15-7.047 8.906-9.387 14.080-2.040 5.159-3.055 10.666-2.987 16.213-0.066 11.341 4.387 22.241 12.373 30.293z" />
<glyph unicode="&#xe924;" glyph-name="lock" d="M725.333 554.667c70.571 0 128-57.429 128-128v-298.667c0-70.571-57.429-128-128-128h-426.667c-70.571 0-128 57.429-128 128v298.667c0 70.571 57.429 128 128 128v128c0 94.123 76.544 170.667 170.667 170.667h85.333c94.123 0 170.667-76.544 170.667-170.667v-128zM768 128v298.667c0 23.509-19.115 42.667-42.667 42.667h-426.667c-23.552 0-42.667-19.157-42.667-42.667v-298.667c0-23.552 19.115-42.667 42.667-42.667h426.667c23.552 0 42.667 19.115 42.667 42.667zM384 682.667v-128h256v128c0 47.061-38.272 85.333-85.333 85.333h-85.333c-47.061 0-85.333-38.272-85.333-85.333zM512 341.334c23.595 0 42.667-19.072 42.667-42.667v-42.667c0-23.595-19.072-42.667-42.667-42.667s-42.667 19.072-42.667 42.667v42.667c0 23.595 19.072 42.667 42.667 42.667z" />
<glyph unicode="&#xe925;" glyph-name="eye-off" d="M119.791 815.343l775.32-768.726c16.662-16.521 16.662-43.306 0-59.827s-43.677-16.521-60.34 0l-112.591 111.633c-61.265-31.789-131.473-52.687-210.181-52.687-320.668 0-500.242 346.891-508.793 359.582-4.276 12.691-4.276 25.382 0 38.073 4.626 9.153 59.293 114.857 159.266 209.98l-103.021 102.145c-16.662 16.521-16.662 43.306 0 59.827s43.677 16.521 60.34 0zM222.079 594.272c-68.748-64.127-114.671-134.926-133.361-167.802 42.756-67.686 192.401-296.126 423.282-296.126 53.129 0 101.956 12.096 146.169 31.547l-101.992 101.125c-14.105-3.756-28.916-5.76-44.177-5.76-94.063 0-171.023 76.147-171.023 169.215 0 15.223 2.059 29.993 5.915 44.051l-124.813 123.751zM861.527 199.57l-60.409 59.895c67.794 63.917 113.483 134.266 134.164 167.006-42.756 67.686-192.401 296.126-423.282 296.126-52.985 0-101.916-12.031-146.329-31.389l-63.852 63.309c61.265 31.789 131.473 52.687 210.181 52.687 320.668 0 500.242-346.891 508.793-363.812 4.276-8.461 4.276-25.382 0-33.843-4.626-9.153-59.293-114.857-159.266-209.98zM677.108 382.42l-209.285 207.505c14.105 3.756 28.916 5.76 44.177 5.76 94.063 0 171.023-76.147 171.023-169.215 0-15.223-2.059-29.993-5.915-44.051z" />
<glyph unicode="&#xe926;" glyph-name="social-github" d="M511.969 768c-188.462 0-341.302-152.819-341.302-341.344 0-150.807 97.793-278.733 233.43-323.868 17.078-3.143 23.301 7.397 23.301 16.449 0 8.088-0.293 29.566-0.461 58.043-94.943-20.619-114.976 45.764-114.976 45.764-15.527 39.436-37.906 49.934-37.906 49.934-30.991 21.164 2.347 20.745 2.347 20.745 34.26-2.41 52.281-35.182 52.281-35.182 30.446-52.155 79.898-37.089 99.344-28.351 3.101 22.044 11.923 37.089 21.667 45.617-75.791 8.612-155.48 37.906-155.48 168.702 0 37.257 13.306 67.745 35.14 91.591-3.52 8.633-15.234 43.354 3.353 90.334 0 0 28.644 9.178 93.854-34.994 27.219 7.585 56.43 11.357 85.451 11.504 29.001-0.147 58.19-3.918 85.451-11.504 65.168 44.171 93.77 34.994 93.77 34.994 18.628-46.979 6.915-81.7 3.416-90.334 21.876-23.846 35.077-54.334 35.077-91.591 0-131.131-79.815-159.985-155.836-168.43 12.237-10.54 23.154-31.368 23.154-63.219 0-45.617-0.419-82.434-0.419-93.623 0-9.136 6.161-19.76 23.469-16.428 135.532 45.24 233.241 173.082 233.241 323.847 0 188.525-152.84 341.344-341.365 341.344z" />
<glyph unicode="&#xe927;" glyph-name="menu" d="M213.333 597.334h597.333c23.564 0 42.667 19.103 42.667 42.667s-19.103 42.667-42.667 42.667h-597.333c-23.564 0-42.667-19.103-42.667-42.667s19.103-42.667 42.667-42.667zM810.667 469.334h-597.333c-23.564 0-42.667-19.103-42.667-42.667s19.103-42.667 42.667-42.667h597.333c23.564 0 42.667 19.103 42.667 42.667s-19.103 42.667-42.667 42.667zM810.667 256h-597.333c-23.564 0-42.667-19.103-42.667-42.667s19.103-42.667 42.667-42.667h597.333c23.564 0 42.667 19.103 42.667 42.667s-19.103 42.667-42.667 42.667z" />
<glyph unicode="&#xe928;" glyph-name="message" d="M810.667 810.667h-597.333c-70.692 0-128-57.308-128-128v-384c0-70.692 57.308-128 128-128h42.667v-85.333c0-16.161 9.131-30.935 23.586-38.162s31.752-5.668 44.681 4.029l159.147 119.467h327.253c70.692 0 128 57.308 128 128v384c0 70.692-57.308 128-128 128zM853.333 298.667c0-23.564-19.103-42.667-42.667-42.667h-341.333c-9.232 0-18.215-2.994-25.6-8.533l-102.4-76.8v42.667c0 23.564-19.103 42.667-42.667 42.667h-85.333c-23.564 0-42.667 19.103-42.667 42.667v384c0 23.564 19.103 42.667 42.667 42.667h597.333c23.564 0 42.667-19.103 42.667-42.667v-384z" />
<glyph unicode="&#xe929;" glyph-name="minus" d="M298.667 469.334h426.667c23.564 0 42.667-19.103 42.667-42.667s-19.103-42.667-42.667-42.667h-426.667c-23.564 0-42.667 19.103-42.667 42.667s19.103 42.667 42.667 42.667z" />
<glyph unicode="&#xe92a;" glyph-name="qr-code" d="M554.667 384h170.667v-85.333h85.333v85.333h85.333v-170.667h-256v-85.333h85.333v-85.333h-170.667v341.333zM810.667 128h85.333v-85.333h-85.333v85.333zM128 810.667h341.333v-341.333h-341.333v341.333zM213.333 725.334v-170.667h170.667v170.667h-170.667zM256 682.667h85.333v-85.333h-85.333v85.333zM554.667 810.667h341.333v-341.333h-341.333v341.333zM640 725.334v-170.667h170.667v170.667h-170.667zM682.667 682.667h85.333v-85.333h-85.333v85.333zM128 384h341.333v-341.333h-341.333v341.333zM213.333 298.667v-170.667h170.667v170.667h-170.667zM256 256h85.333v-85.333h-85.333v85.333z" />
<glyph unicode="&#xe92b;" glyph-name="more" d="M256 341.334c-47.128 0-85.333 38.205-85.333 85.333s38.205 85.333 85.333 85.333c47.128 0 85.333-38.205 85.333-85.333s-38.205-85.333-85.333-85.333zM512 341.334c-47.128 0-85.333 38.205-85.333 85.333s38.205 85.333 85.333 85.333c47.128 0 85.333-38.205 85.333-85.333s-38.205-85.333-85.333-85.333zM768 341.334c-47.128 0-85.333 38.205-85.333 85.333s38.205 85.333 85.333 85.333c47.128 0 85.333-38.205 85.333-85.333s-38.205-85.333-85.333-85.333z" />
<glyph unicode="&#xe92c;" glyph-name="wallet" d="M853.333 590.050c49.715-17.572 85.333-64.985 85.333-120.717v-85.333c0-55.732-35.618-103.145-85.333-120.717v-7.283c0-94.257-76.41-170.667-170.667-170.667h-469.333c-70.692 0-128 57.308-128 128v426.667c0 70.692 57.308 128 128 128h469.333c94.257 0 170.667-76.41 170.667-170.667v-7.283zM768 256h-128c-94.257 0-170.667 76.41-170.667 170.667s76.41 170.667 170.667 170.667h128c0 47.128-38.205 85.333-85.333 85.333h-469.333c-23.564 0-42.667-19.103-42.667-42.667v-426.667c0-23.564 19.103-42.667 42.667-42.667h469.333c47.128 0 85.333 38.205 85.333 85.333zM810.667 512h-170.667c-47.128 0-85.333-38.205-85.333-85.333s38.205-85.333 85.333-85.333h170.667c23.564 0 42.667 19.103 42.667 42.667v85.333c0 23.564-19.103 42.667-42.667 42.667zM640 384c-23.564 0-42.667 19.103-42.667 42.667s19.103 42.667 42.667 42.667c23.564 0 42.667-19.103 42.667-42.667s-19.103-42.667-42.667-42.667z" />
<glyph unicode="&#xe92d;" glyph-name="basket" d="M344.773 554.667h334.453l-115.21 144.013c-14.72 18.401-11.737 45.25 6.663 59.971s45.25 11.737 59.971-6.663l157.856-197.32h90.963c47.128 0 85.333-38.205 85.333-85.333 0-9.172-1.479-18.284-4.379-26.985l-99.556-298.667c-11.615-34.845-44.224-58.349-80.954-58.349h-535.829c-36.73 0-69.339 23.503-80.954 58.349l-99.556 298.667c-14.903 44.71 9.26 93.036 53.97 107.939 8.701 2.9 17.813 4.379 26.985 4.379h90.963l157.856 197.32c14.72 18.401 41.57 21.384 59.971 6.663s21.384-41.57 6.663-59.971l-115.21-144.013zM256.34 469.334c-0.245-0.002-0.489-0.002-0.734 0h-111.076l99.556-298.667h535.829l99.556 298.667h-111.076c-0.245-0.002-0.489-0.002-0.734 0h-511.32zM512 384c23.564 0 42.667-19.103 42.667-42.667v-42.667c0-23.564-19.103-42.667-42.667-42.667s-42.667 19.103-42.667 42.667v42.667c0 23.564 19.103 42.667 42.667 42.667zM341.333 384c23.564 0 42.667-19.103 42.667-42.667v-42.667c0-23.564-19.103-42.667-42.667-42.667s-42.667 19.103-42.667 42.667v42.667c0 23.564 19.103 42.667 42.667 42.667zM682.667 384c23.564 0 42.667-19.103 42.667-42.667v-42.667c0-23.564-19.103-42.667-42.667-42.667s-42.667 19.103-42.667 42.667v42.667c0 23.564 19.103 42.667 42.667 42.667z" />
<glyph unicode="&#xe92e;" glyph-name="cart" d="M298.667 725.334h537.641c47.128 0 85.333-38.205 85.333-85.333 0-14.502-3.696-28.765-10.739-41.442l-118.519-213.333c-15.050-27.090-43.604-43.892-74.595-43.892h-349.701l-43.657-86.301h444.596c23.564 0 42.667-19.103 42.667-42.667s-19.103-42.667-42.667-42.667h-513.995c-31.805 0-52.429 33.546-38.072 61.926l73.654 145.599c-4.806 6.76-8.677 14.298-11.397 22.457l-71.111 213.333c-7.629 22.887-5.021 46.721 5.339 66.534-0.074 1.029-0.112 2.069-0.112 3.117h-42.667c-23.564 0-42.667 19.103-42.667 42.667s19.103 42.667 42.667 42.667h85.333c23.564 0 42.667-19.103 42.667-42.667zM289.060 640l71.111-213.333h357.618l118.519 213.333h-547.248zM661.333-0c-35.346 0-64 28.654-64 64s28.654 64 64 64c35.346 0 64-28.654 64-64s-28.654-64-64-64zM234.667-0c-35.346 0-64 28.654-64 64s28.654 64 64 64c35.346 0 64-28.654 64-64s-28.654-64-64-64z" />
<glyph unicode="&#xe92f;" glyph-name="company" d="M426.667 85.334h85.333v640c0 23.564-19.103 42.667-42.667 42.667h-256c-23.564 0-42.667-19.103-42.667-42.667v-640h85.333v42.667c0 23.564 19.103 42.667 42.667 42.667h85.333c23.564 0 42.667-19.103 42.667-42.667v-42.667zM512-0h-426.667v768c0 47.128 38.205 85.333 85.333 85.333h341.333c47.128 0 85.333-38.205 85.333-85.333v-170.667h256c47.128 0 85.333-38.205 85.333-85.333v-512h-426.667zM597.333 85.334h256v384c0 23.564-19.103 42.667-42.667 42.667h-170.667c-23.564 0-42.667-19.103-42.667-42.667v-384zM725.333 426.667c23.564 0 42.667-19.103 42.667-42.667s-19.103-42.667-42.667-42.667c-23.564 0-42.667 19.103-42.667 42.667s19.103 42.667 42.667 42.667zM725.333 256c23.564 0 42.667-19.103 42.667-42.667s-19.103-42.667-42.667-42.667c-23.564 0-42.667 19.103-42.667 42.667s19.103 42.667 42.667 42.667zM298.667 682.667h85.333c23.564 0 42.667-19.103 42.667-42.667s-19.103-42.667-42.667-42.667h-85.333c-23.564 0-42.667 19.103-42.667 42.667s19.103 42.667 42.667 42.667zM298.667 512h85.333c23.564 0 42.667-19.103 42.667-42.667s-19.103-42.667-42.667-42.667h-85.333c-23.564 0-42.667 19.103-42.667 42.667s19.103 42.667 42.667 42.667zM298.667 341.334h85.333c23.564 0 42.667-19.103 42.667-42.667s-19.103-42.667-42.667-42.667h-85.333c-23.564 0-42.667 19.103-42.667 42.667s19.103 42.667 42.667 42.667z" />
<glyph unicode="&#xe930;" glyph-name="credit-payment" d="M170.667 768h682.667c70.692 0 128-57.308 128-128v-426.667c0-70.692-57.308-128-128-128h-682.667c-70.692 0-128 57.308-128 128v426.667c0 70.692 57.308 128 128 128zM170.667 682.667c-23.564 0-42.667-19.103-42.667-42.667v-426.667c0-23.564 19.103-42.667 42.667-42.667h682.667c23.564 0 42.667 19.103 42.667 42.667v426.667c0 23.564-19.103 42.667-42.667 42.667h-682.667zM234.667 554.667h128c11.782 0 21.333-9.551 21.333-21.333v-85.333c0-11.782-9.551-21.333-21.333-21.333h-128c-11.782 0-21.333 9.551-21.333 21.333v85.333c0 11.782 9.551 21.333 21.333 21.333zM234.667 341.334h384c11.782 0 21.333-9.551 21.333-21.333v-42.667c0-11.782-9.551-21.333-21.333-21.333h-384c-11.782 0-21.333 9.551-21.333 21.333v42.667c0 11.782 9.551 21.333 21.333 21.333zM704 341.334h85.333c11.782 0 21.333-9.551 21.333-21.333v-42.667c0-11.782-9.551-21.333-21.333-21.333h-85.333c-11.782 0-21.333 9.551-21.333 21.333v42.667c0 11.782 9.551 21.333 21.333 21.333z" />
<glyph unicode="&#xe931;" glyph-name="debit-payment" d="M170.667 768h682.667c70.692 0 128-57.308 128-128v-426.667c0-70.692-57.308-128-128-128h-682.667c-70.692 0-128 57.308-128 128v426.667c0 70.692 57.308 128 128 128zM170.667 682.667c-23.564 0-42.667-19.103-42.667-42.667v-426.667c0-23.564 19.103-42.667 42.667-42.667h682.667c23.564 0 42.667 19.103 42.667 42.667v426.667c0 23.564-19.103 42.667-42.667 42.667h-682.667zM128 597.334h768v-128h-768v128z" />
<glyph unicode="&#xe932;" glyph-name="money" d="M810.667 256c0 47.128 38.205 85.333 85.333 85.333v170.667c-47.128 0-85.333 38.205-85.333 85.333h-597.333c0-47.128-38.205-85.333-85.333-85.333v-170.667c47.128 0 85.333-38.205 85.333-85.333h597.333zM128 682.667h768c47.128 0 85.333-38.205 85.333-85.333v-341.333c0-47.128-38.205-85.333-85.333-85.333h-768c-47.128 0-85.333 38.205-85.333 85.333v341.333c0 47.128 38.205 85.333 85.333 85.333zM725.333 384c-23.564 0-42.667 19.103-42.667 42.667s19.103 42.667 42.667 42.667c23.564 0 42.667-19.103 42.667-42.667s-19.103-42.667-42.667-42.667zM298.667 384c-23.564 0-42.667 19.103-42.667 42.667s19.103 42.667 42.667 42.667c23.564 0 42.667-19.103 42.667-42.667s-19.103-42.667-42.667-42.667zM512 298.667c-47.128 0-85.333 57.308-85.333 128s38.205 128 85.333 128c47.128 0 85.333-57.308 85.333-128s-38.205-128-85.333-128z" />
<glyph unicode="&#xe933;" glyph-name="sale" d="M189.748 89.838c-28.369-14.185-61.748 6.445-61.748 38.162v640c0 23.564 19.103 42.667 42.667 42.667h682.667c23.564 0 42.667-19.103 42.667-42.667v-640c0-31.718-33.379-52.347-61.748-38.162l-63.187 31.593-107.398-71.599c-14.332-9.554-33.003-9.554-47.334 0l-104.333 69.555-104.333-69.555c-14.332-9.554-33.003-9.554-47.334 0l-107.398 71.599-63.187-31.593zM810.667 725.334h-597.333v-528.297l23.586 11.793c13.695 6.847 30.009 5.832 42.748-2.661l104.333-69.555 104.333 69.555c14.332 9.554 33.003 9.554 47.334 0l104.333-69.555 104.333 69.555c12.74 8.493 29.054 9.509 42.748 2.661l23.586-11.793v528.297zM341.333 597.334h341.333c23.564 0 42.667-19.103 42.667-42.667s-19.103-42.667-42.667-42.667h-341.333c-23.564 0-42.667 19.103-42.667 42.667s19.103 42.667 42.667 42.667zM341.333 426.667h170.667c23.564 0 42.667-19.103 42.667-42.667s-19.103-42.667-42.667-42.667h-170.667c-23.564 0-42.667 19.103-42.667 42.667s19.103 42.667 42.667 42.667zM682.667 426.667c23.564 0 42.667-19.103 42.667-42.667s-19.103-42.667-42.667-42.667c-23.564 0-42.667 19.103-42.667 42.667s19.103 42.667 42.667 42.667z" />
<glyph unicode="&#xe934;" glyph-name="star" d="M666.369 597.334h229.631c38.012 0 57.048-45.958 30.17-72.837l-194.687-194.687 76.995-230.984c12.020-36.061-25.559-68.654-59.558-51.655l-236.919 118.459-236.919-118.459c-33.999-16.999-71.579 15.593-59.558 51.655l76.995 230.984-194.687 194.687c-26.879 26.879-7.842 72.837 30.17 72.837h229.631l116.207 232.414c15.724 31.447 60.601 31.447 76.324 0l116.207-232.414zM640 512c-16.161 0-30.935 9.131-38.162 23.586l-89.838 179.676-89.838-179.676c-7.227-14.455-22.001-23.586-38.162-23.586h-152.994l140.497-140.497c11.428-11.428 15.418-28.331 10.307-43.662l-52.76-158.28 163.868 81.934c12.012 6.006 26.15 6.006 38.162 0l163.868-81.934-52.76 158.28c-5.111 15.332-1.12 32.235 10.307 43.662l140.497 140.497h-152.994z" />
<glyph unicode="&#xe935;" glyph-name="stock" d="M469.333 189.568v207.531l-256 96v-207.531l256-96zM554.667 189.568l256 96v207.531l-256-96v-207.531zM128 553.684c-0.015 0.658-0.015 1.318 0 1.979v41.566c0 17.781 11.027 33.698 27.675 39.946l341.333 128.104c9.665 3.628 20.318 3.628 29.984 0l341.333-128.104c16.647-6.248 27.675-22.165 27.675-39.946v-41.566c0.015-0.661 0.015-1.321 0-1.979v-297.683c0-17.785-11.032-33.705-27.685-39.95l-341.333-128c-9.659-3.622-20.303-3.622-29.963 0l-341.333 128c-16.653 6.245-27.685 22.165-27.685 39.95v297.683zM235.411 575.956l276.589-103.721 276.589 103.721-276.589 103.805-276.589-103.805z" />
<glyph unicode="&#xe936;" glyph-name="table" d="M384 469.334c23.564 0 42.667-19.103 42.667-42.667v-256c0-23.564-19.103-42.667-42.667-42.667s-42.667 19.103-42.667 42.667v256c0 23.564 19.103 42.667 42.667 42.667zM853.333 597.334c23.564 0 42.667-19.103 42.667-42.667v-256c0-23.564-19.103-42.667-42.667-42.667s-42.667 19.103-42.667 42.667v256c0 23.564 19.103 42.667 42.667 42.667zM170.667 597.334c23.564 0 42.667-19.103 42.667-42.667v-256c0-23.564-19.103-42.667-42.667-42.667s-42.667 19.103-42.667 42.667v256c0 23.564 19.103 42.667 42.667 42.667zM640 512c23.564 0 42.667-19.103 42.667-42.667v-85.333c0-23.564-19.103-42.667-42.667-42.667s-42.667 19.103-42.667 42.667v85.333c0 23.564 19.103 42.667 42.667 42.667zM134.917 623.691l486.839 139.097c11.615 3.318 24.091 1.558 34.335-4.844l243.885-152.428c19.982-12.489 26.057-38.812 13.568-58.795-5.595-8.952-14.31-15.512-24.46-18.412l-486.839-139.097c-11.615-3.318-24.091-1.558-34.335 4.844l-243.885 152.428c-19.982 12.489-26.057 38.812-13.568 58.795 5.595 8.952 14.31 15.512 24.46 18.412zM250.61 567.998l146.436-91.522 376.344 107.527-146.436 91.522-376.344-107.527z" />
<glyph unicode="&#xe937;" glyph-name="notification" d="M512-0c-47.104 0-85.333 38.229-85.333 85.333h170.667c0-47.104-38.229-85.333-85.333-85.333zM853.333 213.334c23.595 0 42.667-19.072 42.667-42.667s-19.072-42.667-42.667-42.667h-682.667c-23.595 0-42.667 19.072-42.667 42.667s19.072 42.667 42.667 42.667h42.667v256c0 135.040 90.112 249.259 213.333 286.080v12.587c0 46.933 38.4 85.333 85.333 85.333s85.333-38.4 85.333-85.333v-12.587c123.221-36.821 213.333-151.040 213.333-286.080v-256h42.667zM298.667 213.334h426.667v256c0 117.632-95.701 213.333-213.333 213.333s-213.333-95.701-213.333-213.333v-256z" />
<glyph unicode="&#xe938;" glyph-name="ok" d="M798.207 627.583c-16.712 16.557-43.702 16.557-60.414 0l-312.779-311.729-140.965 140.919c-17 14.509-42.341 13.534-58.167-2.239s-16.805-41.029-2.247-57.971l171.386-170.81c16.712-16.557 43.702-16.557 60.414 0l342.772 341.621c16.613 16.656 16.613 43.555 0 60.211z" />
<glyph unicode="&#xe939;" glyph-name="plus" d="M725.333 469.334h-170.667v170.667c0 23.552-19.115 42.667-42.667 42.667s-42.667-19.115-42.667-42.667v-170.667h-170.667c-23.552 0-42.667-19.115-42.667-42.667s19.115-42.667 42.667-42.667h170.667v-170.667c0-23.595 19.115-42.667 42.667-42.667s42.667 19.072 42.667 42.667v170.667h170.667c23.595 0 42.667 19.115 42.667 42.667s-19.072 42.667-42.667 42.667z" />
<glyph unicode="&#xe93a;" glyph-name="search" d="M926.165 72.832c16.683-16.683 16.683-43.648 0-60.331-8.32-8.32-19.243-12.501-30.165-12.501s-21.845 4.181-30.165 12.501l-230.229 230.187c-57.771-44.928-130.176-72.021-208.939-72.021-188.203 0-341.333 153.131-341.333 341.333s153.131 341.333 341.333 341.333c188.203 0 341.333-153.131 341.333-341.333 0-78.763-27.093-151.168-72.021-208.939l230.187-230.229zM170.667 512c0-141.184 114.816-256 256-256s256 114.816 256 256c0 141.184-114.816 256-256 256s-256-114.816-256-256z" />
<glyph unicode="&#xe93b;" glyph-name="settings" d="M929.707 384l-76.373 42.667 76.373 42.667c40.73 23.592 54.666 75.708 31.147 116.48l-85.333 147.627c-10.749 20.145-29.123 35.142-51.013 41.637s-45.47 3.946-65.467-7.077l-76.373-45.653v88.32c0 47.128-38.205 85.333-85.333 85.333h-170.667c-47.128 0-85.333-38.205-85.333-85.333v-88.32l-76.373 45.653c-40.772 23.519-92.888 9.583-116.48-31.147l-85.333-147.627c-12.405-19.872-16.095-43.97-10.205-66.643s20.843-41.928 41.351-53.25l76.373-42.667-76.373-42.667c-40.73-23.592-54.666-75.708-31.147-116.48l85.333-148.053c10.823-20.071 29.229-34.976 51.113-41.389s45.423-3.8 65.367 7.255l76.373 42.667v-85.333c0-47.128 38.205-85.333 85.333-85.333h170.667c47.128 0 85.333 38.205 85.333 85.333v88.32l76.373-42.667c40.772-23.519 92.888-9.583 116.48 31.147l85.333 147.627c11.431 19.619 14.571 42.986 8.726 64.927s-20.195 40.648-39.872 51.98zM801.707 162.134l-142.080 81.92-21.76-14.080-17.493-10.24-23.040-11.947v-165.12h-170.667v164.267l-23.040 11.947-19.627 10.24-21.76 14.080-139.947-82.347-85.333 147.627 142.080 82.347v71.68l-142.080 82.347 85.333 147.627 142.080-81.92 19.627 14.080 17.493 10.24 25.173 11.947v163.84h170.667v-163.84l23.040-11.947 17.493-10.24 21.76-14.080 142.080 81.92 85.333-147.627-142.080-81.92v-71.68l142.080-82.347-85.333-146.773zM512 597.334c-94.257 0-170.667-76.41-170.667-170.667s76.41-170.667 170.667-170.667c94.257 0 170.667 76.41 170.667 170.667 0 45.264-17.981 88.673-49.987 120.68s-75.416 49.987-120.68 49.987zM512 341.334c-47.128 0-85.333 38.205-85.333 85.333s38.205 85.333 85.333 85.333c47.128 0 85.333-38.205 85.333-85.333s-38.205-85.333-85.333-85.333z" />
<glyph unicode="&#xe93c;" glyph-name="share" d="M768.084 342.268c-49.092-0.278-95.681-21.795-127.836-59.041l-216.895 108.67c5.165 23.534 5.165 47.914 0 71.448l216.895 109.098c56.242-63.213 150.489-74.664 220.125-26.745s93.002 140.303 54.573 215.775c-38.429 75.471-126.699 110.554-206.165 81.94s-125.411-112.024-107.309-194.815l-216.895-108.67c-46.607 53.983-121.709 73.218-188.375 48.245s-110.868-88.897-110.868-160.338c0-71.441 44.201-135.366 110.868-160.338s141.769-5.738 188.375 48.245l216.895-109.098c-14.983-70.919 16.167-143.621 77.752-181.47s140.24-32.63 196.329 13.027c56.089 45.656 77.439 121.842 53.291 190.165s-88.553 113.955-160.759 113.902zM768.084 770.101c42.054 0.338 78.066-30.174 84.805-71.852s-17.81-82.062-57.81-95.098c-40-13.036-83.492 5.172-102.418 42.879-6.232 11.885-9.589 25.076-9.801 38.505 0 47.257 38.156 85.567 85.224 85.567zM256.741 342.268c-42.054-0.338-78.066 30.174-84.805 71.852s17.81 82.062 57.81 95.098c40 13.036 83.492-5.172 102.418-42.879 11.773-23.407 11.773-51.036 0-74.443-13.651-29.636-42.91-48.889-75.423-49.629zM768.084 85.568c-47.068 0-85.224 38.31-85.224 85.567 0.075 12.749 2.987 25.32 8.522 36.794 18.163 38.288 61.519 57.442 101.906 45.020s65.617-52.672 59.303-94.605c-6.314-41.933-42.268-72.895-84.507-72.775z" />
<glyph unicode="&#xe93d;" glyph-name="lock-off" d="M384 554.667h341.333c70.571 0 128-57.429 128-128v-298.667c0-70.571-57.429-128-128-128h-426.667c-70.571 0-128 57.429-128 128v298.667c0 70.571 57.429 128 128 128v213.333c0 47.128-38.205 85.333-85.333 85.333s-85.333-38.205-85.333-85.333v-170.667c0-23.564-19.103-42.667-42.667-42.667s-42.667 19.103-42.667 42.667v170.667c0 94.257 76.41 170.667 170.667 170.667s170.667-76.41 170.667-170.667v-213.333zM768 128v298.667c0 23.509-19.115 42.667-42.667 42.667h-426.667c-23.552 0-42.667-19.157-42.667-42.667v-298.667c0-23.552 19.115-42.667 42.667-42.667h426.667c23.552 0 42.667 19.115 42.667 42.667zM512 341.334c23.595 0 42.667-19.072 42.667-42.667v-42.667c0-23.595-19.072-42.667-42.667-42.667s-42.667 19.072-42.667 42.667v42.667c0 23.595 19.072 42.667 42.667 42.667z" />
<glyph unicode="&#xe93e;" glyph-name="social-twitter" d="M512 85.334c-188.513 0-341.333 152.82-341.333 341.333s152.82 341.333 341.333 341.333c188.513 0 341.333-152.82 341.333-341.333s-152.82-341.333-341.333-341.333zM449.536 246.614c151.381 0 234.155 125.44 234.155 234.155 0 3.584 0 7.168-0.171 10.581 16.043 11.605 30.037 26.112 41.131 42.667-14.677-6.485-30.549-10.923-47.275-12.971 17.067 10.24 30.037 26.283 36.181 45.568-15.872-9.387-33.451-16.213-52.224-19.968-15.019 16.043-36.352 25.941-60.075 25.941-45.397 0-82.261-36.864-82.261-82.261 0-6.485 0.683-12.8 2.219-18.773-68.437 3.413-129.024 36.181-169.643 86.016-6.997-12.117-11.093-26.283-11.093-41.301 0-28.501 14.507-53.76 36.693-68.437-13.483 0.341-26.112 4.096-37.205 10.24 0-0.341 0-0.683 0-1.024 0-39.936 28.331-73.045 66.048-80.725-6.827-1.877-14.165-2.901-21.675-2.901-5.291 0-10.411 0.512-15.531 1.536 10.411-32.768 40.789-56.491 76.8-57.173-28.16-22.016-63.659-35.157-102.229-35.157-6.656 0-13.141 0.341-19.627 1.195 36.011-23.552 79.36-37.205 125.781-37.205z" />
<glyph unicode="&#xe93f;" glyph-name="align-center" d="M213.333 640h597.333c23.564 0 42.667 19.103 42.667 42.667s-19.103 42.667-42.667 42.667h-597.333c-23.564 0-42.667-19.103-42.667-42.667s19.103-42.667 42.667-42.667zM384 469.334h256c23.564 0 42.667 19.103 42.667 42.667s-19.103 42.667-42.667 42.667h-256c-23.564 0-42.667-19.103-42.667-42.667s19.103-42.667 42.667-42.667zM213.333 298.667h597.333c23.564 0 42.667 19.103 42.667 42.667s-19.103 42.667-42.667 42.667h-597.333c-23.564 0-42.667-19.103-42.667-42.667s19.103-42.667 42.667-42.667zM384 128h256c23.564 0 42.667 19.103 42.667 42.667s-19.103 42.667-42.667 42.667h-256c-23.564 0-42.667-19.103-42.667-42.667s19.103-42.667 42.667-42.667z" />
<glyph unicode="&#xe940;" glyph-name="align-justify" d="M213.333 640h597.333c23.564 0 42.667 19.103 42.667 42.667s-19.103 42.667-42.667 42.667h-597.333c-23.564 0-42.667-19.103-42.667-42.667s19.103-42.667 42.667-42.667zM213.333 469.334h597.333c23.564 0 42.667 19.103 42.667 42.667s-19.103 42.667-42.667 42.667h-597.333c-23.564 0-42.667-19.103-42.667-42.667s19.103-42.667 42.667-42.667zM213.333 298.667h597.333c23.564 0 42.667 19.103 42.667 42.667s-19.103 42.667-42.667 42.667h-597.333c-23.564 0-42.667-19.103-42.667-42.667s19.103-42.667 42.667-42.667zM213.333 128h597.333c23.564 0 42.667 19.103 42.667 42.667s-19.103 42.667-42.667 42.667h-597.333c-23.564 0-42.667-19.103-42.667-42.667s19.103-42.667 42.667-42.667z" />
<glyph unicode="&#xe941;" glyph-name="align-left" d="M213.333 640h597.333c23.564 0 42.667 19.103 42.667 42.667s-19.103 42.667-42.667 42.667h-597.333c-23.564 0-42.667-19.103-42.667-42.667s19.103-42.667 42.667-42.667zM554.667 469.334h256c23.564 0 42.667 19.103 42.667 42.667s-19.103 42.667-42.667 42.667h-256c-23.564 0-42.667-19.103-42.667-42.667s19.103-42.667 42.667-42.667zM213.333 298.667h597.333c23.564 0 42.667 19.103 42.667 42.667s-19.103 42.667-42.667 42.667h-597.333c-23.564 0-42.667-19.103-42.667-42.667s19.103-42.667 42.667-42.667zM554.667 128h256c23.564 0 42.667 19.103 42.667 42.667s-19.103 42.667-42.667 42.667h-256c-23.564 0-42.667-19.103-42.667-42.667s19.103-42.667 42.667-42.667z" />
<glyph unicode="&#xe942;" glyph-name="align-right" d="M213.333 640h597.333c23.564 0 42.667 19.103 42.667 42.667s-19.103 42.667-42.667 42.667h-597.333c-23.564 0-42.667-19.103-42.667-42.667s19.103-42.667 42.667-42.667zM213.333 469.334h256c23.564 0 42.667 19.103 42.667 42.667s-19.103 42.667-42.667 42.667h-256c-23.564 0-42.667-19.103-42.667-42.667s19.103-42.667 42.667-42.667zM213.333 298.667h597.333c23.564 0 42.667 19.103 42.667 42.667s-19.103 42.667-42.667 42.667h-597.333c-23.564 0-42.667-19.103-42.667-42.667s19.103-42.667 42.667-42.667zM213.333 128h256c23.564 0 42.667 19.103 42.667 42.667s-19.103 42.667-42.667 42.667h-256c-23.564 0-42.667-19.103-42.667-42.667s19.103-42.667 42.667-42.667z" />
<glyph unicode="&#xe943;" glyph-name="archive" d="M853.333 519.284v-348.617c0-70.692-57.308-128-128-128h-426.667c-70.692 0-128 57.308-128 128v348.617c-49.715 17.572-85.333 64.985-85.333 120.717v42.667c0 70.692 57.308 128 128 128h597.333c70.692 0 128-57.308 128-128v-42.667c0-55.732-35.618-103.145-85.333-120.717zM768 512h-512v-341.333c0-23.564 19.103-42.667 42.667-42.667h426.667c23.564 0 42.667 19.103 42.667 42.667v341.333zM469.333 341.334c-23.564 0-42.667 19.103-42.667 42.667s19.103 42.667 42.667 42.667h85.333c23.564 0 42.667-19.103 42.667-42.667s-19.103-42.667-42.667-42.667h-85.333zM213.333 725.334c-23.564 0-42.667-19.103-42.667-42.667v-42.667c0-23.564 19.103-42.667 42.667-42.667h597.333c23.564 0 42.667 19.103 42.667 42.667v42.667c0 23.564-19.103 42.667-42.667 42.667h-597.333z" />
<glyph unicode="&#xe944;" glyph-name="bluetooth" d="M703.238 282.532c17.662-17.695 17.662-44.712-0.007-62.381l-185.776-185.776c-9.005-9.039-18.537-13.273-31.195-13.273-3.513 0-5.694 0.099-8.501 0.566-3.779 0.628-7.159 1.796-10.053 3.832-16.366 5.354-25.885 21.685-25.885 40.043v264.779l-110.177-110.177c-17.703-17.67-44.726-17.68-62.388 0.014s-17.662 44.712 0.007 62.381l154.609 154.609-154.616 154.616c-17.67 17.703-17.68 44.726 0.014 62.388s44.712 17.662 62.381-0.007l110.17-110.17v264.779c0 19.262 10.48 36.293 26.18 39.951 17.299 8.617 35.775 4.922 49.467-8.77l185.798-185.798c17.662-17.695 17.662-44.712-0.007-62.381l-154.622-154.622 154.604-154.604zM530.699 544.001l78.963 78.963-78.963 78.963v-157.926zM609.662 251.358l-78.963 78.963v-157.926l78.963 78.963z" />
<glyph unicode="&#xe945;" glyph-name="calendar-ok" d="M768 810.667v-42.667c70.571 0 128-57.429 128-128v-512c0-70.571-57.429-128-128-128h-512c-70.571 0-128 57.429-128 128v512c0 70.571 57.429 128 128 128v42.667c0 23.467 19.2 42.667 42.667 42.667s42.667-19.2 42.667-42.667v-42.667h341.333v42.667c0 23.467 19.2 42.667 42.667 42.667s42.667-19.2 42.667-42.667zM810.667 128v384h-597.333v-384c0-23.552 19.115-42.667 42.667-42.667h512c23.552 0 42.667 19.115 42.667 42.667zM810.667 597.334v42.667c0 23.509-19.115 42.667-42.667 42.667h-512c-23.552 0-42.667-19.157-42.667-42.667v-42.667h597.333zM455.111 234.889l195.666 220.124c15.655 17.612 42.624 19.198 60.236 3.543s19.198-42.624 3.543-60.236l-227.556-256c-16.972-19.094-46.807-19.094-63.779 0l-113.778 128c-15.655 17.612-14.069 44.58 3.543 60.236s44.58 14.069 60.236-3.543l81.888-92.124z" />
<glyph unicode="&#xe946;" glyph-name="change" d="M622.327 597.334h-366.327c-47.128 0-85.333-38.205-85.333-85.333v-213.333c0-23.564-19.103-42.667-42.667-42.667s-42.667 19.103-42.667 42.667v213.333c0 94.257 76.41 170.667 170.667 170.667h366.327l-55.163 55.163c-16.662 16.662-16.662 43.677 0 60.34s43.677 16.662 60.34 0l128-128c16.662-16.662 16.662-43.677 0-60.34l-128-128c-16.662-16.662-43.677-16.662-60.34 0s-16.662 43.677 0 60.34l55.163 55.163zM401.673 256h366.327c47.128 0 85.333 38.205 85.333 85.333v213.333c0 23.564 19.103 42.667 42.667 42.667s42.667-19.103 42.667-42.667v-213.333c0-94.257-76.41-170.667-170.667-170.667h-366.327l55.163-55.163c16.662-16.662 16.662-43.677 0-60.34s-43.677-16.662-60.34 0l-128 128c-16.662 16.662-16.662 43.677 0 60.34l128 128c16.662 16.662 43.677 16.662 60.34 0s16.662-43.677 0-60.34l-55.163-55.163z" />
<glyph unicode="&#xe947;" glyph-name="chart-area" d="M640 529.673l140.497 140.497c26.879 26.879 72.837 7.842 72.837-30.17v-341.333c0-23.564-19.103-42.667-42.667-42.667h-512c-38.012 0-57.048 45.958-30.17 72.837l256 256c16.662 16.662 43.677 16.662 60.34 0l55.163-55.163zM401.673 341.334h366.327v195.66l-97.83-97.83c-16.662-16.662-43.677-16.662-60.34 0l-55.163 55.163-152.994-152.994zM170.667 170.667h725.333c23.564 0 42.667-19.103 42.667-42.667s-19.103-42.667-42.667-42.667h-768c-23.564 0-42.667 19.103-42.667 42.667v597.333c0 23.564 19.103 42.667 42.667 42.667s42.667-19.103 42.667-42.667v-554.667z" />
<glyph unicode="&#xe948;" glyph-name="chart-columns" d="M170.667 170.667h725.333c23.564 0 42.667-19.103 42.667-42.667s-19.103-42.667-42.667-42.667h-768c-23.564 0-42.667 19.103-42.667 42.667v597.333c0 23.564 19.103 42.667 42.667 42.667s42.667-19.103 42.667-42.667v-554.667zM341.333 298.667c0-23.564-19.103-42.667-42.667-42.667s-42.667 19.103-42.667 42.667v85.333c0 23.564 19.103 42.667 42.667 42.667s42.667-19.103 42.667-42.667v-85.333zM512 298.667c0-23.564-19.103-42.667-42.667-42.667s-42.667 19.103-42.667 42.667v170.667c0 23.564 19.103 42.667 42.667 42.667s42.667-19.103 42.667-42.667v-170.667zM682.667 298.667c0-23.564-19.103-42.667-42.667-42.667s-42.667 19.103-42.667 42.667v256c0 23.564 19.103 42.667 42.667 42.667s42.667-19.103 42.667-42.667v-256zM853.333 298.667c0-23.564-19.103-42.667-42.667-42.667s-42.667 19.103-42.667 42.667v341.333c0 23.564 19.103 42.667 42.667 42.667s42.667-19.103 42.667-42.667v-341.333z" />
<glyph unicode="&#xe949;" glyph-name="clear-content" d="M512 487.007l-97.83 97.83c-16.662 16.662-43.677 16.662-60.34 0s-16.662-43.677 0-60.34l97.83-97.83-97.83-97.83c-16.662-16.662-16.662-43.677 0-60.34s43.677-16.662 60.34 0l97.83 97.83 97.83-97.83c16.662-16.662 43.677-16.662 60.34 0s16.662 43.677 0 60.34l-97.83 97.83 97.83 97.83c16.662 16.662 16.662 43.677 0 60.34s-43.677 16.662-60.34 0l-97.83-97.83zM512 85.334c-188.513 0-341.333 152.82-341.333 341.333s152.82 341.333 341.333 341.333c188.513 0 341.333-152.82 341.333-341.333s-152.82-341.333-341.333-341.333z" />
<glyph unicode="&#xe94a;" glyph-name="cut" d="M725.333 170.667v-42.667c0-70.692-57.308-128-128-128h-341.333c-70.692 0-128 57.308-128 128v426.667c0 70.692 57.308 128 128 128h42.667v42.667c0 70.692 57.308 128 128 128h128v-85.333h-128c-23.564 0-42.667-19.103-42.667-42.667v-42.667h213.333c70.692 0 128-57.308 128-128v-298.667h42.667c23.564 0 42.667 19.103 42.667 42.667v170.667h85.333v-170.667c0-70.692-57.308-128-128-128h-42.667zM256 597.334c-23.564 0-42.667-19.103-42.667-42.667v-426.667c0-23.564 19.103-42.667 42.667-42.667h341.333c23.564 0 42.667 19.103 42.667 42.667v426.667c0 23.564-19.103 42.667-42.667 42.667h-341.333zM640 853.334h128c70.692 0 128-57.308 128-128v-170.667h-85.333v170.667c0 23.564-19.103 42.667-42.667 42.667h-128v85.333z" />
<glyph unicode="&#xe94b;" glyph-name="database" d="M853.333 696.747v-540.444c0-62.838-152.82-113.778-341.333-113.778s-341.333 50.94-341.333 113.778v540.444c0 0.047 0 0.095 0 0.142 0 62.838 152.82 113.778 341.333 113.778s341.333-50.94 341.333-113.778c0-0.047 0-0.095 0-0.142zM256 640v-85.333c0-47.128 114.615-85.333 256-85.333s256 38.205 256 85.333v85.333c0 47.128-114.615 85.333-256 85.333s-256-38.205-256-85.333zM768 469.334c0-47.128-114.615-85.333-256-85.333s-256 38.205-256 85.333v-85.333c0-47.128 114.615-85.333 256-85.333s256 38.205 256 85.333v85.333zM768 298.667c0-47.128-114.615-85.333-256-85.333s-256 38.205-256 85.333v-85.333c0-47.128 114.615-85.333 256-85.333s256 38.205 256 85.333v85.333z" />
<glyph unicode="&#xe94c;" glyph-name="device-desktop" d="M554.667 170.667v-85.333h128c23.564 0 42.667-19.103 42.667-42.667s-19.103-42.667-42.667-42.667h-341.333c-23.564 0-42.667 19.103-42.667 42.667s19.103 42.667 42.667 42.667h128v85.333h-298.667c-70.692 0-128 57.308-128 128v426.667c0 70.692 57.308 128 128 128h682.667c70.692 0 128-57.308 128-128v-426.667c0-70.692-57.308-128-128-128h-298.667zM170.667 768c-23.564 0-42.667-19.103-42.667-42.667v-426.667c0-23.564 19.103-42.667 42.667-42.667h682.667c23.564 0 42.667 19.103 42.667 42.667v426.667c0 23.564-19.103 42.667-42.667 42.667h-682.667z" />
<glyph unicode="&#xe94d;" glyph-name="device-notebook" d="M256 768h512c70.692 0 128-57.308 128-128v-256c0-70.692-57.308-128-128-128h-512c-70.692 0-128 57.308-128 128v256c0 70.692 57.308 128 128 128zM256 682.667c-23.564 0-42.667-19.103-42.667-42.667v-256c0-23.564 19.103-42.667 42.667-42.667h512c23.564 0 42.667 19.103 42.667 42.667v256c0 23.564-19.103 42.667-42.667 42.667h-512zM170.667 170.667h682.667c23.564 0 42.667-19.103 42.667-42.667s-19.103-42.667-42.667-42.667h-682.667c-23.564 0-42.667 19.103-42.667 42.667s19.103 42.667 42.667 42.667z" />
<glyph unicode="&#xe94e;" glyph-name="device-smartphone" d="M384 810.667h256c70.692 0 128-57.308 128-128v-512c0-70.692-57.308-128-128-128h-256c-70.692 0-128 57.308-128 128v512c0 70.692 57.308 128 128 128zM384 725.334c-23.564 0-42.667-19.103-42.667-42.667v-512c0-23.564 19.103-42.667 42.667-42.667h256c23.564 0 42.667 19.103 42.667 42.667v512c0 23.564-19.103 42.667-42.667 42.667h-256zM512 213.334c-23.564 0-42.667 19.103-42.667 42.667s19.103 42.667 42.667 42.667c23.564 0 42.667-19.103 42.667-42.667s-19.103-42.667-42.667-42.667z" />
<glyph unicode="&#xe94f;" glyph-name="device-tablet" d="M298.667 896h426.667c70.692 0 128-57.308 128-128v-682.667c0-70.692-57.308-128-128-128h-426.667c-70.692 0-128 57.308-128 128v682.667c0 70.692 57.308 128 128 128zM298.667 810.667c-23.564 0-42.667-19.103-42.667-42.667v-682.667c0-23.564 19.103-42.667 42.667-42.667h426.667c23.564 0 42.667 19.103 42.667 42.667v682.667c0 23.564-19.103 42.667-42.667 42.667h-426.667zM512 128c-23.564 0-42.667 19.103-42.667 42.667s19.103 42.667 42.667 42.667c23.564 0 42.667-19.103 42.667-42.667s-19.103-42.667-42.667-42.667z" />
<glyph unicode="&#xe950;" glyph-name="document-double" d="M554.667 426.667c0 23.564 19.103 42.667 42.667 42.667s42.667-19.103 42.667-42.667v-298.667c0-70.692-57.308-128-128-128h-256c-70.692 0-128 57.308-128 128v384c0 70.692 57.308 128 128 128h170.667c23.564 0 42.667-19.103 42.667-42.667s-19.103-42.667-42.667-42.667h-170.667c-23.564 0-42.667-19.103-42.667-42.667v-384c0-23.564 19.103-42.667 42.667-42.667h256c23.564 0 42.667 19.103 42.667 42.667v298.667zM456.837 627.504l170.667-170.667c26.878-26.879 7.842-72.837-30.17-72.837h-170.667c-23.564 0-42.667 19.103-42.667 42.667v170.667c0 38.012 45.958 57.048 72.837 30.17zM469.333 512v-42.667h42.667l-42.667 42.667zM554.667 213.334h42.667v85.333h170.667c23.564 0 42.667 19.103 42.667 42.667v298.667c0 23.564 19.103 42.667 42.667 42.667s42.667-19.103 42.667-42.667v-298.667c0-70.692-57.308-128-128-128h-213.333zM384 597.334v128c0 70.692 57.308 128 128 128h170.667c23.564 0 42.667-19.103 42.667-42.667s-19.103-42.667-42.667-42.667h-170.667c-23.564 0-42.667-19.103-42.667-42.667v-128h-85.333zM712.837 840.837l170.667-170.667c26.878-26.879 7.842-72.837-30.17-72.837h-170.667c-23.564 0-42.667 19.103-42.667 42.667v170.667c0 38.012 45.958 57.048 72.837 30.17zM725.333 725.334v-42.667h42.667l-42.667 42.667z" />
<glyph unicode="&#xe951;" glyph-name="document-filled" d="M853.333 599.894c0-2.56 0-2.56 0-2.56v-469.333c0-70.692-57.308-128-128-128h-426.667c-70.692 0-128 57.308-128 128v597.333c0 70.692 57.308 128 128 128h301.227c4.466-0.734 8.787-2.175 12.8-4.267h4.267c4.597-2.090 8.786-4.979 12.373-8.533l213.333-213.333c3.554-3.587 6.443-7.776 8.533-12.373v-3.84c1.2-3.587 1.917-7.317 2.133-11.093zM725.333 85.334c23.564 0 42.667 19.103 42.667 42.667v426.667h-170.667c-23.564 0-42.667 19.103-42.667 42.667v170.667h-256c-23.564 0-42.667-19.103-42.667-42.667v-597.333c0-23.564 19.103-42.667 42.667-42.667h426.667zM707.84 640l-67.84 67.84v-67.84h67.84zM384 469.334h256c23.564 0 42.667-19.103 42.667-42.667s-19.103-42.667-42.667-42.667h-256c-23.564 0-42.667 19.103-42.667 42.667s19.103 42.667 42.667 42.667zM384 298.667h128c23.564 0 42.667-19.103 42.667-42.667s-19.103-42.667-42.667-42.667h-128c-23.564 0-42.667 19.103-42.667 42.667s19.103 42.667 42.667 42.667zM640 298.667c23.564 0 42.667-19.103 42.667-42.667s-19.103-42.667-42.667-42.667c-23.564 0-42.667 19.103-42.667 42.667s19.103 42.667 42.667 42.667z" />
<glyph unicode="&#xe952;" glyph-name="download" d="M725.333-0c-23.564 0-42.667 19.103-42.667 42.667s19.103 42.667 42.667 42.667c23.564 0 42.667 19.103 42.667 42.667v426.667h-170.667c-23.564 0-42.667 19.103-42.667 42.667v170.667h-256c-23.564 0-42.667-19.103-42.667-42.667v-597.333c0-23.564 19.103-42.667 42.667-42.667s42.667-19.103 42.667-42.667c0-23.564-19.103-42.667-42.667-42.667-70.692 0-128 57.308-128 128v597.333c0 70.692 57.308 128 128 128h301.227c4.466-0.734 8.787-2.175 12.8-4.267h4.267c4.597-2.090 8.786-4.979 12.373-8.533l213.333-213.333c3.554-3.587 6.443-7.776 8.533-12.373v-3.84c1.2-3.587 1.917-7.317 2.133-13.653v-469.333c0-70.692-57.308-128-128-128zM707.84 640l-67.84 67.84v-67.84h67.84zM554.667 145.673l55.163 55.163c16.662 16.662 43.677 16.662 60.34 0s16.662-43.677 0-60.34l-128-128c-16.662-16.662-43.677-16.662-60.34 0l-128 128c-16.662 16.662-16.662 43.677 0 60.34s43.677 16.662 60.34 0l55.163-55.163v280.994c0 23.564 19.103 42.667 42.667 42.667s42.667-19.103 42.667-42.667v-280.994z" />
<glyph unicode="&#xe953;" glyph-name="exam" d="M389.218 384h245.634l-72.473 103.532c-5.020 7.172-7.713 15.714-7.713 24.468v213.333h-85.333v-213.466c0-8.756-2.694-17.3-7.716-24.473l-72.399-103.394zM330.448 300.068l-120.485-172.068h604.089l-120.456 172.079c-3.488-0.922-7.152-1.413-10.93-1.413h-341.333c-3.762 0-7.411 0.487-10.886 1.401zM384 725.334c-23.564 0-42.667 19.103-42.667 42.667s19.103 42.667 42.667 42.667h256c23.564 0 42.667-19.103 42.667-42.667s-19.103-42.667-42.667-42.667v-199.884l290.954-415.648c19.795-28.279-0.436-67.134-34.954-67.134h-768c-34.521 0-54.751 38.862-34.95 67.14l290.95 415.514v200.013z" />
<glyph unicode="&#xe954;" glyph-name="exclamation" d="M42.667 426.667c0 258.773 210.56 469.333 469.333 469.333s469.333-210.56 469.333-469.333c0-258.773-210.56-469.333-469.333-469.333s-469.333 210.56-469.333 469.333zM128 426.667c0-211.755 172.245-384 384-384s384 172.245 384 384c0 211.712-172.245 384-384 384s-384-172.288-384-384zM469.333 170.667c0 23.595 19.072 42.667 42.667 42.667s42.667-19.072 42.667-42.667c0-23.595-19.072-42.667-42.667-42.667s-42.667 19.072-42.667 42.667zM512 682.667c23.564 0 42.667-19.103 42.667-42.667v-341.333c0-23.564-19.103-42.667-42.667-42.667s-42.667 19.103-42.667 42.667v341.333c0 23.564 19.103 42.667 42.667 42.667z" />
<glyph unicode="&#xe955;" glyph-name="eye" d="M1020.793 443.734c-8.551 17.067-188.125 366.933-508.793 366.933s-500.242-349.867-508.793-366.933c-4.276-12.8-4.276-25.6 0-38.4 8.551-12.8 188.125-362.667 508.793-362.667s500.242 349.867 508.793 366.933c4.276 8.533 4.276 25.6 0 34.133zM512 128c-230.881 0-380.526 230.4-423.282 298.667 38.48 68.267 192.401 298.667 423.282 298.667s380.526-230.4 423.282-298.667c-42.756-68.267-192.401-298.667-423.282-298.667zM512 597.334c-94.063 0-171.023-76.8-171.023-170.667s76.96-170.667 171.023-170.667c94.063 0 171.023 76.8 171.023 170.667s-76.96 170.667-171.023 170.667zM512 341.334c-47.031 0-85.511 38.4-85.511 85.333s38.48 85.333 85.511 85.333c47.031 0 85.511-38.4 85.511-85.333s-38.48-85.333-85.511-85.333z" />
<glyph unicode="&#xe956;" glyph-name="finance-bitcoin" d="M554.667 170.667v-42.667c0-23.564-19.103-42.667-42.667-42.667s-42.667 19.103-42.667 42.667v42.667h-85.333c-23.564 0-42.667 19.103-42.667 42.667v426.667c0 23.564 19.103 42.667 42.667 42.667h85.333v42.667c0 23.564 19.103 42.667 42.667 42.667s42.667-19.103 42.667-42.667v-44.179c72.369-10.352 128-72.59 128-147.821 0-32.28-10.242-62.168-27.654-86.592 42.228-26.381 70.321-73.281 70.321-126.742 0-82.475-66.859-149.333-149.333-149.333h-21.333zM512 896c258.773 0 469.333-210.56 469.333-469.333s-210.56-469.333-469.333-469.333c-258.773 0-469.333 210.56-469.333 469.333s210.56 469.333 469.333 469.333zM512 42.667c211.755 0 384 172.245 384 384 0 211.712-172.245 384-384 384s-384-172.288-384-384c0-211.755 172.245-384 384-384zM469.333 597.334c-23.564 0-42.667-19.103-42.667-42.667v-42.667c0-23.564 19.103-42.667 42.667-42.667h64c35.346 0 64 28.654 64 64s-28.654 64-64 64h-64zM469.333 384c-23.564 0-42.667-19.103-42.667-42.667v-42.667c0-23.564 19.103-42.667 42.667-42.667h106.667c35.346 0 64 28.654 64 64s-28.654 64-64 64h-106.667z" />
<glyph unicode="&#xe957;" glyph-name="finance-secure" d="M512 298.667h-21.333c-82.475 0-149.333 66.859-149.333 149.333 0 75.231 55.631 137.469 128 147.821v44.179c0 23.564 19.103 42.667 42.667 42.667s42.667-19.103 42.667-42.667v-42.667h85.333c23.564 0 42.667-19.103 42.667-42.667s-19.103-42.667-42.667-42.667h-149.333c-35.346 0-64-28.654-64-64s28.654-64 64-64h85.333c82.475 0 149.333-66.859 149.333-149.333s-66.859-149.333-149.333-149.333h-21.333v-42.667c0-23.564-19.103-42.667-42.667-42.667s-42.667 19.103-42.667 42.667v42.667h-85.333c-23.564 0-42.667 19.103-42.667 42.667s19.103 42.667 42.667 42.667h192c35.346 0 64 28.654 64 64s-28.654 64-64 64h-64zM512 762.964l-322.252-161.126c-21.076-10.538-46.705-1.995-57.243 19.081s-1.995 46.705 19.081 57.243l341.333 170.667c12.012 6.006 26.15 6.006 38.162 0l341.333-170.667c21.076-10.538 29.619-36.167 19.081-57.243s-36.167-29.619-57.243-19.081l-322.252 161.126z" />
<glyph unicode="&#xe958;" glyph-name="folder" d="M507.725 705.939h275.566c64.068 0 113.262-49.194 113.262-113.262v-384.013c0-64.068-49.194-113.262-113.262-113.262h-542.030c-64.068 0-113.262 49.194-113.262 113.262v488.742c0 64.068 49.194 113.262 113.262 113.262h174.556c11.972 0 24.146-6.631 35.078-17.818l56.829-86.91zM393.765 723.799h-152.477c-16.233 0-26.367-10.135-26.367-26.367v-499.91c0-16.233 10.135-26.367 26.367-26.367h542.182c16.233 0 26.367 10.135 26.367 26.367l0.026 395.181c0 16.233-10.135 26.367-26.367 26.367h-297.825c-11.972 0-24.146 6.631-35.078 17.818l-56.829 86.91z" />
<glyph unicode="&#xe959;" glyph-name="gift" d="M702.253 682.667h151.081c47.128 0 85.333-38.205 85.333-85.333v-170.667c0-47.128-38.205-85.333-85.333-85.333v-256c0-47.128-38.205-85.333-85.333-85.333h-512c-47.128 0-85.333 38.205-85.333 85.333v256c-47.128 0-85.333 38.205-85.333 85.333v170.667c0 47.128 38.205 85.333 85.333 85.333h151.079c-31.216 44.022-31.574 97.252 3.328 137.691l2.131 2.293 4.412 4.249c19.655 16.963 44.421 26.434 70.027 26.434 34.199 0 65.929-16.339 91.985-44.586 6.707-7.265 12.826-15.018 18.371-23.237 5.543 8.215 11.659 15.964 18.362 23.225 26.067 28.259 57.797 44.598 91.996 44.598 25.606 0 50.372-9.47 72.32-28.564l2.119-2.119 2.131-2.293c34.901-40.438 34.544-93.665 3.327-137.691zM511.112 597.334h-340.445v-170.667h682.667v170.667h-340.445c-0.595-0.010-1.187-0.011-1.777 0zM554.667 341.334h-85.333v-256h85.333v256zM640 341.334v-256h128v256h-128zM384 341.334h-128v-256h128v256zM401.098 721.085c15.164-13.985 35.246-24.152 60.225-30.398-6.242 24.955-16.412 45.029-30.408 60.191-11.006 11.932-21.086 17.122-29.272 17.122-4.85 0-9.908-1.934-11.981-3.571l-0.767-0.767c-8.781-11.081-6.492-25.324 12.203-42.577zM622.357 768c-8.186 0-18.266-5.19-29.283-17.134-13.988-15.153-24.156-35.224-30.397-60.179 24.978 6.245 45.059 16.41 60.216 30.389 18.512 17.084 20.944 31.212 12.478 42.244-4.063 3.095-8.624 4.68-13.014 4.68z" />
<glyph unicode="&#xe95a;" glyph-name="grid" d="M170.667 810.667h256c23.564 0 42.667-19.103 42.667-42.667v-256c0-23.564-19.103-42.667-42.667-42.667h-256c-23.564 0-42.667 19.103-42.667 42.667v256c0 23.564 19.103 42.667 42.667 42.667zM213.333 725.334v-170.667h170.667v170.667h-170.667zM597.333 810.667h256c23.564 0 42.667-19.103 42.667-42.667v-256c0-23.564-19.103-42.667-42.667-42.667h-256c-23.564 0-42.667 19.103-42.667 42.667v256c0 23.564 19.103 42.667 42.667 42.667zM640 725.334v-170.667h170.667v170.667h-170.667zM170.667 384h256c23.564 0 42.667-19.103 42.667-42.667v-256c0-23.564-19.103-42.667-42.667-42.667h-256c-23.564 0-42.667 19.103-42.667 42.667v256c0 23.564 19.103 42.667 42.667 42.667zM213.333 298.667v-170.667h170.667v170.667h-170.667zM597.333 384h256c23.564 0 42.667-19.103 42.667-42.667v-256c0-23.564-19.103-42.667-42.667-42.667h-256c-23.564 0-42.667 19.103-42.667 42.667v256c0 23.564 19.103 42.667 42.667 42.667zM640 298.667v-170.667h170.667v170.667h-170.667z" />
<glyph unicode="&#xe95b;" glyph-name="hdd" d="M902.054 516.29c12.911-13.164 23.001-29.106 29.29-46.846l0.069-0.111c4.687-13.345 7.253-27.706 7.253-42.667v-170.667c0-70.692-57.308-128-128-128h-597.333c-70.692 0-128 57.308-128 128v170.667c0 14.96 2.567 29.321 7.283 42.667l0.039 0.111c6.289 17.74 16.378 33.682 29.29 46.846l93.1 148.902c23.393 37.414 64.407 60.141 108.532 60.141h376.845c44.125 0 85.139-22.727 108.532-60.141l93.1-148.902zM213.333 469.334c-23.564 0-42.667-19.103-42.667-42.667v-170.667c0-23.564 19.103-42.667 42.667-42.667h597.333c23.564 0 42.667 19.103 42.667 42.667v170.667c0 23.564-19.103 42.667-42.667 42.667h-597.333zM736.6 619.953c-7.798 12.471-21.469 20.047-36.177 20.047h-376.845c-14.708 0-28.38-7.576-36.177-20.047l-40.82-65.286h530.839l-40.82 65.286zM554.667 298.667c-23.564 0-42.667 19.103-42.667 42.667s19.103 42.667 42.667 42.667c23.564 0 42.667-19.103 42.667-42.667s-19.103-42.667-42.667-42.667zM725.333 298.667c-23.564 0-42.667 19.103-42.667 42.667s19.103 42.667 42.667 42.667c23.564 0 42.667-19.103 42.667-42.667s-19.103-42.667-42.667-42.667z" />
<glyph unicode="&#xe95c;" glyph-name="injector" d="M701.833 850.899c4.917 2.085 6.667 2.418 14.25 2.418 10 0.083 15.75-1.501 23.417-6.421 6.167-3.919 187.917-185.71 192-191.965 5.167-8.005 7.167-14.927 7.167-25.017 0-11.591-2.583-18.513-9.417-25.684-15.75-16.428-34.25-20.848-51.167-12.175-5.417 2.835-9.25 6.338-38.333 35.524-17.75 17.762-32.75 32.355-33.167 32.355-0.5 0-14-13.092-30-29.187l-29.167-29.187 55.833-56.038c46.75-47.032 56.25-56.872 58.083-60.708 3.083-6.421 3.833-8.839 4.833-15.010 1.167-7.005-0.583-16.595-4.333-24.1-5.083-10.007-16.25-19.18-28-23.016-3.25-1.001-6.5-1.334-12.5-1.084-7.5 0.25-8.667 0.5-14.833 3.502-5.583 2.752-8.333 5.003-17.917 14.427-6.167 6.087-11.667 11.091-12.083 11.091s-76.333-75.635-168.667-168.115c-111-111.159-170.333-169.866-174.917-173.369-15.917-12.092-39.167-21.014-61.417-23.683-12.917-1.584-22-1.167-37 1.668-18.833 3.586-41.417 14.843-57.833 28.77-3.167 2.752-6.25 5.254-6.833 5.754-0.917 0.584-14.583-12.592-58-55.955-37-36.942-58.25-57.456-60.667-58.79-10.75-5.921-20.417-7.922-29.5-6.171-10.25 2.001-16.833 5.003-22.833 10.757-9.5 8.923-13.5 18.096-13.5 31.105 0 7.338 0.333 9.090 2.5 14.343 1.333 3.252 3.25 7.172 4.25 8.673s27.5 28.436 58.917 59.958l57.083 57.206-6.833 7.672c-10.167 11.258-15.417 19.847-23.417 37.943-1 2.168-3.75 12.175-4.917 17.512-2.083 9.923-2.583 14.677-2.583 24.6 0 30.771 10.083 58.707 30.083 82.973 2.667 3.252 79.25 80.305 170.25 171.367s165.5 165.863 165.5 166.28c0 0.417-4.917 5.754-10.833 11.841-9.25 9.423-11.333 12.008-13.667 17.178-1.5 3.336-3.25 8.673-3.917 11.758-2 10.507 1.583 23.433 9.167 32.522 15.25 18.262 37.417 22.015 56.75 9.506 2.083-1.334 28.417-27.102 58.5-57.206l54.833-54.704 29.167 29.187c16 16.011 29.167 29.52 29.167 30.021 0 0.417-8.667 9.506-19.25 20.014-39.583 39.36-45.167 45.364-47.917 51.285-7.917 16.761-5.25 33.273 7.667 47.532 4.083 4.503 9.083 7.922 16 10.841zM652.417 566.538c-32.5 32.522-59.333 59.207-59.583 59.207s-13.5-13.092-29.583-29.187l-29.167-29.187 16.75-16.845c9.25-9.34 17.667-18.429 18.833-20.264 14.417-23.766 4.083-52.786-22.667-63.71-6.25-2.502-17.083-3.252-23.75-1.501-8.833 2.252-12.5 5.087-31.5 23.85l-18.167 17.929-38-38.109-38.083-38.026 17.667-17.929c16.167-16.261 17.917-18.429 20.5-24.016 5.75-12.675 5.667-23.349-0.333-36.108-7.167-15.177-20.75-23.349-38.75-23.266-9.5 0-15.917 1.835-23.75 6.838-2.5 1.584-11.667 9.84-20.25 18.429l-15.667 15.511-36.417-36.692c-30.333-30.521-36.917-37.526-39.083-41.695-3.75-7.505-4.667-11.758-4.25-21.098 0.25-7.755 0.5-8.756 3.75-15.26 3.417-6.838 4.5-8.005 39.167-42.529 34.25-34.107 35.917-35.608 41.917-38.36 5.5-2.502 7.25-2.835 14.5-3.085 9.25-0.334 13.5 0.5 20.917 4.253 4.333 2.252 25.833 23.349 169.583 167.114l164.583 164.529-59.167 59.207z" />
<glyph unicode="&#xe95d;" glyph-name="keyboard" d="M128 725.334h768c70.692 0 128-57.308 128-128v-341.333c0-70.692-57.308-128-128-128h-768c-70.692 0-128 57.308-128 128v341.333c0 70.692 57.308 128 128 128zM128 640c-23.564 0-42.667-19.103-42.667-42.667v-341.333c0-23.564 19.103-42.667 42.667-42.667h768c23.564 0 42.667 19.103 42.667 42.667v341.333c0 23.564-19.103 42.667-42.667 42.667h-768zM725.333 469.334h85.333c23.564 0 42.667-19.103 42.667-42.667s-19.103-42.667-42.667-42.667h-85.333c-23.564 0-42.667 19.103-42.667 42.667s19.103 42.667 42.667 42.667zM810.667 597.334c23.564 0 42.667-19.103 42.667-42.667s-19.103-42.667-42.667-42.667c-23.564 0-42.667 19.103-42.667 42.667s19.103 42.667 42.667 42.667zM341.333 512c-23.564 0-42.667 19.103-42.667 42.667s19.103 42.667 42.667 42.667c23.564 0 42.667-19.103 42.667-42.667s-19.103-42.667-42.667-42.667zM341.333 384c-23.564 0-42.667 19.103-42.667 42.667s19.103 42.667 42.667 42.667c23.564 0 42.667-19.103 42.667-42.667s-19.103-42.667-42.667-42.667zM469.333 512c-23.564 0-42.667 19.103-42.667 42.667s19.103 42.667 42.667 42.667c23.564 0 42.667-19.103 42.667-42.667s-19.103-42.667-42.667-42.667zM469.333 384c-23.564 0-42.667 19.103-42.667 42.667s19.103 42.667 42.667 42.667c23.564 0 42.667-19.103 42.667-42.667s-19.103-42.667-42.667-42.667zM597.333 512c-23.564 0-42.667 19.103-42.667 42.667s19.103 42.667 42.667 42.667c23.564 0 42.667-19.103 42.667-42.667s-19.103-42.667-42.667-42.667zM597.333 384c-23.564 0-42.667 19.103-42.667 42.667s19.103 42.667 42.667 42.667c23.564 0 42.667-19.103 42.667-42.667s-19.103-42.667-42.667-42.667zM213.333 512c-23.564 0-42.667 19.103-42.667 42.667s19.103 42.667 42.667 42.667c23.564 0 42.667-19.103 42.667-42.667s-19.103-42.667-42.667-42.667zM213.333 384c-23.564 0-42.667 19.103-42.667 42.667s19.103 42.667 42.667 42.667c23.564 0 42.667-19.103 42.667-42.667s-19.103-42.667-42.667-42.667zM213.333 256c-23.564 0-42.667 19.103-42.667 42.667s19.103 42.667 42.667 42.667c23.564 0 42.667-19.103 42.667-42.667s-19.103-42.667-42.667-42.667zM810.667 256c-23.564 0-42.667 19.103-42.667 42.667s19.103 42.667 42.667 42.667c23.564 0 42.667-19.103 42.667-42.667s-19.103-42.667-42.667-42.667zM341.333 341.334h341.333c23.564 0 42.667-19.103 42.667-42.667s-19.103-42.667-42.667-42.667h-341.333c-23.564 0-42.667 19.103-42.667 42.667s19.103 42.667 42.667 42.667z" />
<glyph unicode="&#xe95e;" glyph-name="layers" d="M907.056 384l9.665-5.369c29.261-16.256 29.261-58.339 0-74.595l-384-213.333c-12.886-7.159-28.555-7.159-41.442 0l-384 213.333c-29.261 16.256-29.261 58.339 0 74.595l9.665 5.369 374.335-207.964c12.886-7.159 28.555-7.159 41.442 0l374.335 207.964zM532.721 762.631l384-213.333c29.261-16.256 29.261-58.339 0-74.595l-384-213.333c-12.886-7.159-28.555-7.159-41.442 0l-384 213.333c-29.261 16.256-29.261 58.339 0 74.595l384 213.333c12.886 7.159 28.555 7.159 41.442 0zM512 676.525l-296.144-164.524 296.144-164.524 296.144 164.524-296.144 164.524z" />
<glyph unicode="&#xe95f;" glyph-name="light" d="M661.725 286.553c18.203-4.871 31.608-21.48 31.608-41.22 0-23.564-19.103-42.667-42.667-42.667 23.564 0 42.667-15.282 42.667-34.133s-19.103-34.133-42.667-34.133c0-37.703-38.205-68.267-85.333-68.267h-85.333c-47.128 0-85.333 30.564-85.333 68.267-23.564 0-42.667 15.282-42.667 34.133s19.103 34.133 42.667 34.133c-23.564 0-42.667 19.103-42.667 42.667 0 19.689 13.336 36.263 31.469 41.182-2.765 19.397-6.849 27.257-18.095 38.285-1.165 1.143-4.038 3.834-9.607 9.013-6.081 5.653-8.469 7.879-9.827 9.178-10.229 9.781-18.75 18.902-26.793 28.748-40.797 48.139-63.146 108.803-63.146 172.294 0 147.257 119.391 266.632 266.667 266.632s266.667-119.375 266.667-266.632c0-62.896-21.909-122.815-62.261-171.265-8.502-10.352-17.033-19.47-27.353-29.332-1.301-1.243-3.732-3.509-9.874-9.222-5.479-5.1-8.448-7.884-9.638-9.053-11.803-11.59-15.875-19.687-18.481-38.61zM576.15 288c0.023 0.391 0.043 0.784 0.059 1.177 5.018 43.836 17.29 70.431 44.207 96.863 1.668 1.638 4.89 4.671 9.896 9.337 6.973 6.487 9.575 8.909 10.452 9.747 7.889 7.539 14.129 14.206 20.55 22.022 27.797 33.377 42.687 73.996 42.687 116.888 0 100.133-81.185 181.308-181.333 181.308s-181.333-81.175-181.333-181.308c0-43.306 15.193-84.423 43.393-117.706 6.206-7.589 12.4-14.221 20.191-21.67 0.941-0.899 3.488-3.27 10.231-9.539 5.153-4.799 8.329-7.786 9.976-9.401 26.58-26.065 38.672-52.275 44.020-97.718h107.006z" />
<glyph unicode="&#xe960;" glyph-name="like" d="M469.333 559.408c0 67.801-57.043 123.259-128 123.259s-128-55.458-128-123.259c0-153.718 208.497-388.741 298.667-388.741 90.135 0 298.667 235.103 298.667 388.741 0 67.801-57.043 123.259-128 123.259s-128-55.458-128-123.259c-0.001-0.158 0-0.316 0-0.474 0-23.564-19.103-42.667-42.667-42.667s-42.667 19.103-42.667 42.667c0 0.158 0.001 0.316 0.003 0.474zM682.667 768c117.556 0 213.333-93.117 213.333-208.593 0-198.639-244.306-474.074-384-474.074-139.726 0-384 275.352-384 474.074 0 115.476 95.777 208.593 213.333 208.593 69.675 0 131.7-32.711 170.667-83.401 38.967 50.69 100.991 83.401 170.667 83.401z" />
<glyph unicode="&#xe961;" glyph-name="map" d="M384 684.975l241.339 80.446c4.62 1.702 9.572 2.62 14.661 2.612 5.089 0.008 10.041-0.909 14.661-2.612l254.832-84.944c17.423-5.808 29.174-22.112 29.174-40.477v-512c0-29.122-28.531-49.686-56.159-40.477l-242.508 80.836-241.339-80.446c-4.62-1.702-9.572-2.62-14.661-2.612-5.089-0.008-10.041 0.909-14.661 2.612l-254.832 84.944c-17.423 5.808-29.174 22.112-29.174 40.477v512c0 29.122 28.531 49.686 56.159 40.477l242.508-80.836zM341.333 609.248l-170.667 56.889v-422.051l170.667-56.889v422.051zM682.667 244.086l170.667-56.889v422.051l-170.667 56.889v-422.051zM426.667 187.197l170.667 56.889v422.051l-170.667-56.889v-422.051z" />
<glyph unicode="&#xe962;" glyph-name="menu-close" d="M316.34 469.334h494.327c23.564 0 42.667-19.103 42.667-42.667s-19.103-42.667-42.667-42.667h-494.327l55.163-55.163c16.662-16.662 16.662-43.677 0-60.34s-43.677-16.662-60.34 0l-128 128c-7.721 7.721-12.497 18.388-12.497 30.17s4.776 22.449 12.497 30.17l128 128c16.662 16.662 43.677 16.662 60.34 0s16.662-43.677 0-60.34l-55.163-55.163zM512 256h298.667c23.564 0 42.667-19.103 42.667-42.667s-19.103-42.667-42.667-42.667h-298.667c-23.564 0-42.667 19.103-42.667 42.667s19.103 42.667 42.667 42.667zM512 682.667h298.667c23.564 0 42.667-19.103 42.667-42.667s-19.103-42.667-42.667-42.667h-298.667c-23.564 0-42.667 19.103-42.667 42.667s19.103 42.667 42.667 42.667z" />
<glyph unicode="&#xe963;" glyph-name="microphone" d="M853.333 341.334c0-188.513-152.82-341.333-341.333-341.333s-341.333 152.82-341.333 341.333v85.333c0 23.564 19.103 42.667 42.667 42.667s42.667-19.103 42.667-42.667v-85.333c0-141.385 114.615-256 256-256s256 114.615 256 256v85.333c0 23.564 19.103 42.667 42.667 42.667s42.667-19.103 42.667-42.667v-85.333zM512 853.334c94.257 0 170.667-76.41 170.667-170.667v-341.333c0-94.257-76.41-170.667-170.667-170.667s-170.667 76.41-170.667 170.667v341.333c0 94.257 76.41 170.667 170.667 170.667zM512 768c-47.128 0-85.333-38.205-85.333-85.333v-341.333c0-47.128 38.205-85.333 85.333-85.333s85.333 38.205 85.333 85.333v341.333c0 47.128-38.205 85.333-85.333 85.333z" />
<glyph unicode="&#xe964;" glyph-name="minus-circle" d="M512-0c-235.641 0-426.667 191.025-426.667 426.667s191.025 426.667 426.667 426.667c235.641 0 426.667-191.025 426.667-426.667s-191.025-426.667-426.667-426.667zM298.667 469.334c-23.564 0-42.667-19.103-42.667-42.667s19.103-42.667 42.667-42.667h426.667c23.564 0 42.667 19.103 42.667 42.667s-19.103 42.667-42.667 42.667h-426.667z" />
<glyph unicode="&#xe965;" glyph-name="more-vert" d="M426.667 682.667c0 47.128 38.205 85.333 85.333 85.333s85.333-38.205 85.333-85.333c0-47.128-38.205-85.333-85.333-85.333s-85.333 38.205-85.333 85.333zM426.667 426.667c0 47.128 38.205 85.333 85.333 85.333s85.333-38.205 85.333-85.333c0-47.128-38.205-85.333-85.333-85.333s-85.333 38.205-85.333 85.333zM426.667 170.667c0 47.128 38.205 85.333 85.333 85.333s85.333-38.205 85.333-85.333c0-47.128-38.205-85.333-85.333-85.333s-85.333 38.205-85.333 85.333z" />
<glyph unicode="&#xe967;" glyph-name="parameters" d="M298.667 415.251c25.506-14.755 42.667-42.332 42.667-73.917 0-47.128-38.205-85.333-85.333-85.333s-85.333 38.205-85.333 85.333c0 31.585 17.16 59.163 42.667 73.917v352.749c0 23.564 19.103 42.667 42.667 42.667s42.667-19.103 42.667-42.667v-352.749zM554.667 628.584c25.506-14.755 42.667-42.332 42.667-73.917 0-47.128-38.205-85.333-85.333-85.333s-85.333 38.205-85.333 85.333c0 31.585 17.16 59.163 42.667 73.917v139.416c0 23.564 19.103 42.667 42.667 42.667s42.667-19.103 42.667-42.667v-139.416zM810.667 500.584c25.506-14.755 42.667-42.332 42.667-73.917 0-47.128-38.205-85.333-85.333-85.333s-85.333 38.205-85.333 85.333c0 31.585 17.16 59.163 42.667 73.917v267.416c0 23.564 19.103 42.667 42.667 42.667s42.667-19.103 42.667-42.667v-267.416zM256 213.334c23.564 0 42.667-19.103 42.667-42.667v-85.333c0-23.564-19.103-42.667-42.667-42.667s-42.667 19.103-42.667 42.667v85.333c0 23.564 19.103 42.667 42.667 42.667zM512 426.667c23.564 0 42.667-19.103 42.667-42.667v-298.667c0-23.564-19.103-42.667-42.667-42.667s-42.667 19.103-42.667 42.667v298.667c0 23.564 19.103 42.667 42.667 42.667zM768 298.667c23.564 0 42.667-19.103 42.667-42.667v-170.667c0-23.564-19.103-42.667-42.667-42.667s-42.667 19.103-42.667 42.667v170.667c0 23.564 19.103 42.667 42.667 42.667z" />
<glyph unicode="&#xe968;" glyph-name="paste" d="M725.333 256h42.667c23.564 0 42.667 19.103 42.667 42.667v426.667c0 23.564-19.103 42.667-42.667 42.667h-341.333c-23.564 0-42.667-19.103-42.667-42.667v-128h-128c-23.564 0-42.667-19.103-42.667-42.667v-170.667h-85.333v170.667c0 70.692 57.308 128 128 128h42.667v42.667c0 70.692 57.308 128 128 128h341.333c70.692 0 128-57.308 128-128v-426.667c0-70.692-57.308-128-128-128h-42.667v-42.667c0-70.692-57.308-128-128-128h-128v85.333h128c23.564 0 42.667 19.103 42.667 42.667v170.667h52.513c11.128 0 22.084 0.048 32.821 0.141v-42.808zM469.333 682.667h128c70.692 0 128-57.308 128-128v-170.808c-10.737 0.093-21.692 0.141-32.821 0.141h-52.513v170.667c0 23.564-19.103 42.667-42.667 42.667h-128v85.333zM384-0h-128c-70.692 0-128 57.308-128 128v170.667h85.333v-170.667c0-23.564 19.103-42.667 42.667-42.667h128v-85.333z" />
<glyph unicode="&#xe969;" glyph-name="picker" d="M553.895 624.469l161.056-157.853 58.975 59.521-42.352 42.352 32.426 32.426c1.529 1.524 1.529 1.524 3.039 3.012 1.127 1.106 1.127 1.106 2.249 2.198 3.38 3.285 21.621 20.566 28.823 27.527 15.607 15.087 6.879 6.048 31.531 31.227 24.52 25.054 20.624 68.64 0 87.365-19.484 17.722-58.629 16.398-81.549-6.673-39.896-40.071-64.23-66.981-59.4-62.132-2.229-2.239-2.229-2.239-3.877-3.904l-32.425-32.783-38.414 38.414-60.082-60.698zM601.397 449.419l-63.509 62.282-315.327-315.571c-6.432-6.253-1.092-32.892 15.52-48.217 17.316-15.974 41.854-19.863 48.379-13.639l314.936 315.145zM453.14 624.236c0 18.724 7.494 36.669 20.457 49.479l91.053 91.983c13.377 13.092 31.441 20.279 49.364 19.963 13.133 0 25.945-3.602 36.997-10.429 17.772 17.672 13.46 12.279 33.398 32.304 57.236 57.613 152.239 60.828 208.26 9.873 58.568-53.176 63.354-155.28 1.941-218.029-25.224-25.762-16.514-15.972-32.755-31.671 8.025-12.368 12.72-26.692 12.72-41.502 0-18.629-7.428-36.489-20.396-49.381l-90.419-91.258c-13.155-13.375-31.13-20.907-49.89-20.907-18.112 0-35.492 7.021-48.247 19.278l-315.029-315.223c-47.924-45.833-125.585-33.524-174.7 11.785-50.895 46.952-67.966 132.1-17.736 180.923l314.276 314.525c-12.367 13.004-19.293 30.285-19.293 48.286z" />
<glyph unicode="&#xe96a;" glyph-name="picture" d="M896 238.327l-213.333 213.333-195.66-195.66 97.83-97.83c16.662-16.662 16.662-43.677 0-60.34s-43.677-16.662-60.34 0l-225.83 225.83-170.667-170.667v-67.66c0-23.564 19.103-42.667 42.667-42.667h682.667c23.564 0 42.667 19.103 42.667 42.667v152.994zM896 359.007v408.994c0 23.564-19.103 42.667-42.667 42.667h-682.667c-23.564 0-42.667-19.103-42.667-42.667v-494.327l140.497 140.497c16.662 16.662 43.677 16.662 60.34 0l97.83-97.83 225.83 225.83c16.662 16.662 43.677 16.662 60.34 0l183.163-183.163zM170.667 896h682.667c70.692 0 128-57.308 128-128v-682.667c0-70.692-57.308-128-128-128h-682.667c-70.692 0-128 57.308-128 128v682.667c0 70.692 57.308 128 128 128zM341.333 512c-47.128 0-85.333 38.205-85.333 85.333s38.205 85.333 85.333 85.333c47.128 0 85.333-38.205 85.333-85.333s-38.205-85.333-85.333-85.333z" />
<glyph unicode="&#xe96b;" glyph-name="plus-circle" d="M512-0c-235.641 0-426.667 191.025-426.667 426.667s191.025 426.667 426.667 426.667c235.641 0 426.667-191.025 426.667-426.667s-191.025-426.667-426.667-426.667zM725.333 469.334h-170.667v170.667c0 23.552-19.115 42.667-42.667 42.667s-42.667-19.115-42.667-42.667v-170.667h-170.667c-23.552 0-42.667-19.115-42.667-42.667s19.115-42.667 42.667-42.667h170.667v-170.667c0-23.595 19.115-42.667 42.667-42.667s42.667 19.072 42.667 42.667v170.667h170.667c23.595 0 42.667 19.115 42.667 42.667s-19.072 42.667-42.667 42.667z" />
<glyph unicode="&#xe96c;" glyph-name="refresh" d="M214.244 450.75c-6.95-85.897 23.378-172.11 86.539-235.272 116.637-116.637 305.742-116.637 422.378 0 16.662 16.662 43.677 16.662 60.34 0s16.662-43.677 0-60.34c-149.961-149.961-393.097-149.961-543.058 0-79.924 79.924-118.96 188.638-111.638 297.328l-55.969-55.969c-16.662-16.662-43.677-16.662-60.34 0s-16.662 43.677 0 60.34l128 128c16.662 16.662 43.677 16.662 60.34 0l128-128c16.662-16.662 16.662-43.677 0-60.34s-43.677-16.662-60.34 0l-54.253 54.253zM809.756 402.584c6.95 85.897-23.378 172.11-86.539 235.272-116.637 116.637-305.742 116.637-422.378 0-16.662-16.662-43.677-16.662-60.34 0s-16.662 43.677 0 60.34c149.961 149.961 393.097 149.961 543.058 0 79.924-79.924 118.96-188.638 111.638-297.328l55.969 55.969c16.662 16.662 43.677 16.662 60.34 0s16.662-43.677 0-60.34l-128-128c-16.662-16.662-43.677-16.662-60.34 0l-128 128c-16.662 16.662-16.662 43.677 0 60.34s43.677 16.662 60.34 0l54.253-54.253z" />
<glyph unicode="&#xe96d;" glyph-name="server" d="M906.074 426.667c20.268-22.646 32.593-52.55 32.593-85.333v-85.333c0-70.692-57.308-128-128-128h-597.333c-70.692 0-128 57.308-128 128v85.333c0 32.783 12.324 62.688 32.593 85.333-20.268 22.646-32.593 52.55-32.593 85.333v85.333c0 70.692 57.308 128 128 128h597.333c70.692 0 128-57.308 128-128v-85.333c0-32.783-12.324-62.688-32.593-85.333zM810.667 469.334c23.564 0 42.667 19.103 42.667 42.667v85.333c0 23.564-19.103 42.667-42.667 42.667h-597.333c-23.564 0-42.667-19.103-42.667-42.667v-85.333c0-23.564 19.103-42.667 42.667-42.667h597.333zM597.333 512c-23.564 0-42.667 19.103-42.667 42.667s19.103 42.667 42.667 42.667c23.564 0 42.667-19.103 42.667-42.667s-19.103-42.667-42.667-42.667zM725.333 512c-23.564 0-42.667 19.103-42.667 42.667s19.103 42.667 42.667 42.667c23.564 0 42.667-19.103 42.667-42.667s-19.103-42.667-42.667-42.667zM213.333 384c-23.564 0-42.667-19.103-42.667-42.667v-85.333c0-23.564 19.103-42.667 42.667-42.667h597.333c23.564 0 42.667 19.103 42.667 42.667v85.333c0 23.564-19.103 42.667-42.667 42.667h-597.333zM597.333 256c-23.564 0-42.667 19.103-42.667 42.667s19.103 42.667 42.667 42.667c23.564 0 42.667-19.103 42.667-42.667s-19.103-42.667-42.667-42.667zM725.333 256c-23.564 0-42.667 19.103-42.667 42.667s19.103 42.667 42.667 42.667c23.564 0 42.667-19.103 42.667-42.667s-19.103-42.667-42.667-42.667z" />
<glyph unicode="&#xe96e;" glyph-name="signal" d="M512 384c-23.564 0-42.667 19.103-42.667 42.667s19.103 42.667 42.667 42.667c23.564 0 42.667-19.103 42.667-42.667s-19.103-42.667-42.667-42.667zM701.328 710.729c-19.595 13.089-24.868 39.584-11.779 59.179s39.584 24.868 59.179 11.779c117.73-78.643 189.939-210.736 189.939-355.020s-72.209-276.377-189.939-355.020c-19.595-13.089-46.090-7.815-59.179 11.779s-7.815 46.090 11.779 59.179c94.272 62.973 152.006 168.586 152.006 284.062s-57.734 221.089-152.006 284.062zM322.672 142.605c19.595-13.089 24.868-39.584 11.779-59.179s-39.584-24.868-59.179-11.779c-117.73 78.643-189.939 210.736-189.939 355.020s72.209 276.377 189.939 355.020c19.595 13.089 46.090 7.815 59.179-11.779s7.815-46.090-11.779-59.179c-94.272-62.973-152.006-168.586-152.006-284.062s57.734-221.089 152.006-284.062zM417.351 284.623c19.595-13.089 24.868-39.584 11.779-59.179s-39.584-24.868-59.179-11.779c-70.619 47.173-113.952 126.442-113.952 213.002s43.333 165.829 113.952 213.002c19.595 13.089 46.090 7.815 59.179-11.779s7.815-46.090-11.779-59.179c-47.161-31.503-76.018-84.292-76.018-142.044s28.857-110.541 76.018-142.044zM606.649 568.711c-19.595 13.089-24.868 39.584-11.779 59.179s39.584 24.868 59.179 11.779c75.483-50.422 113.952-116.526 113.952-213.002s-38.469-162.58-113.952-213.002c-19.595-13.089-46.090-7.815-59.179 11.779s-7.815 46.090 11.779 59.179c52.672 35.184 76.018 75.302 76.018 142.044s-23.346 106.859-76.018 142.044z" />
<glyph unicode="&#xe96f;" glyph-name="target" d="M512-0c-235.641 0-426.667 191.025-426.667 426.667s191.025 426.667 426.667 426.667c235.641 0 426.667-191.025 426.667-426.667s-191.025-426.667-426.667-426.667zM512 85.334c188.513 0 341.333 152.82 341.333 341.333s-152.82 341.333-341.333 341.333c-188.513 0-341.333-152.82-341.333-341.333s152.82-341.333 341.333-341.333zM512 170.667c-141.385 0-256 114.615-256 256s114.615 256 256 256c141.385 0 256-114.615 256-256s-114.615-256-256-256zM512 256c94.257 0 170.667 76.41 170.667 170.667s-76.41 170.667-170.667 170.667c-94.257 0-170.667-76.41-170.667-170.667s76.41-170.667 170.667-170.667zM512 341.334c-47.128 0-85.333 38.205-85.333 85.333s38.205 85.333 85.333 85.333c47.128 0 85.333-38.205 85.333-85.333s-38.205-85.333-85.333-85.333z" />
<glyph unicode="&#xe970;" glyph-name="text-bold" d="M641.365 463.19c28.217-8.647 49.835-23.097 64.853-43.349s22.528-45.17 22.528-74.752c0-26.397-6.94-49.493-20.821-69.291s-33.678-35.157-59.392-46.080c-25.714-10.923-55.865-16.384-90.453-16.384h-239.616v481.28h232.789c50.518 0 90.681-11.264 120.491-33.792s44.715-52.906 44.715-91.136c0-24.576-6.599-46.307-19.797-65.195s-31.63-32.654-55.296-41.301zM440.661 505.515h89.429c23.666 0 40.96 3.641 51.883 10.923s16.384 18.887 16.384 34.816c0 16.839-5.461 29.127-16.384 36.864s-28.217 11.605-51.883 11.605h-89.429v-94.208zM542.379 308.224c25.031 0 42.894 3.982 53.589 11.947s16.043 21.049 16.043 39.253c0 18.205-5.348 31.289-16.043 39.253s-28.558 11.947-53.589 11.947h-101.717v-102.4h101.717z" />
<glyph unicode="&#xe971;" glyph-name="text-italic" d="M341.333 170.667h341.333c23.564 0 42.667 19.103 42.667 42.667s-19.103 42.667-42.667 42.667c-211.846 0-325.624 0-341.333 0-23.564 0-42.667-19.103-42.667-42.667s19.103-42.667 42.667-42.667zM384 640h341.333c23.564 0 42.667 19.103 42.667 42.667s-19.103 42.667-42.667 42.667c-211.846 0-325.624 0-341.333 0-23.564 0-42.667-19.103-42.667-42.667s19.103-42.667 42.667-42.667zM469.333 256.031l42.752 383.887 85.156 0.083-42.47-383.969h-85.438z" />
<glyph unicode="&#xe972;" glyph-name="text-underline" d="M341.333 85.334c-23.564 0-42.667 19.103-42.667 42.667s19.103 42.667 42.667 42.667c15.709 0 129.487 0 341.333 0 23.564 0 42.667-19.103 42.667-42.667s-19.103-42.667-42.667-42.667h-341.333zM512 250.539c-64.171 0-112.867 16.611-146.091 49.835s-49.835 82.147-49.835 146.773v290.133h69.632v-294.912c0-44.146 10.581-77.596 31.744-100.352s52.679-34.133 94.549-34.133c41.415 0 72.818 11.378 94.208 34.133s32.085 56.206 32.085 100.352v294.912h69.632v-290.133c0-64.171-16.725-112.981-50.176-146.432s-82.033-50.176-145.749-50.176z" />
<glyph unicode="&#xe973;" glyph-name="balance" d="M512 853.334c23.564 0 42.667-19.103 42.667-42.667l0.023-44.426c104.7-8.661 202.938-49.038 283.173-115.309 18.168-15.006 20.731-41.9 5.725-60.068-8.433-10.209-20.618-15.491-32.901-15.496l-0.020-234.034h85.333c21.881 0 39.915-16.471 42.38-37.691l0.287-4.976c0-94.257-76.41-170.667-170.667-170.667s-170.667 76.41-170.667 170.667c0 23.564 19.103 42.667 42.667 42.667h85.333l0.055 284.242c-51.946 30.071-109.908 48.941-170.685 54.98l-0.045-595.222h128.008c23.564 0 42.667-19.103 42.667-42.667s-19.103-42.667-42.667-42.667h-341.333c-23.564 0-42.667 19.103-42.667 42.667s19.103 42.667 42.667 42.667h127.992l0.010 595.226c-60.778-6.034-118.741-24.898-170.69-54.964l0.021-284.262h85.333c21.881 0 39.915-16.471 42.38-37.691l0.287-4.976c0-94.257-76.41-170.667-170.667-170.667s-170.667 76.41-170.667 170.667c0 23.564 19.103 42.667 42.667 42.667h85.333v234.013c-12.296-0.008-24.501 5.274-32.944 15.494-15.008 18.167-12.446 45.060 5.721 60.068 80.249 66.293 178.512 106.679 283.238 115.335l-0.015 44.423c0 23.564 19.103 42.667 42.667 42.667zM841.903 255.975h-147.805c14.758-25.492 42.328-42.641 73.903-42.641s59.144 17.149 73.903 42.641zM329.903 255.975h-147.805c14.758-25.492 42.328-42.641 73.903-42.641s59.144 17.149 73.903 42.641z" />
<glyph unicode="&#xe974;" glyph-name="book" d="M640 896c23.564 0 42.667-19.103 42.667-42.667h85.333c47.128 0 85.333-38.205 85.333-85.333v-682.667c0-47.128-38.205-85.333-85.333-85.333h-469.333c-70.692 0-128 57.308-128 128v597.333c0 70.692 57.308 128 128 128h128c0 23.564 19.103 42.667 42.667 42.667h170.667zM768 170.667h-469.333c-21.881 0-39.915-16.471-42.38-37.691l-0.287-4.976c0-23.564 19.103-42.667 42.667-42.667h469.333v85.333zM426.667 768h-128c-23.564 0-42.667-19.103-42.667-42.667v-476.615c11.096 3.92 22.889 6.355 35.146 7.065l7.521 0.217h469.333v512h-85.333v-256c0-38.012-45.958-57.048-72.837-30.17l-55.163 55.163-55.163-55.163c-26.879-26.878-72.837-7.842-72.837 30.17v256zM597.333 810.667h-85.333v-195.66l12.497 12.497c16.662 16.662 43.677 16.662 60.34 0l12.497-12.497v195.66z" />
</font>
</defs>
</svg>
