<svg id="preto_s_txt" data-name="preto s txt" xmlns="http://www.w3.org/2000/svg" viewBox="0 0 203.06 127.39">
  <title>po_black</title>
  <g>
    <path d="M122.93,136.65c0,15.86,5.71,28.89,17,38.74,8.93,7.76,19,12.16,30,13.11v-21a29.48,29.48,0,0,1-16.1-8.39c-6.1-5.85-9.06-13.15-9.06-22.31,0-8.71,2.86-15.81,8.78-21.72a28.43,28.43,0,0,1,16.38-8.49v-21a50.68,50.68,0,0,0-31.55,14.83C128.12,110.47,122.93,122.65,122.93,136.65Z" transform="translate(-23.97 -61.3)"/>
    <path d="M211.75,100.59a49.92,49.92,0,0,0-33.91-15.16v20.92a28.11,28.11,0,0,1,18.65,8.75c5.87,5.94,8.72,13.12,8.72,22a29.92,29.92,0,0,1-8.84,22,28.79,28.79,0,0,1-18.53,8.73v20.83a51.18,51.18,0,0,0,33.81-14.9A49.25,49.25,0,0,0,227,137.18,50,50,0,0,0,211.75,100.59Z" transform="translate(-23.97 -61.3)"/>
    <path d="M65.35,61.3a54.39,54.39,0,0,0-11.9,1.29V84.35a30.5,30.5,0,0,1,11.72-2.18A28.52,28.52,0,0,1,86.62,91c5.87,5.94,8.72,13.13,8.72,22a29.9,29.9,0,0,1-8.84,22,29.13,29.13,0,0,1-21.69,8.87,28.36,28.36,0,0,1-11.36-2.28v23c5,.06,10.11.09,11.18.09a51.49,51.49,0,0,0,37.15-15,49.25,49.25,0,0,0,15.38-36.5,50,50,0,0,0-15.28-36.59A50,50,0,0,0,65.35,61.3Z" transform="translate(-23.97 -61.3)"/>
    <path d="M24,89V188.7h0c11.72-3,21.54-12.17,21.54-24.07V64.11C31.17,68.59,24,77.09,24,89Z" transform="translate(-23.97 -61.3)"/>
  </g>
</svg>
