<svg id="cor_s_txt" data-name="cor s txt" xmlns="http://www.w3.org/2000/svg" xmlns:xlink="http://www.w3.org/1999/xlink" viewBox="0 0 202.2 126.85">
  <defs>
    <style>
      .cls-1 {
        fill: url(#Gradiente_sem_nome_74);
      }

      .cls-2 {
        fill: url(#Gradiente_sem_nome_74-2);
      }

      .cls-3 {
        fill: url(#Gradiente_sem_nome_74-3);
      }

      .cls-4 {
        fill: url(#Gradiente_sem_nome_74-4);
      }
    </style>
    <linearGradient id="Gradiente_sem_nome_74" data-name="Gradiente sem nome 74" x1="156.09" y1="-35.75" x2="142.77" y2="220.49" gradientUnits="userSpaceOnUse">
      <stop offset="0.05" stop-color="#b939a9"/>
      <stop offset="0.95" stop-color="#db596d"/>
    </linearGradient>
    <linearGradient id="Gradiente_sem_nome_74-2" x1="209.15" y1="-33" x2="195.84" y2="223.25" xlink:href="#Gradiente_sem_nome_74"/>
    <linearGradient id="Gradiente_sem_nome_74-3" x1="91.62" y1="-39.1" x2="78.3" y2="217.14" xlink:href="#Gradiente_sem_nome_74"/>
    <linearGradient id="Gradiente_sem_nome_74-4" x1="43.37" y1="-41.61" x2="30.06" y2="214.63" xlink:href="#Gradiente_sem_nome_74"/>
  </defs>
  <title>po_color</title>
  <g>
    <path class="cls-1" d="M122.44,136.6c0,15.79,5.68,28.77,16.9,38.58a51.63,51.63,0,0,0,29.88,13V167.34a29.32,29.32,0,0,1-16-8.35c-6.07-5.83-9-13.09-9-22.22,0-8.67,2.85-15.74,8.74-21.63a28.33,28.33,0,0,1,16.31-8.45V85.78a50.38,50.38,0,0,0-31.41,14.77C127.61,110.53,122.44,122.66,122.44,136.6Z" transform="translate(-23.9 -61.57)"/>
    <path class="cls-2" d="M210.88,100.7a49.68,49.68,0,0,0-33.76-15.1v20.82a28,28,0,0,1,18.57,8.72c5.85,5.92,8.69,13.07,8.69,21.87a29.76,29.76,0,0,1-8.81,21.87,28.68,28.68,0,0,1-18.45,8.7v20.74a51,51,0,0,0,33.67-14.84,49,49,0,0,0,15.31-36.35A49.78,49.78,0,0,0,210.88,100.7Z" transform="translate(-23.9 -61.57)"/>
    <path class="cls-3" d="M65.1,61.57a54.61,54.61,0,0,0-11.85,1.28V84.52a30.52,30.52,0,0,1,11.68-2.17,28.4,28.4,0,0,1,21.36,8.83C92.13,97.09,95,104.25,95,113.05a29.81,29.81,0,0,1-8.8,21.87,29,29,0,0,1-21.6,8.83,28.33,28.33,0,0,1-11.32-2.27v22.89c5,.06,10.07.09,11.14.09a51.29,51.29,0,0,0,37-14.94,49,49,0,0,0,15.32-36.35,49.8,49.8,0,0,0-15.22-36.44A49.83,49.83,0,0,0,65.1,61.57Z" transform="translate(-23.9 -61.57)"/>
    <path class="cls-4" d="M23.9,89.14v99.29h0c11.68-3,21.45-12.12,21.45-24V64.37C31.07,68.83,23.9,77.29,23.9,89.14Z" transform="translate(-23.9 -61.57)"/>
  </g>
</svg>
