<svg xmlns="http://www.w3.org/2000/svg" viewBox="0 0 250 250">
  <defs>
    <style>
      .cls-1 {
        fill: none;
      }

      .cls-2 {
        fill: #fff;
      }
    </style>
  </defs>
  <title>po_white</title>
  <g id="bg">
    <rect class="cls-1" width="250" height="250"/>
  </g>
  <g id="branco">
    <g>
      <path class="cls-2" d="M122.42,136.68c0,15.91,5.73,29,17,38.85a52,52,0,0,0,30.09,13.15v-21a29.56,29.56,0,0,1-16.14-8.41c-6.12-5.87-9.09-13.19-9.09-22.37,0-8.74,2.88-15.86,8.81-21.79a28.5,28.5,0,0,1,16.42-8.51V85.5a50.76,50.76,0,0,0-31.63,14.88C127.63,110.43,122.42,122.64,122.42,136.68Z"/>
      <path class="cls-2" d="M211.49,100.52a50.07,50.07,0,0,0-34-15.2v21a28.27,28.27,0,0,1,18.7,8.78c5.89,6,8.75,13.16,8.75,22a30,30,0,0,1-8.87,22,28.86,28.86,0,0,1-18.58,8.76v20.89a51.38,51.38,0,0,0,33.91-15,49.4,49.4,0,0,0,15.42-36.6A50.16,50.16,0,0,0,211.49,100.52Z"/>
      <path class="cls-2" d="M64.68,61.12a54.82,54.82,0,0,0-11.94,1.29V84.23A30.7,30.7,0,0,1,64.5,82.05,28.59,28.59,0,0,1,86,90.94c5.89,6,8.75,13.16,8.75,22a30,30,0,0,1-8.87,22,29.23,29.23,0,0,1-21.75,8.89,28.42,28.42,0,0,1-11.4-2.29v23.06c5,.06,10.15.09,11.22.09a51.66,51.66,0,0,0,37.26-15.05,49.42,49.42,0,0,0,15.42-36.61,50.16,50.16,0,0,0-15.33-36.69A50.17,50.17,0,0,0,64.68,61.12Z"/>
      <path class="cls-2" d="M23.18,88.88v100h0c11.76-3,21.61-12.21,21.61-24.14V63.94C30.41,68.43,23.18,77,23.18,88.88Z"/>
    </g>
  </g>
</svg>
