<svg xmlns="http://www.w3.org/2000/svg" viewBox="0 0 250 250">
  <defs>
    <style>
      .cls-1 {
        fill: none;
      }

      .cls-2 {
        fill: #fff;
      }
    </style>
  </defs>
  <title>po_white_txt</title>
  <g id="bg">
    <rect class="cls-1" width="250" height="250"/>
  </g>
  <g id="cor_c_txt_bg_c贸pia_c贸pia" data-name="cor c txt bg c贸pia c贸pia">
    <g>
      <g>
        <path class="cls-2" d="M26.74,209.8v10.87H23.08V192.92H33.31a10.28,10.28,0,0,1,7.14,2.32A7.89,7.89,0,0,1,43,201.4a7.78,7.78,0,0,1-2.52,6.22c-1.69,1.46-4.1,2.18-7.24,2.18Zm0-3h6.57a6.58,6.58,0,0,0,4.5-1.38,5.08,5.08,0,0,0,1.56-4,5.26,5.26,0,0,0-1.56-4,6.17,6.17,0,0,0-4.29-1.54H26.74Z"/>
        <path class="cls-2" d="M47.53,210.17a12.26,12.26,0,0,1,1.19-5.46A8.87,8.87,0,0,1,52,201a9,9,0,0,1,4.85-1.32,8.7,8.7,0,0,1,6.81,2.92,11.19,11.19,0,0,1,2.6,7.76v.24A12.31,12.31,0,0,1,65.15,216a8.72,8.72,0,0,1-3.3,3.72,9.12,9.12,0,0,1-4.92,1.34,8.67,8.67,0,0,1-6.8-2.92,11.16,11.16,0,0,1-2.6-7.72Zm3.54.41a8.76,8.76,0,0,0,1.6,5.51,5.39,5.39,0,0,0,8.53,0,9.66,9.66,0,0,0,1.58-5.89,8.81,8.81,0,0,0-1.61-5.5,5.12,5.12,0,0,0-4.28-2.11,5,5,0,0,0-4.21,2.08A9.55,9.55,0,0,0,51.07,210.58Z"/>
        <path class="cls-2" d="M82.26,203.21a10.61,10.61,0,0,0-1.74-.13A4.65,4.65,0,0,0,75.81,206v14.64H72.29V200h3.43l0,2.39a5.49,5.49,0,0,1,4.92-2.77,3.6,3.6,0,0,1,1.57.27Z"/>
        <path class="cls-2" d="M93.56,195.05v5h3.85v2.73H93.56v12.81a2.9,2.9,0,0,0,.51,1.86,2.2,2.2,0,0,0,1.76.62,8.74,8.74,0,0,0,1.67-.23v2.84a10.34,10.34,0,0,1-2.7.38,4.41,4.41,0,0,1-3.57-1.43,6.15,6.15,0,0,1-1.2-4.06V202.77H86.28V200H90v-5Z"/>
        <path class="cls-2" d="M103.89,194.57a2.07,2.07,0,0,1,.52-1.44,2,2,0,0,1,1.55-.6,2,2,0,0,1,1.57.6,2.08,2.08,0,0,1,.53,1.44,2,2,0,0,1-.53,1.43,2.06,2.06,0,0,1-1.57.58,1.9,1.9,0,0,1-2.07-2Zm3.81,26.1h-3.53V200h3.53Z"/>
        <path class="cls-2" d="M117.46,200l.11,2.6a7.52,7.52,0,0,1,6.18-3q6.52,0,6.59,7.38v13.63h-3.52V207a4.82,4.82,0,0,0-1-3.3,4.1,4.1,0,0,0-3.12-1.06,5.08,5.08,0,0,0-3,.91,6.14,6.14,0,0,0-2,2.4v14.7h-3.53V200Z"/>
        <path class="cls-2" d="M149.17,220.67a7.35,7.35,0,0,1-.49-2.18,7.85,7.85,0,0,1-5.87,2.56,7.3,7.3,0,0,1-5-1.73,5.57,5.57,0,0,1-2-4.37,5.82,5.82,0,0,1,2.45-5,11.53,11.53,0,0,1,6.89-1.79h3.43v-1.62a3.94,3.94,0,0,0-1.11-2.94,4.43,4.43,0,0,0-3.26-1.1,5.12,5.12,0,0,0-3.16,1,2.8,2.8,0,0,0-1.28,2.3h-3.54a4.85,4.85,0,0,1,1.09-3,7.52,7.52,0,0,1,3-2.28,10,10,0,0,1,4.12-.84,8.16,8.16,0,0,1,5.59,1.79,6.43,6.43,0,0,1,2.1,4.9v9.5a11.64,11.64,0,0,0,.72,4.51v.31ZM143.32,218a6.25,6.25,0,0,0,3.15-.86,5.18,5.18,0,0,0,2.15-2.23v-4.23h-2.76c-4.32,0-6.48,1.27-6.48,3.79a3.22,3.22,0,0,0,1.1,2.6A4.26,4.26,0,0,0,143.32,218Z"/>
        <path class="cls-2" d="M168.42,203.21a10.4,10.4,0,0,0-1.73-.13A4.64,4.64,0,0,0,162,206v14.64h-3.53V200h3.43l.06,2.39a5.49,5.49,0,0,1,4.92-2.77,3.52,3.52,0,0,1,1.56.27Z"/>
        <path class="cls-2" d="M173.24,194.57a2.08,2.08,0,0,1,.53-1.44,1.94,1.94,0,0,1,1.55-.6,2,2,0,0,1,1.56.6,2,2,0,0,1,.54,1.44,2,2,0,0,1-.54,1.43,2,2,0,0,1-1.56.58,2,2,0,0,1-1.55-.58A2,2,0,0,1,173.24,194.57Zm3.81,26.1h-3.52V200h3.52Z"/>
        <path class="cls-2" d="M215.57,192.92v18.87a8.83,8.83,0,0,1-2.47,6.42,9.93,9.93,0,0,1-6.64,2.8l-1,0a10.37,10.37,0,0,1-7.26-2.46,8.79,8.79,0,0,1-2.75-6.77v-18.9h3.62v18.79a5.79,5.79,0,0,0,6.39,6.35,6.45,6.45,0,0,0,4.76-1.66,6.37,6.37,0,0,0,1.64-4.67V192.92Z"/>
        <path class="cls-2" d="M226.84,220.67h-3.66V192.92h3.66Z"/>
      </g>
      <g>
        <path class="cls-2" d="M122.49,104.53c0,15.92,5.73,29,17,38.87,8.95,7.79,19.06,12.2,30.1,13.15V135.5a29.45,29.45,0,0,1-16.15-8.41c-6.12-5.87-9.09-13.19-9.09-22.38,0-8.74,2.87-15.86,8.81-21.79a28.44,28.44,0,0,1,16.43-8.51V53.34A50.81,50.81,0,0,0,138,68.22C127.7,78.27,122.49,90.49,122.49,104.53Z"/>
        <path class="cls-2" d="M211.59,68.37a50.12,50.12,0,0,0-34-15.22v21a28.2,28.2,0,0,1,18.71,8.78c5.88,6,8.75,13.17,8.75,22a30,30,0,0,1-8.87,22,28.78,28.78,0,0,1-18.59,8.76v20.91a51.42,51.42,0,0,0,33.92-15,49.44,49.44,0,0,0,15.42-36.62A50.16,50.16,0,0,0,211.59,68.37Z"/>
        <path class="cls-2" d="M64.73,29a54.82,54.82,0,0,0-11.94,1.29V52.07a30.52,30.52,0,0,1,11.76-2.19,28.62,28.62,0,0,1,21.52,8.9c5.89,6,8.75,13.16,8.75,22a30,30,0,0,1-8.87,22,29.23,29.23,0,0,1-21.76,8.9,28.35,28.35,0,0,1-11.4-2.29v23.06c5,.07,10.14.1,11.22.1a51.69,51.69,0,0,0,37.27-15.06A49.44,49.44,0,0,0,116.7,80.93a50.16,50.16,0,0,0-15.33-36.71A50.19,50.19,0,0,0,64.73,29Z"/>
        <path class="cls-2" d="M23.21,56.72v100h0C35,153.7,44.83,144.54,44.83,132.61V31.77C30.44,36.26,23.21,44.78,23.21,56.72Z"/>
      </g>
    </g>
  </g>
</svg>
