<?xml version="1.0" encoding="UTF-8"?>
<svg width="50px" height="46px" viewBox="0 0 50 46" version="1.1" xmlns="http://www.w3.org/2000/svg" xmlns:xlink="http://www.w3.org/1999/xlink">
  <g id="Page-1" stroke="none" stroke-width="1" fill="none" fill-rule="evenodd">
    <g id="Apple-TV" transform="translate(-1657.000000, -587.000000)" stroke="#000000" stroke-width="2">
      <g id="Group-Copy" transform="translate(1658.000000, 588.000000)">
        <path d="M26.8873183,12.1578483 C27.514472,8.28316427 30.8526972,5.32578169 34.8766621,5.32578169 C39.3234088,5.32578169 42.9327501,8.93725076 42.9715531,13.407152 C42.9744661,13.5140104 42.9745771,13.6232108 42.971869,13.7347594 C42.7667348,22.184307 31.7505407,38.4522185 24.2517032,38.4522185 C16.5693104,38.3975603 5.32738819,22.1437371 5.53153741,13.7347594 C5.53210875,13.7112256 5.53278603,13.6877942 5.53356926,13.6644649 C5.53221708,13.6031219 5.53153741,13.5416118 5.53153741,13.4799419 C5.53153741,8.97652356 9.15588496,5.32578169 13.6267442,5.32578169 C17.649395,5.32578169 20.9867538,8.28123283 21.6154727,12.1540522 C21.6135417,12.1957258 21.6125654,12.2376505 21.6125654,12.2798047 C21.6125654,13.7462159 22.7939711,14.9349771 24.2513089,14.9349771 C25.7086467,14.9349771 26.8900524,13.7462159 26.8900524,12.2798047 C26.8900524,12.2389303 26.8891345,12.1982715 26.8873183,12.1578483 Z" id="menor-copy"></path>
        <path d="M0.75846336,18.5838927 C0.267059636,17.1639861 5.68434189e-14,15.6383346 5.68434189e-14,14.0499196 C5.68434189e-14,6.43854703 6.13205809,0.268310424 13.6963351,0.268310424 C17.8699997,0.268310424 21.6076411,2.14677092 24.1197933,5.10931076 C26.5588921,1.9975188 30.3391771,1.42108547e-14 34.5830334,1.42108547e-14 C41.2606322,1.42108547e-14 46.7905113,4.94549957 47.7537978,11.3956908 C47.9362301,12.1094047 48.0172349,12.8880557 47.9969546,13.7226899 C47.7234242,24.9798089 34.2042948,43.7625633 24.2051802,43.7625633 C15.3375853,43.6995271 3.580877,29.630306 0.75846336,18.5838927 Z" id="maior-copy"></path>
      </g>
    </g>
  </g>
</svg>