<?xml version="1.0" encoding="UTF-8"?>
<svg width="107px" height="26px" viewBox="0 0 1919 336" version="1.1" xmlns="http://www.w3.org/2000/svg" xmlns:xlink="http://www.w3.org/1999/xlink">
    <!-- Generator: Sketch 55.2 (78181) - https://sketchapp.com -->
    <title>Group</title>
    <desc>Created with Sketch.</desc>
    <g id="Page-1" stroke="none" stroke-width="1" fill="none" fill-rule="evenodd">
        <g id="Apple-TV" transform="translate(-21.000000, -18.000000)">
            <g id="logo" transform="translate(-14.000000, -76.000000)">
                <g id="Group" transform="translate(5.000000, 38.000000)">
                    <rect id="Rectangle" x="0.840000629" y="0.310001075" width="1820.00005" height="443.170013"></rect>
                    <path d="M71.1414115,259.351163 L71.1414115,387 L30.1594165,387 L30.1594165,60.9356026 L134.070049,60.9356026 C164.377468,60.9356026 188.190083,70.0052977 205.508608,88.14496 C222.827133,106.284622 231.486266,130.433152 231.486266,160.591274 C231.486266,191.943776 223.237696,216.092306 206.740307,233.037587 C190.242919,249.982868 166.990162,258.753973 136.981338,259.351163 L71.1414115,259.351163 Z M71.1414115,224.191747 L134.070049,224.191747 C152.28436,224.191747 166.243479,218.742465 175.947825,207.843738 C185.652171,196.945011 190.504271,181.343642 190.504271,161.039164 C190.504271,141.481174 185.502876,125.805158 175.499934,114.010645 C165.496993,102.216132 151.761817,96.3189644 134.293994,96.3189644 L71.1414115,96.3189644 L71.1414115,224.191747 Z M257.541464,254.648311 C257.541464,219.41407 266.088625,191.533156 283.183204,171.004731 C300.277783,150.476307 322.858711,140.212249 350.926666,140.212249 C378.99462,140.212249 401.575549,150.21504 418.670127,170.220923 C435.764706,190.226805 444.535811,217.473214 444.983703,251.960967 L444.983703,277.490735 C444.983703,312.575678 436.473866,340.344621 419.453936,360.798397 C402.434006,381.252172 379.741106,391.478907 351.374556,391.478907 C323.306602,391.478907 300.800321,381.550763 283.85504,361.694178 C266.909759,341.837593 258.138655,314.964422 257.541464,281.07386 L257.541464,254.648311 Z M297.179787,277.490735 C297.179787,302.423439 302.069211,322.018459 311.848206,336.276383 C321.627201,350.534307 334.802519,357.663162 351.374556,357.663162 C386.310202,357.663162 404.300297,332.432241 405.34538,281.969641 L405.34538,254.648311 C405.34538,229.864904 400.418632,210.269884 390.564989,195.862663 C380.711345,181.455441 367.498703,174.251939 350.926666,174.251939 C334.653224,174.251939 321.627201,181.455441 311.848206,195.862663 C302.069211,210.269884 297.179787,229.790257 297.179787,254.424366 L297.179787,277.490735 Z M586.1468,181.86608 C580.622787,180.820996 574.650972,180.298462 568.231173,180.298462 C547.926696,180.298462 533.743633,191.420969 525.681561,213.666316 L525.681561,387 L486.043238,387 L486.043238,144.691155 L524.561835,144.691155 L525.233671,169.325141 C535.833802,149.916449 550.837989,140.212249 570.246681,140.212249 C576.517182,140.212249 581.742521,141.257316 585.922854,143.347483 L586.1468,181.86608 Z M677.516493,86.0174794 L677.516493,144.691155 L714.019582,144.691155 L714.019582,176.715337 L677.516493,176.715337 L677.516493,326.982652 C677.516493,336.537701 679.084095,343.778527 682.219345,348.705349 C685.354596,353.632171 690.72923,356.095545 698.343409,356.095545 C703.568826,356.095545 708.868813,355.199772 714.243527,353.408201 L713.795637,387 C704.837779,389.985953 695.656112,391.478907 686.250361,391.478907 C670.57411,391.478907 658.630479,385.880329 650.419109,374.683007 C642.207739,363.485685 638.102116,347.660373 638.102116,327.206597 L638.102116,176.715337 L601.151137,176.715337 L601.151137,144.691155 L638.102116,144.691155 L638.102116,86.0174794 L677.516493,86.0174794 Z M803.821658,387 L764.183335,387 L764.183335,144.691155 L803.821658,144.691155 L803.821658,387 Z M806.956893,80.4188462 C806.956893,87.1372396 805.090701,92.7358168 801.35826,97.2147458 C797.625819,101.693675 791.952594,103.933106 784.338415,103.933106 C776.873533,103.933106 771.274956,101.693675 767.542515,97.2147458 C763.810074,92.7358168 761.943882,87.1372396 761.943882,80.4188462 C761.943882,73.7004527 763.810074,68.0272278 767.542515,63.3990013 C771.274956,58.7707747 776.873533,56.4566961 784.338415,56.4566961 C791.803296,56.4566961 797.439198,58.8080985 801.246287,63.5109739 C805.053377,68.2138493 806.956893,73.8497504 806.956893,80.4188462 Z M898.477329,144.691155 L899.597056,170.892759 C914.974712,150.438983 934.607056,140.212249 958.494677,140.212249 C1001.3431,140.212249 1023.06558,168.802316 1023.66277,225.983309 L1023.66277,387 L984.24839,387 L984.24839,227.774872 C984.24839,208.814073 981.075863,195.340164 974.730713,187.35274 C968.385564,179.365317 958.867983,175.371665 946.177684,175.371665 C936.32404,175.371665 927.478288,178.656164 919.640163,185.22526 C911.802037,191.794355 905.494307,200.37884 900.716783,210.978972 L900.716783,387 L861.07846,387 L861.07846,144.691155 L898.477329,144.691155 Z M1207.74583,387 C1205.35706,381.774583 1203.64017,372.966155 1202.59508,360.574451 C1188.56111,381.177524 1170.64566,391.478907 1148.84821,391.478907 C1126.90145,391.478907 1109.76981,385.320472 1097.45275,373.003417 C1085.1357,360.686362 1078.97726,343.330773 1078.97726,320.936128 C1078.97726,296.302019 1087.33781,276.744323 1104.05914,262.262452 C1120.78047,247.780582 1143.69732,240.39046 1172.81036,240.091865 L1201.92325,240.091865 L1201.92325,214.338152 C1201.92325,199.856282 1198.7134,189.5549 1192.2936,183.433697 C1185.8738,177.312494 1176.09495,174.251939 1162.95676,174.251939 C1151.01295,174.251939 1141.30875,177.797704 1133.84387,184.889342 C1126.37899,191.980979 1122.6466,200.976027 1122.6466,211.874754 L1083.00828,211.874754 C1083.00828,199.48305 1086.66602,187.65139 1093.9816,176.379419 C1101.29718,165.107448 1111.15068,156.261696 1123.54238,149.841898 C1135.93409,143.4221 1149.74391,140.212249 1164.97227,140.212249 C1189.75568,140.212249 1208.60422,146.370684 1221.51846,158.687738 C1234.43271,171.004793 1241.03903,188.957564 1241.33763,212.54659 L1241.33763,334.820739 C1241.48692,353.482943 1244.02495,369.681493 1248.95177,383.416875 L1248.95177,387 L1207.74583,387 Z M1154.89473,355.423709 C1164.59908,355.423709 1173.85539,352.736392 1182.66395,347.361677 C1191.47251,341.986962 1197.89221,335.26867 1201.92325,327.206597 L1201.92325,269.428703 L1179.52872,269.428703 C1160.71721,269.727298 1145.86232,273.944893 1134.9636,282.081614 C1124.06487,290.218335 1118.61559,301.602108 1118.61559,316.233276 C1118.61559,329.968659 1121.37755,339.934126 1126.90156,346.129978 C1132.42558,352.325829 1141.75654,355.423709 1154.89473,355.423709 Z M1397.80221,181.86608 C1392.2782,180.820996 1386.30638,180.298462 1379.88658,180.298462 C1359.5821,180.298462 1345.39904,191.420969 1337.33697,213.666316 L1337.33697,387 L1297.69865,387 L1297.69865,144.691155 L1336.21724,144.691155 L1336.88908,169.325141 C1347.48921,149.916449 1362.4934,140.212249 1381.90209,140.212249 C1388.17259,140.212249 1393.39793,141.257316 1397.57826,143.347483 L1397.80221,181.86608 Z M1474.99014,387 L1435.35182,387 L1435.35182,144.691155 L1474.99014,144.691155 L1474.99014,387 Z M1478.12538,80.4188462 C1478.12538,87.1372396 1476.25919,92.7358168 1472.52674,97.2147458 C1468.7943,101.693675 1463.12108,103.933106 1455.5069,103.933106 C1448.04202,103.933106 1442.44344,101.693675 1438.711,97.2147458 C1434.97856,92.7358168 1433.11237,87.1372396 1433.11237,80.4188462 C1433.11237,73.7004527 1434.97856,68.0272278 1438.711,63.3990013 C1442.44344,58.7707747 1448.04202,56.4566961 1455.5069,56.4566961 C1462.97178,56.4566961 1468.60768,58.8080985 1472.41477,63.5109739 C1476.22186,68.2138493 1478.12538,73.8497504 1478.12538,80.4188462 Z M1842.26048,60.9356026 L1842.26048,292.719017 C1841.96189,323.623627 1833.00416,347.80948 1815.38704,365.277303 C1797.76992,382.745126 1773.21083,391.478907 1741.70903,391.478907 C1709.46074,391.478907 1684.827,382.931745 1667.80707,365.837167 C1650.78714,348.742588 1642.12801,324.370115 1641.82941,292.719017 L1641.82941,60.9356026 L1682.58746,60.9356026 L1682.58746,291.1514 C1682.58746,313.098152 1687.25294,329.483321 1696.58404,340.307399 C1705.91515,351.131477 1720.95666,356.543435 1741.70903,356.543435 C1762.6107,356.543435 1777.72686,351.131477 1787.05796,340.307399 C1796.38906,329.483321 1801.05454,313.098152 1801.05454,291.1514 L1801.05454,60.9356026 L1842.26048,60.9356026 Z M1948.18662,387 L1907.20463,387 L1907.20463,60.9356026 L1948.18662,60.9356026 L1948.18662,387 Z" id="PortinariUI" fill="#000000" fill-rule="nonzero"></path>
                </g>
            </g>
        </g>
    </g>
</svg>